<mxfile host="Electron" agent="Mozilla/5.0 (Macintosh; Intel Mac OS X 10_15_7) AppleWebKit/537.36 (KHTML, like Gecko) draw.io/26.0.9 Chrome/128.0.6613.186 Electron/32.2.5 Safari/537.36" version="26.0.9">
  <diagram name="RefArch-CC" id="XV1kHXOdMR_gS96jQz6H">
    <mxGraphModel dx="1761" dy="1032" grid="1" gridSize="10" guides="1" tooltips="1" connect="1" arrows="1" fold="1" page="1" pageScale="1" pageWidth="1169" pageHeight="827" math="0" shadow="0">
      <root>
        <mxCell id="0" />
        <mxCell id="1" parent="0" />
        <mxCell id="KafGypxfdozmPJURQ3H4-121" value="" style="endArrow=none;html=1;strokeColor=none;bendable=1;endFill=0;endSize=3;strokeWidth=2;rounded=1;" parent="1" edge="1">
          <mxGeometry width="50" height="50" relative="1" as="geometry">
            <mxPoint x="629.44" y="86" as="sourcePoint" />
            <mxPoint x="1829.44" y="86" as="targetPoint" />
            <Array as="points">
              <mxPoint x="1239.44" y="86" />
            </Array>
          </mxGeometry>
        </mxCell>
        <mxCell id="i5Ugfd166CEYFusr1dS5-14" value="" style="endArrow=blockThin;html=1;strokeColor=#475e75;bendable=1;rounded=0;endFill=1;endSize=4;strokeWidth=1.5;startSize=4;startArrow=none;startFill=0;entryX=-0.019;entryY=0.482;entryDx=0;entryDy=0;entryPerimeter=0;" parent="1" edge="1">
          <mxGeometry width="50" height="50" relative="1" as="geometry">
            <mxPoint x="353.44" y="193.95000000000005" as="sourcePoint" />
            <mxPoint x="407.52950000000004" y="194.47199999999998" as="targetPoint" />
            <Array as="points" />
          </mxGeometry>
        </mxCell>
        <mxCell id="QrpVGMVo-5H9nDl7puQB-6" value="&lt;p style=&quot;line-height: 100%;&quot;&gt;&lt;b&gt;&lt;font face=&quot;arial black&quot; style=&quot;font-size: 16px;&quot; color=&quot;#ffffff&quot;&gt;2&lt;/font&gt;&lt;/b&gt;&lt;/p&gt;" style="ellipse;whiteSpace=wrap;html=1;aspect=fixed;rotation=0;gradientColor=#0057D2;strokeColor=none;gradientDirection=east;fillColor=#2395FF;rounded=0;pointerEvents=0;fontFamily=Helvetica;fontSize=12;fontColor=default;spacingTop=4;spacingBottom=4;spacingLeft=4;spacingRight=4;" parent="1" vertex="1">
          <mxGeometry x="363.44" y="156.25" width="30" height="30" as="geometry" />
        </mxCell>
        <mxCell id="aZ0MxrTqLQG-AXpiNajb-15" value="" style="rounded=1;whiteSpace=wrap;html=1;strokeColor=#0070F2;fillColor=#EBF8FF;arcSize=16;absoluteArcSize=1;imageWidth=64;imageHeight=64;strokeWidth=1.5;" parent="1" vertex="1">
          <mxGeometry x="694.94" y="73.75" width="830.5" height="705.25" as="geometry" />
        </mxCell>
        <mxCell id="aZ0MxrTqLQG-AXpiNajb-16" value="" style="rounded=1;whiteSpace=wrap;html=1;strokeColor=#0070F2;strokeWidth=1.5;arcSize=16;fillColor=#FFFFFF;perimeterSpacing=0;absoluteArcSize=1;" parent="1" vertex="1">
          <mxGeometry x="715.44" y="125.75" width="800" height="443.25" as="geometry" />
        </mxCell>
        <mxCell id="aZ0MxrTqLQG-AXpiNajb-22" value="&lt;font style=&quot;font-size: 14px;&quot; face=&quot;arial&quot; color=&quot;#5b738b&quot;&gt;&lt;b style=&quot;font-size: 14px;&quot;&gt;NETWORK&lt;/b&gt;&lt;/font&gt;" style="text;html=1;align=center;verticalAlign=middle;resizable=0;points=[];autosize=1;strokeColor=none;fillColor=none;fontSize=14;fontColor=default;fontFamily=Helvetica;" parent="1" vertex="1">
          <mxGeometry x="1546.4399999999996" y="78.75000000000045" width="90" height="29" as="geometry" />
        </mxCell>
        <mxCell id="aZ0MxrTqLQG-AXpiNajb-24" value="" style="shape=image;verticalLabelPosition=bottom;labelBackgroundColor=default;verticalAlign=top;aspect=fixed;imageAspect=0;image=data:image/svg+xml,PHN2ZyB4bWxuczp4bGluaz0iaHR0cDovL3d3dy53My5vcmcvMTk5OS94bGluayIgeG1sbnM9Imh0dHA6Ly93d3cudzMub3JnLzIwMDAvc3ZnIiB2aWV3Qm94PSIwIDAgMTQ0Ljc0NyAzOS44MzIiIGlkPSJhIj48ZGVmcz48bGluZWFyR3JhZGllbnQgZ3JhZGllbnRVbml0cz0idXNlclNwYWNlT25Vc2UiIHkyPSIzOS44MzIiIHgyPSI0MC4yNTgiIHkxPSIwIiB4MT0iNDAuMjU4IiBpZD0iYiI+PHN0b3Agc3RvcC1jb2xvcj0iIzAwYjhmMSIgb2Zmc2V0PSIwIi8+PHN0b3Agc3RvcC1jb2xvcj0iIzAwYjVlZiIgb2Zmc2V0PSIuMDE2Ii8+PHN0b3Agc3RvcC1jb2xvcj0iIzBkOTBkOCIgb2Zmc2V0PSIuMzA4Ii8+PHN0b3Agc3RvcC1jb2xvcj0iIzE2NzVjOCIgb2Zmc2V0PSIuNTc4Ii8+PHN0b3Agc3RvcC1jb2xvcj0iIzFjNjRiZSIgb2Zmc2V0PSIuODE3Ii8+PHN0b3Agc3RvcC1jb2xvcj0iIzFlNWZiYiIgb2Zmc2V0PSIxIi8+PC9saW5lYXJHcmFkaWVudD48L2RlZnM+PHBvbHlsaW5lIGZpbGwtcnVsZT0iZXZlbm9kZCIgZmlsbD0idXJsKCNiKSIgcG9pbnRzPSIwIDM5LjgzMiA0MC42OTIgMzkuODMyIDgwLjUxNyAwIDAgMCAwIDM5LjgzMiIvPjxwYXRoIGZpbGwtcnVsZT0iZXZlbm9kZCIgZmlsbD0iI2ZmZiIgZD0ibTQ3Ljc4Miw3LjQ4OWwtNy45MjUtLjAwNXYxOC44NDVsLTYuOTI0LTE4Ljg0NWgtNi44NjVsLTUuOTEyLDE1Ljc1OWMtLjYzLTMuOTczLTQuNzQtNS4zNDUtNy45NzQtNi4zNzQtMi4xMzUtLjY4Ni00LjQwMS0xLjY5NC00LjM4LTIuODA5LjAxNy0uOTE1LDEuMjE1LTEuNzY1LDMuNTg5LTEuNjM3LDEuNTk1LjA4NCwzLjAwMS4yMTMsNS44LDEuNTYzbDIuNzUzLTQuNzk1Yy0yLjU1NS0xLjMtNi4wODYtMi4xMjEtOC45NzgtMi4xMjRoLS4wMTdjLTMuMzc0LDAtNi4xODUsMS4wOTMtNy45MjgsMi44OTQtMS4yMTQsMS4yNTgtMS44NjksMi44NTYtMS44OTYsNC42MjMtLjA0NCwyLjQzMi44NDgsNC4xNTcsMi43MjEsNS41MzMsMS41ODMsMS4xNiwzLjYwNiwxLjkxMiw1LjM5LDIuNDY1LDIuMjAxLjY4MSwzLjk5NiwxLjI3NCwzLjk3NSwyLjUzOS0uMDE2LjQ1OS0uMTkxLjg4OC0uNTIxLDEuMjM2LS41NDguNTY2LTEuMzkxLjc3OS0yLjU1NS43OTktMi4yNDQuMDQ4LTMuOTEtLjMwMy02LjU2Mi0xLjg3bC0yLjQ0OCw0Ljg2MWMyLjY0NCwxLjUwNiw1Ljc3NiwyLjM4OCw4Ljk3MiwyLjM4OGwuNDExLS4wMDZjMi43ODItLjA1LDUuMDI2LS44NDIsNi44Mi0yLjI4Ni4xMDMtLjA4MS4xOTYtLjE2Ni4yOTEtLjI1bC0uNzk1LDIuMTIzaDcuMmwxLjIwOC0zLjY3NGMxLjI2NS40MzMsMi43MDQuNjcxLDQuMjMyLjY3MSwxLjQ4NywwLDIuODg5LS4yMjksNC4xMzEtLjYzNWwxLjE2NCwzLjYzN2gxMS43NDJ2LTcuNjA3aDIuNTYxYzYuMTg4LDAsOS44NTEtMy4xNTQsOS44NTEtOC40MzYsMC01Ljg4NS0zLjU1Ny04LjU4NS0xMS4xMzItOC41ODVabS0xOC4zMTcsMTYuMTI0Yy0uOTI1LDAtMS43OTItLjE2LTIuNTM5LS40NDNsMi41MTItNy45MjZoLjA0OGwyLjQ2OCw3Ljk0OGMtLjc0Mi4yNjMtMS41ODkuNDIxLTIuNDg4LjQyMVptMTguNzgzLTQuNTUzaC0xLjc0NnYtNi4zODZoMS43NDZjMi4zMjgsMCw0LjE4NS43NzMsNC4xODUsMy4xNTEsMCwyLjQ2MS0xLjg1NywzLjIzNi00LjE4NSwzLjIzNiIvPjxwYXRoIGZpbGw9IiMwMDJhODYiIGQ9Im04MC4yMTcsNy40MDFoMTAuMDYzYzUuNTk1LDAsOC42NzQsMS45MTcsOC42NzQsNi4xNTgsMCwyLjkwMy0xLjUxMyw1LjAxNC00LjMxMSw1LjcsMy4yOS40NTgsNS4yNzgsMi41ODYsNS4yNzgsNS44OTQsMCw1LjAxNC00LjA2NCw3LjAzNy05LjE4NCw3LjAzN2gtMTAuNTIxVjcuNDAxWm0xMy45NjksNi44MjZjMC0yLjE2NC0xLjQ5Ni0yLjk3My00LjI0LTIuOTczaC01LjA0OXY2LjI5OGg0Ljg5MWMzLjIwMiwwLDQuMzk4LTEuMTYxLDQuMzk4LTMuMzI1Wm0xLjAyMSwxMC41MjFjMC0yLjM1Ny0xLjc3Ny0zLjQ2Ni00LjgzOS0zLjQ2NmgtNS40NzF2Ny4wNTVoNS41MDZjMi44MTUsMCw0LjgwNC0uNzc0LDQuODA0LTMuNTg5WiIvPjxwYXRoIGZpbGw9IiMwMDJhODYiIGQ9Im0xMDkuMDUxLDExLjVoLTcuNTgzdi00LjA5OWgxOS44NDZ2NC4wOTloLTcuNTY1djIwLjY5aC00LjY5N1YxMS41WiIvPjxwYXRoIGZpbGw9IiMwMDJhODYiIGQ9Im0xMjUuMTQ4LDcuNDAxaDEwLjUwNGM2LjE5MiwwLDkuMDk2LDMuMTg1LDkuMDk2LDcuODk5LDAsNC4zOTgtMi44MzMsOC4xNDYtOC44NSw4LjE0NmgtNi4wN3Y4Ljc0NGgtNC42OFY3LjQwMVptMTQuOTAyLDcuOTUyYzAtMi41NTEtMS42ODktMy45MjMtNC45NDQtMy45MjNoLTUuMjc4djguMDRoNS40MTljMy4yNzIsMCw0LjgwNC0xLjU4Myw0LjgwNC00LjExN1oiLz48L3N2Zz4=;strokeWidth=1.5;" parent="1" vertex="1">
          <mxGeometry x="713.4900000000002" y="94.75" width="67.25" height="18.55" as="geometry" />
        </mxCell>
        <mxCell id="aZ0MxrTqLQG-AXpiNajb-25" value="&lt;font size=&quot;1&quot; face=&quot;arial&quot; style=&quot;&quot;&gt;&lt;span style=&quot;font-size: 12px;&quot;&gt;Multi-Cloud&lt;/span&gt;&lt;/font&gt;" style="text;html=1;align=left;verticalAlign=middle;resizable=0;points=[];autosize=1;strokeColor=none;fillColor=none;fontSize=14;fontColor=#1D2D3E;fontFamily=Helvetica;fontStyle=0" parent="1" vertex="1">
          <mxGeometry x="728.94" y="155.75" width="79" height="29" as="geometry" />
        </mxCell>
        <mxCell id="aZ0MxrTqLQG-AXpiNajb-26" value="&lt;font face=&quot;arial&quot; style=&quot;font-size: 16px;&quot;&gt;&lt;b style=&quot;font-size: 16px;&quot;&gt;Subaccount&lt;/b&gt;&lt;/font&gt;" style="text;html=1;align=left;verticalAlign=middle;resizable=0;points=[];autosize=1;strokeColor=none;fillColor=none;fontSize=12;fontColor=#1d2d3e;fontFamily=Helvetica;" parent="1" vertex="1">
          <mxGeometry x="728.94" y="138.75" width="120" height="30" as="geometry" />
        </mxCell>
        <mxCell id="aZ0MxrTqLQG-AXpiNajb-28" value="" style="endArrow=none;html=1;strokeColor=#188918;bendable=1;rounded=0;endFill=0;endSize=3;strokeWidth=1.5;entryX=0.5;entryY=0;entryDx=0;entryDy=0;dashed=1;exitX=0.5;exitY=1;exitDx=0;exitDy=0;" parent="1" source="aZ0MxrTqLQG-AXpiNajb-78" target="aZ0MxrTqLQG-AXpiNajb-82" edge="1">
          <mxGeometry width="50" height="50" relative="1" as="geometry">
            <mxPoint x="808.722901554404" y="728.5" as="sourcePoint" />
            <mxPoint x="809.44" y="768.5" as="targetPoint" />
            <Array as="points" />
          </mxGeometry>
        </mxCell>
        <mxCell id="aZ0MxrTqLQG-AXpiNajb-29" value="&lt;font color=&quot;#188918&quot; size=&quot;1&quot;&gt;&lt;b style=&quot;&quot;&gt;SAML2/OIDC&lt;/b&gt;&lt;/font&gt;" style="rounded=1;whiteSpace=wrap;html=1;arcSize=50;strokeColor=#188918;fillColor=#f5fae5;fontColor=#266f3a;strokeWidth=1.5;" parent="1" vertex="1">
          <mxGeometry x="860.44" y="746.5" width="72" height="16" as="geometry" />
        </mxCell>
        <mxCell id="aZ0MxrTqLQG-AXpiNajb-32" style="edgeStyle=orthogonalEdgeStyle;rounded=0;orthogonalLoop=1;jettySize=auto;html=1;fontSize=18;strokeColor=#188918;fontFamily=Helvetica;fontColor=default;targetPerimeterSpacing=15;endSize=4;startSize=4;endArrow=blockThin;endFill=1;strokeWidth=1.5;startArrow=none;startFill=0;exitX=0.495;exitY=1.035;exitDx=0;exitDy=0;entryX=0;entryY=0.5;entryDx=0;entryDy=0;exitPerimeter=0;" parent="1" source="aZ0MxrTqLQG-AXpiNajb-42" target="aZ0MxrTqLQG-AXpiNajb-78" edge="1">
          <mxGeometry relative="1" as="geometry">
            <mxPoint x="802.1399999999999" y="558.75" as="targetPoint" />
            <mxPoint x="704.4400000000005" y="558.75" as="sourcePoint" />
            <Array as="points">
              <mxPoint x="603.44" y="679" />
            </Array>
          </mxGeometry>
        </mxCell>
        <mxCell id="aZ0MxrTqLQG-AXpiNajb-33" value="&lt;font color=&quot;#188918&quot; size=&quot;1&quot;&gt;&lt;b style=&quot;&quot;&gt;SAML2/OIDC&lt;/b&gt;&lt;/font&gt;" style="rounded=1;whiteSpace=wrap;html=1;arcSize=50;strokeColor=#188918;fillColor=#f5fae5;fontColor=#266f3a;strokeWidth=1.5;" parent="1" vertex="1">
          <mxGeometry x="566.4400000000005" y="671" width="72" height="16" as="geometry" />
        </mxCell>
        <mxCell id="aZ0MxrTqLQG-AXpiNajb-34" value="&lt;font color=&quot;#475e75&quot; size=&quot;1&quot;&gt;&lt;b style=&quot;&quot;&gt;HTTPS&lt;/b&gt;&lt;/font&gt;" style="rounded=1;whiteSpace=wrap;html=1;arcSize=50;strokeColor=#475E75;fillColor=#F5F6F7;strokeWidth=1.5;" parent="1" vertex="1">
          <mxGeometry x="1403.44" y="221.75" width="48" height="16" as="geometry" />
        </mxCell>
        <mxCell id="aZ0MxrTqLQG-AXpiNajb-35" style="rounded=0;orthogonalLoop=1;jettySize=auto;html=1;fontSize=18;strokeColor=#188918;fontFamily=Helvetica;fontColor=default;targetPerimeterSpacing=15;endSize=4;startSize=4;endArrow=blockThin;endFill=1;strokeWidth=1.5;startArrow=none;startFill=0;exitX=1;exitY=0.5;exitDx=0;exitDy=0;entryX=0.5;entryY=1;entryDx=0;entryDy=0;edgeStyle=orthogonalEdgeStyle;" parent="1" source="aZ0MxrTqLQG-AXpiNajb-111" target="aZ0MxrTqLQG-AXpiNajb-63" edge="1">
          <mxGeometry relative="1" as="geometry">
            <mxPoint x="1720" y="674" as="targetPoint" />
            <mxPoint x="1360.4400000000005" y="605.75" as="sourcePoint" />
          </mxGeometry>
        </mxCell>
        <mxCell id="aZ0MxrTqLQG-AXpiNajb-36" style="edgeStyle=orthogonalEdgeStyle;rounded=0;orthogonalLoop=1;jettySize=auto;html=1;fontSize=18;strokeColor=#188918;fontFamily=Helvetica;fontColor=default;targetPerimeterSpacing=15;endSize=4;startSize=4;endArrow=none;endFill=0;strokeWidth=1.5;startArrow=none;startFill=0;exitX=1;exitY=0.5;exitDx=0;exitDy=0;entryX=0;entryY=0.5;entryDx=0;entryDy=0;" parent="1" source="aZ0MxrTqLQG-AXpiNajb-78" target="aZ0MxrTqLQG-AXpiNajb-111" edge="1">
          <mxGeometry relative="1" as="geometry">
            <mxPoint x="1288.4400000000005" y="558.75" as="targetPoint" />
            <mxPoint x="1417.94" y="772.75" as="sourcePoint" />
            <Array as="points" />
          </mxGeometry>
        </mxCell>
        <mxCell id="aZ0MxrTqLQG-AXpiNajb-40" value="" style="group" parent="1" vertex="1" connectable="0">
          <mxGeometry x="550.44" y="465.75" width="105" height="112.21000000000004" as="geometry" />
        </mxCell>
        <mxCell id="aZ0MxrTqLQG-AXpiNajb-41" value="" style="shape=image;verticalLabelPosition=bottom;verticalAlign=top;imageAspect=0;aspect=fixed;image=data:image/svg+xml,PHN2ZyB4bWxucz0iaHR0cDovL3d3dy53My5vcmcvMjAwMC9zdmciIGZpbGw9Im5vbmUiIHZpZXdCb3g9IjAgMCAxNyAxNyIgaGVpZ2h0PSIxNyIgd2lkdGg9IjE3Ij4mI3hhOzxnIGNsaXAtcGF0aD0idXJsKCNjbGlwMF8yXzI4NzkzKSI+JiN4YTs8cGF0aCBmaWxsPSJ1cmwoI3BhaW50MF9saW5lYXJfMl8yODc5MykiIGQ9Ik04Ljg4ODg3IDExLjI5MTRDOC44ODg4NyAxMS43MzE0IDguNTI4ODcgMTIuMDkxNCA4LjA4ODg3IDEyLjA5MTRINy4yODg4N1YxMy42MzU0SDguMDg4ODdDOC41Mjg4NyAxMy42MzU0IDguODg4ODcgMTMuOTk1NCA4Ljg4ODg3IDE0LjQzNTRDOC44ODg4NyAxNC44NzU0IDguNTI4ODcgMTUuMjM1NCA4LjA4ODg3IDE1LjIzNTRINC4wODg4N0MzLjY0ODg3IDE1LjIzNTQgMy4yODg4NyAxNC44NzU0IDMuMjg4ODcgMTQuNDM1NEMzLjI4ODg3IDEzLjk5NTQgMy42NDg4NyAxMy42MzU0IDQuMDg4ODcgMTMuNjM1NEg1LjY4ODg3VjEyLjA5MTRIMi40ODg4N0MxLjE2ODg3IDEyLjA5MTQgMC4wODg4NjcyIDExLjA3NTQgMC4wODg4NjcyIDkuODI3NFYzLjk1NTRDMC4wODg4NjcyIDIuNzA3NCAxLjE2ODg3IDEuNjgzNCAyLjQ4ODg3IDEuNjk5NEgxMS4yODg5QzEyLjYwODkgMS42OTk0IDEzLjY4ODkgMi43MTU0IDEzLjY4ODkgMy45NjM0QzEzLjY4ODkgNC40MDM0IDEzLjMyODkgNC43Nzk0IDEyLjg4ODkgNC43Nzk0QzEyLjQ0ODkgNC43Nzk0IDEyLjA4ODkgNC40MzU0IDEyLjA4ODkgMy45OTU0QzEyLjA4ODkgMy41ODc0IDExLjcyODkgMy4yOTE0IDExLjI4ODkgMy4yOTE0SDIuNDg4ODdDMi4wNDg4NyAzLjI5MTQgMS42ODg4NyAzLjU4NzQgMS42ODg4NyAzLjk1NTRWOS44Mjc0QzEuNjg4ODcgMTAuMTk1NCAyLjA0ODg3IDEwLjQ5MTQgMi40ODg4NyAxMC40OTE0SDguMDg4ODdDOC41Mjg4NyAxMC40OTE0IDguODg4ODcgMTAuODUxNCA4Ljg4ODg3IDExLjI5MTRaTTkuNjg4ODcgNy40MDMzOUM5LjY4ODg3IDYuMjk5MzkgMTAuNTg0OSA1LjQwMzM5IDExLjY4ODkgNS40MDMzOUgxNC4wODg5QzE1LjE5MjkgNS40MDMzOSAxNi4wODg5IDYuMjk5MzkgMTYuMDg4OSA3LjQwMzM5VjEzLjIzNTRDMTYuMDg4OSAxNC4zMzk0IDE1LjE5MjkgMTUuMjM1NCAxNC4wODg5IDE1LjIzNTRIMTEuNjg4OUMxMC41ODQ5IDE1LjIzNTQgOS42ODg4NyAxNC4zMzk0IDkuNjg4ODcgMTMuMjM1NFY3LjQwMzM5Wk0xNC4wODg5IDEzLjYzNTRDMTQuMzEyOSAxMy42MzU0IDE0LjQ4ODkgMTMuNDU5NCAxNC40ODg5IDEzLjIzNTRWNy40MDMzOUMxNC40ODg5IDcuMTc5MzkgMTQuMzEyOSA3LjAwMzM5IDE0LjA4ODkgNy4wMDMzOUgxMS42ODg5QzExLjQ2NDkgNy4wMDMzOSAxMS4yODg5IDcuMTc5MzkgMTEuMjg4OSA3LjQwMzM5VjEzLjIzNTRDMTEuMjg4OSAxMy40NTk0IDExLjQ2NDkgMTMuNjM1NCAxMS42ODg5IDEzLjYzNTRIMTQuMDg4OVoiIGNsaXAtcnVsZT0iZXZlbm9kZCIgZmlsbC1ydWxlPSJldmVub2RkIi8+JiN4YTs8L2c+JiN4YTs8ZGVmcz4mI3hhOzxsaW5lYXJHcmFkaWVudCBncmFkaWVudFVuaXRzPSJ1c2VyU3BhY2VPblVzZSIgeTI9IjE1LjIzNTQiIHgyPSI4LjA4ODg3IiB5MT0iMS42OTkyMiIgeDE9IjguMDg4ODciIGlkPSJwYWludDBfbGluZWFyXzJfMjg3OTMiPiYjeGE7PHN0b3Agc3RvcC1jb2xvcj0iIzVCNzM4QiIvPiYjeGE7PHN0b3Agc3RvcC1jb2xvcj0iIzIyMzU0OCIgb2Zmc2V0PSIxIi8+JiN4YTs8L2xpbmVhckdyYWRpZW50PiYjeGE7PGNsaXBQYXRoIGlkPSJjbGlwMF8yXzI4NzkzIj4mI3hhOzxyZWN0IHRyYW5zZm9ybT0idHJhbnNsYXRlKDAuMDg4ODY3MiAwLjQ1ODk4NCkiIGZpbGw9IndoaXRlIiBoZWlnaHQ9IjE2IiB3aWR0aD0iMTYiLz4mI3hhOzwvY2xpcFBhdGg+JiN4YTs8L2RlZnM+JiN4YTs8L3N2Zz4=;strokeWidth=1.5;points=[[0,0.25,0,0,0],[0,0.5,0,0,0],[0,0.75,0,0,0],[0.25,0,0,0,0],[0.25,1,0,0,0],[0.5,0,0,0,0],[0.5,1,0,0,0],[0.75,0,0,0,0],[0.75,1,0,0,0],[1,0.25,0,0,0],[1,0.5,0,0,0],[1,0.75,0,0,0]];" parent="aZ0MxrTqLQG-AXpiNajb-40" vertex="1">
          <mxGeometry x="38.5" y="19" width="28" height="28" as="geometry" />
        </mxCell>
        <mxCell id="aZ0MxrTqLQG-AXpiNajb-42" value="&lt;font color=&quot;#1d2d3e&quot; face=&quot;arial&quot; style=&quot;font-size: 14px;&quot;&gt;&lt;span style=&quot;&quot;&gt;&lt;b&gt;Application &lt;br&gt;Clients&lt;/b&gt;&lt;/span&gt;&lt;/font&gt;" style="text;html=1;align=center;verticalAlign=middle;resizable=0;points=[];autosize=1;strokeColor=none;fillColor=none;fontSize=12;fontColor=default;fontFamily=Helvetica;strokeWidth=1.5;" parent="aZ0MxrTqLQG-AXpiNajb-40" vertex="1">
          <mxGeometry x="3" y="42.50999999999999" width="100" height="50" as="geometry" />
        </mxCell>
        <mxCell id="aZ0MxrTqLQG-AXpiNajb-55" style="rounded=0;orthogonalLoop=1;jettySize=auto;html=1;fontSize=18;strokeColor=#188918;fontFamily=Helvetica;fontColor=default;targetPerimeterSpacing=15;endSize=4;startSize=4;endArrow=blockThin;endFill=1;strokeWidth=1.5;startArrow=blockThin;startFill=1;exitX=0.5;exitY=0;exitDx=0;exitDy=0;entryX=0.227;entryY=1.001;entryDx=0;entryDy=0;entryPerimeter=0;" parent="1" source="aZ0MxrTqLQG-AXpiNajb-78" target="aZ0MxrTqLQG-AXpiNajb-16" edge="1">
          <mxGeometry relative="1" as="geometry">
            <mxPoint x="838.44" y="569" as="targetPoint" />
            <mxPoint x="835.6320000000001" y="559.8420000000001" as="sourcePoint" />
          </mxGeometry>
        </mxCell>
        <mxCell id="aZ0MxrTqLQG-AXpiNajb-61" value="" style="endArrow=blockThin;html=1;strokeColor=#475E75;bendable=1;rounded=0;endFill=1;endSize=4;strokeWidth=1.5;startSize=4;startArrow=none;startFill=0;exitX=0.385;exitY=1.208;exitDx=0;exitDy=0;exitPerimeter=0;entryX=0;entryY=0.5;entryDx=0;entryDy=0;edgeStyle=elbowEdgeStyle;elbow=vertical;" parent="1" source="GyjTEhcaRAmpPdTnbKXX-292" target="aZ0MxrTqLQG-AXpiNajb-63" edge="1">
          <mxGeometry width="50" height="50" relative="1" as="geometry">
            <mxPoint x="1477.44" y="402.47800000000007" as="sourcePoint" />
            <mxPoint x="1556.44" y="402.75" as="targetPoint" />
            <Array as="points">
              <mxPoint x="1455" y="468" />
            </Array>
          </mxGeometry>
        </mxCell>
        <mxCell id="aZ0MxrTqLQG-AXpiNajb-72" value="" style="endArrow=blockThin;html=1;strokeColor=#475E75;bendable=1;rounded=0;endFill=1;endSize=4;strokeWidth=1.5;startSize=4;startArrow=none;startFill=0;exitX=1;exitY=0.5;exitDx=0;exitDy=0;entryX=-0.047;entryY=0.746;entryDx=0;entryDy=0;entryPerimeter=0;" parent="1" source="aZ0MxrTqLQG-AXpiNajb-34" target="aZ0MxrTqLQG-AXpiNajb-20" edge="1">
          <mxGeometry width="50" height="50" relative="1" as="geometry">
            <mxPoint x="1464.44" y="319.59000000000015" as="sourcePoint" />
            <mxPoint x="1556.44" y="301.75" as="targetPoint" />
          </mxGeometry>
        </mxCell>
        <mxCell id="aZ0MxrTqLQG-AXpiNajb-73" value="" style="endArrow=none;html=1;strokeColor=#475E75;bendable=1;rounded=0;endFill=0;endSize=4;strokeWidth=1.5;startSize=4;startArrow=none;startFill=0;entryX=0;entryY=0.5;entryDx=0;entryDy=0;exitX=0.5;exitY=0;exitDx=0;exitDy=0;exitPerimeter=0;edgeStyle=orthogonalEdgeStyle;" parent="1" source="GyjTEhcaRAmpPdTnbKXX-298" target="aZ0MxrTqLQG-AXpiNajb-34" edge="1">
          <mxGeometry width="50" height="50" relative="1" as="geometry">
            <mxPoint x="1336.294" y="296.8620000000001" as="sourcePoint" />
            <mxPoint x="1477.44" y="340.53999999999996" as="targetPoint" />
            <Array as="points">
              <mxPoint x="1336" y="230" />
            </Array>
          </mxGeometry>
        </mxCell>
        <mxCell id="aZ0MxrTqLQG-AXpiNajb-74" value="" style="endArrow=blockThin;html=1;strokeColor=#475E75;bendable=1;rounded=0;endFill=1;endSize=4;strokeWidth=1.5;startSize=4;startArrow=none;startFill=0;exitX=0.483;exitY=0.035;exitDx=0;exitDy=0;exitPerimeter=0;" parent="1" edge="1">
          <mxGeometry width="50" height="50" relative="1" as="geometry">
            <mxPoint x="1335.8241" y="385.8700000000001" as="sourcePoint" />
            <mxPoint x="1335.8241" y="357.2512" as="targetPoint" />
          </mxGeometry>
        </mxCell>
        <mxCell id="aZ0MxrTqLQG-AXpiNajb-76" value="&lt;font color=&quot;#1d2d3e&quot; face=&quot;arial&quot; style=&quot;font-size: 12px;&quot;&gt;&lt;b&gt;Application&amp;nbsp;&lt;/b&gt;&lt;/font&gt;&lt;div&gt;&lt;font color=&quot;#1d2d3e&quot; face=&quot;arial&quot; style=&quot;font-size: 12px;&quot;&gt;&lt;b&gt;Adminstrator&lt;/b&gt;&lt;/font&gt;&lt;/div&gt;" style="text;html=1;align=center;verticalAlign=middle;resizable=0;points=[];autosize=1;strokeColor=none;fillColor=none;fontSize=12;fontColor=default;fontFamily=Helvetica;strokeWidth=1.5;" parent="1" vertex="1">
          <mxGeometry x="392.44" y="511" width="100" height="40" as="geometry" />
        </mxCell>
        <mxCell id="aZ0MxrTqLQG-AXpiNajb-77" value="" style="shape=image;verticalLabelPosition=bottom;verticalAlign=top;imageAspect=0;aspect=fixed;image=data:image/svg+xml,PHN2ZyB4bWxucz0iaHR0cDovL3d3dy53My5vcmcvMjAwMC9zdmciIGZpbGw9Im5vbmUiIHZpZXdCb3g9IjAgMCAxNyAxNyIgaGVpZ2h0PSIxNyIgd2lkdGg9IjE3Ij4mI3hhOzxwYXRoIGZpbGw9InVybCgjcGFpbnQwX2xpbmVhcl8yXzI4Nzk4KSIgZD0iTTAuMjEzODY3IDguNTUyNzNDMC4yMTM4NjcgNy40Njk0IDAuNDIyMjAxIDYuNDU4OTggMC44Mzg4NjcgNS41MjE0OEMxLjI1NTUzIDQuNTYzMTUgMS44MTgwMyAzLjcyOTgyIDIuNTI2MzcgMy4wMjE0OEMzLjIzNDcgMi4zMTMxNSA0LjA2ODAzIDEuNzUwNjUgNS4wMjYzNyAxLjMzMzk4QzUuOTg0NyAwLjkxNzMxOCA3LjAwNTUzIDAuNzA4OTg0IDguMDg4ODcgMC43MDg5ODRDOS4xNzIyIDAuNzA4OTg0IDEwLjE4MjYgMC45MTczMTggMTEuMTIwMSAxLjMzMzk4QzEyLjA3ODUgMS43NTA2NSAxMi45MTE4IDIuMzEzMTUgMTMuNjIwMSAzLjAyMTQ4QzE0LjMyODUgMy43Mjk4MiAxNC44OTEgNC41NjMxNSAxNS4zMDc2IDUuNTIxNDhDMTUuNzI0MyA2LjQ1ODk4IDE1LjkzMjYgNy40Njk0IDE1LjkzMjYgOC41NTI3M0MxNS45MzI2IDkuNjM2MDcgMTUuNzI0MyAxMC42NTY5IDE1LjMwNzYgMTEuNjE1MkMxNC44OTEgMTIuNTczNiAxNC4zMjg1IDEzLjQwNjkgMTMuNjIwMSAxNC4xMTUyQzEyLjkxMTggMTQuODIzNiAxMi4wNzg1IDE1LjM4NjEgMTEuMTIwMSAxNS44MDI3QzEwLjE4MjYgMTYuMjE5NCA5LjE3MjIgMTYuNDI3NyA4LjA4ODg3IDE2LjQyNzdDNy4wMDU1MyAxNi40Mjc3IDUuOTg0NyAxNi4yMTk0IDUuMDI2MzcgMTUuODAyN0M0LjA2ODAzIDE1LjM4NjEgMy4yMzQ3IDE0LjgyMzYgMi41MjYzNyAxNC4xMTUyQzEuODE4MDMgMTMuNDA2OSAxLjI1NTUzIDEyLjU3MzYgMC44Mzg4NjcgMTEuNjE1MkMwLjQyMjIwMSAxMC42NTY5IDAuMjEzODY3IDkuNjM2MDcgMC4yMTM4NjcgOC41NTI3M1pNOS42NTEzNyAxMC45Mjc3QzEwLjMxOCAxMC45Mjc3IDEwLjkzMjYgMTEuMDg0IDExLjQ5NTEgMTEuMzk2NUMxMi4wNTc2IDExLjY4ODIgMTIuNTE2IDEyLjA5NDQgMTIuODcwMSAxMi42MTUyQzEzLjM0OTMgMTIuMDczNiAxMy43MTM5IDExLjQ1OSAxMy45NjM5IDEwLjc3MTVDMTQuMjM0NyAxMC4wODQgMTQuMzcwMSA5LjM0NDQgMTQuMzcwMSA4LjU1MjczQzE0LjM3MDEgNy42Nzc3MyAxNC4yMDM1IDYuODY1MjMgMTMuODcwMSA2LjExNTIzQzEzLjUzNjggNS4zNDQ0IDEzLjA4ODkgNC42Nzc3MyAxMi41MjY0IDQuMTE1MjNDMTEuOTYzOSAzLjU1MjczIDExLjI5NzIgMy4xMDQ4MiAxMC41MjY0IDIuNzcxNDhDOS43NzYzNyAyLjQzODE1IDguOTYzODcgMi4yNzE0OCA4LjA4ODg3IDIuMjcxNDhDNy4yMTM4NyAyLjI3MTQ4IDYuMzkwOTUgMi40MzgxNSA1LjYyMDEyIDIuNzcxNDhDNC44NzAxMiAzLjEwNDgyIDQuMjAzNDUgMy41NTI3MyAzLjYyMDEyIDQuMTE1MjNDMy4wNTc2MiA0LjY3NzczIDIuNjA5NyA1LjM0NDQgMi4yNzYzNyA2LjExNTIzQzEuOTQzMDMgNi44NjUyMyAxLjc3NjM3IDcuNjc3NzMgMS43NzYzNyA4LjU1MjczQzEuNzc2MzcgOS4zNDQ0IDEuOTAxMzcgMTAuMDg0IDIuMTUxMzcgMTAuNzcxNUMyLjQyMjIgMTEuNDU5IDIuNzk3MiAxMi4wNzM2IDMuMjc2MzcgMTIuNjE1MkMzLjYzMDUzIDEyLjA5NDQgNC4wODg4NyAxMS42ODgyIDQuNjUxMzcgMTEuMzk2NUM1LjIxMzg3IDExLjA4NCA1LjgyODQ1IDEwLjkyNzcgNi40OTUxMiAxMC45Mjc3SDkuNjUxMzdaTTExLjIxMzkgNi45OTAyM0MxMS4yMTM5IDcuNDI3NzMgMTEuMTMwNSA3Ljg0NDQgMTAuOTYzOSA4LjI0MDIzQzEwLjc5NzIgOC42MTUyMyAxMC41NjggOC45NDg1NyAxMC4yNzY0IDkuMjQwMjNDMTAuMDA1NSA5LjUxMTA3IDkuNjgyNjIgOS43Mjk4MiA5LjMwNzYyIDkuODk2NDhDOC45MzI2MiAxMC4wNjMyIDguNTI2MzcgMTAuMTQ2NSA4LjA4ODg3IDEwLjE0NjVDNy42NTEzNyAxMC4xNDY1IDcuMjM0NyAxMC4wNjMyIDYuODM4ODcgOS44OTY0OEM2LjQ2Mzg3IDkuNzI5ODIgNi4xMzA1MyA5LjUxMTA3IDUuODM4ODcgOS4yNDAyM0M1LjU2ODAzIDguOTQ4NTcgNS4zNDkyOCA4LjYxNTIzIDUuMTgyNjIgOC4yNDAyM0M1LjAxNTk1IDcuODQ0NCA0LjkzMjYyIDcuNDI3NzMgNC45MzI2MiA2Ljk5MDIzQzQuOTMyNjIgNi41NTI3MyA1LjAxNTk1IDYuMTQ2NDggNS4xODI2MiA1Ljc3MTQ4QzUuMzQ5MjggNS4zOTY0OCA1LjU2ODAzIDUuMDYzMTUgNS44Mzg4NyA0Ljc3MTQ4QzYuMTMwNTMgNC40Nzk4MiA2LjQ2Mzg3IDQuMjUwNjUgNi44Mzg4NyA0LjA4Mzk4QzcuMjM0NyAzLjkxNzMyIDcuNjUxMzcgMy44MzM5OCA4LjA4ODg3IDMuODMzOThDOC41MjYzNyAzLjgzMzk4IDguOTMyNjIgMy45MTczMiA5LjMwNzYyIDQuMDgzOThDOS42ODI2MiA0LjI1MDY1IDEwLjAwNTUgNC40Nzk4MiAxMC4yNzY0IDQuNzcxNDhDMTAuNTY4IDUuMDYzMTUgMTAuNzk3MiA1LjM5NjQ4IDEwLjk2MzkgNS43NzE0OEMxMS4xMzA1IDYuMTQ2NDggMTEuMjEzOSA2LjU1MjczIDExLjIxMzkgNi45OTAyM1pNOS42NTEzNyA2Ljk5MDIzQzkuNjUxMzcgNi41NTI3MyA5LjQ5NTEyIDYuMTg4MTUgOS4xODI2MiA1Ljg5NjQ4QzguODcwMTIgNS41ODM5OCA4LjUwNTUzIDUuNDI3NzMgOC4wODg4NyA1LjQyNzczQzcuNjUxMzcgNS40Mjc3MyA3LjI3NjM3IDUuNTgzOTggNi45NjM4NyA1Ljg5NjQ4QzYuNjUxMzcgNi4xODgxNSA2LjQ5NTEyIDYuNTUyNzMgNi40OTUxMiA2Ljk5MDIzQzYuNDk1MTIgNy40Mjc3MyA2LjY1MTM3IDcuODAyNzMgNi45NjM4NyA4LjExNTIzQzcuMjc2MzcgOC40MDY5IDcuNjUxMzcgOC41NTI3MyA4LjA4ODg3IDguNTUyNzNDOC41MDU1MyA4LjU1MjczIDguODcwMTIgOC40MDY5IDkuMTgyNjIgOC4xMTUyM0M5LjQ5NTEyIDcuODAyNzMgOS42NTEzNyA3LjQyNzczIDkuNjUxMzcgNi45OTAyM1pNNC40NjM4NyAxMy43MDlDNC45NjM4NyAxNC4wNjMyIDUuNTE1OTUgMTQuMzQ0NCA2LjEyMDEyIDE0LjU1MjdDNi43NDUxMiAxNC43NjExIDcuNDAxMzcgMTQuODY1MiA4LjA4ODg3IDE0Ljg2NTJDOC43NTU1MyAxNC44NjUyIDkuMzkwOTUgMTQuNzYxMSA5Ljk5NTEyIDE0LjU1MjdDMTAuNjIwMSAxNC4zNDQ0IDExLjE4MjYgMTQuMDYzMiAxMS42ODI2IDEzLjcwOUMxMS40NzQzIDEzLjMzNCAxMS4xODI2IDEzLjA0MjMgMTAuODA3NiAxMi44MzRDMTAuNDUzNSAxMi42MDQ4IDEwLjA2OCAxMi40OTAyIDkuNjUxMzcgMTIuNDkwMkg2LjQ5NTEyQzYuMDc4NDUgMTIuNDkwMiA1LjY4MjYyIDEyLjYwNDggNS4zMDc2MiAxMi44MzRDNC45NTM0NSAxMy4wNDIzIDQuNjcyMiAxMy4zMzQgNC40NjM4NyAxMy43MDlaIi8+JiN4YTs8ZGVmcz4mI3hhOzxsaW5lYXJHcmFkaWVudCBncmFkaWVudFVuaXRzPSJ1c2VyU3BhY2VPblVzZSIgeTI9IjE2LjQyNzciIHgyPSI4LjA3MzI0IiB5MT0iMC43MDg5ODQiIHgxPSI4LjA3MzI0IiBpZD0icGFpbnQwX2xpbmVhcl8yXzI4Nzk4Ij4mI3hhOzxzdG9wIHN0b3AtY29sb3I9IiM1QjczOEIiLz4mI3hhOzxzdG9wIHN0b3AtY29sb3I9IiMyMjM1NDgiIG9mZnNldD0iMSIvPiYjeGE7PC9saW5lYXJHcmFkaWVudD4mI3hhOzwvZGVmcz4mI3hhOzwvc3ZnPg==;strokeWidth=1.5;" parent="1" vertex="1">
          <mxGeometry x="429.44" y="482.0000000000001" width="28" height="28" as="geometry" />
        </mxCell>
        <mxCell id="aZ0MxrTqLQG-AXpiNajb-78" value="" style="rounded=1;whiteSpace=wrap;html=1;strokeColor=#0070F2;strokeWidth=1.5;arcSize=16;fillColor=#FFFFFF;perimeterSpacing=0;absoluteArcSize=1;" parent="1" vertex="1">
          <mxGeometry x="715.44" y="629.75" width="362" height="98.75" as="geometry" />
        </mxCell>
        <mxCell id="aZ0MxrTqLQG-AXpiNajb-79" value="&lt;font face=&quot;arial&quot; style=&quot;font-size: 16px;&quot;&gt;&lt;b style=&quot;font-size: 16px;&quot;&gt;SAP Cloud &lt;br&gt;Identity &lt;br&gt;Services&lt;/b&gt;&lt;/font&gt;" style="text;html=1;align=left;verticalAlign=middle;resizable=0;points=[];autosize=1;strokeColor=none;fillColor=none;fontSize=12;fontColor=#1d2d3e;fontFamily=Helvetica;" parent="1" vertex="1">
          <mxGeometry x="725.94" y="632.5" width="100" height="70" as="geometry" />
        </mxCell>
        <mxCell id="aZ0MxrTqLQG-AXpiNajb-80" value="&lt;font color=&quot;#188918&quot; size=&quot;1&quot;&gt;&lt;b style=&quot;&quot;&gt;OIDC&lt;/b&gt;&lt;/font&gt;" style="rounded=1;whiteSpace=wrap;html=1;arcSize=50;strokeColor=#188918;fillColor=#f5fae5;fontColor=#266f3a;strokeWidth=1.5;" parent="1" vertex="1">
          <mxGeometry x="879" y="590.75" width="35.56" height="15.79" as="geometry" />
        </mxCell>
        <mxCell id="aZ0MxrTqLQG-AXpiNajb-82" value="" style="shape=image;verticalLabelPosition=bottom;labelBackgroundColor=default;verticalAlign=top;aspect=fixed;imageAspect=0;image=data:image/svg+xml,PHN2ZyB4bWxucz0iaHR0cDovL3d3dy53My5vcmcvMjAwMC9zdmciIGZpbGw9Im5vbmUiIHZpZXdCb3g9IjAgMCAxNyAxNyIgaGVpZ2h0PSIxNyIgd2lkdGg9IjE3Ij4mI3hhOzxwYXRoIGZpbGw9InVybCgjcGFpbnQwX2xpbmVhcl83NzVfOCkiIGQ9Ik0xMy42NzU2IDguNjM3NDhDMTQuNjQ2OSA5LjE3MTcxIDE1LjQ2NDcgOS45NDY0NiAxNi4wNTA2IDEwLjg4NzVDMTYuNjU0NiAxMS44NDU1IDE2Ljk1NjYgMTIuOTI4NSAxNi45NTY2IDE0LjEzNzVWMTUuOTE4NUMxNi45NTY2IDE2LjUwMTUgMTYuNjU0NiAxNi43OTM1IDE2LjA1MDYgMTYuNzkzNUg1LjQyNTY0QzUuMTU0NjQgMTYuNzkzNSA0LjkzNTY0IDE2LjcxMDUgNC43Njg2NCAxNi41NDM1QzQuNjAyNjQgMTYuMzk3NSA0LjUxODY0IDE2LjE4OTUgNC41MTg2NCAxNS45MTg1VjE1LjAxMjVIMS44NjI2NEMxLjI3OTY0IDE1LjAxMjUgMC45ODc2NCAxNC43MjA1IDAuOTg3NjQgMTQuMTM3NVYxMi4zNTY1QzAuOTg3NjQgMTEuNDgwNSAxLjIyNzY0IDEwLjY4OTUgMS43MDY2NCA5Ljk4MDQ4QzIuMTY0MzUgOS4yOTEwOSAyLjgwMjA3IDguNzQwMTcgMy41NTA2NCA4LjM4NzQ4QzMuMjg2MjIgOC4wODYyMyAzLjA4NDMxIDcuNzM1NDMgMi45NTY2NCA3LjM1NTQ4QzIuODMzNCA2Ljk3MTgxIDIuNzY5OTkgNi41NzE0NSAyLjc2ODY0IDYuMTY4NDhDMi43Njg2NCA1LjY2ODQ4IDIuODYyNjQgNS4yMTA0OCAzLjA1MDY0IDQuNzkzNDhDMy4yMzc2NCA0LjM1NTQ4IDMuNDg3NjQgMy45ODA0OCAzLjgwMDY0IDMuNjY4NDhDNC4xMjQ3OCAzLjM0MTYxIDQuNTA2MDggMy4wNzY5IDQuOTI1NjQgMi44ODc0OEM1LjM1OTkyIDIuNzAwNzMgNS44Mjc5MSAyLjYwNTA5IDYuMzAwNjQgMi42MDY0OEM2LjQ0NjY0IDIuNjA2NDggNi41ODE2NCAyLjYxNjQ4IDYuNzA2NjQgMi42MzY0OEM2LjgzMTY0IDIuNjM2NDggNi45NjY2NCAyLjY1ODQ4IDcuMTEyNjQgMi42OTk0OEM3LjUwMjE5IDIuMTIxOSA4LjAyODQ3IDEuNjQ5NTYgOC42NDQ2NCAxLjMyNDQ4QzkuMjkxNTggMC45OTA5MiAxMC4wMDk4IDAuODE5MzQzIDEwLjczNzYgMC44MjQ0NzZDMTEuMzYyNiAwLjgyNDQ3NiAxMS45NDY2IDAuOTM5NDc2IDEyLjQ4NzYgMS4xNjg0OEMxMy4wMjk2IDEuMzk4NDggMTMuNDk3NiAxLjcyMDQ4IDEzLjg5MzYgMi4xMzc0OEMxNC4yODk2IDIuNTMzNDggMTQuNjAyNiAzLjAwMTQ4IDE0LjgzMTYgMy41NDM0OEMxNS4wNjE2IDQuMDYzNDggMTUuMTc1NiA0LjYzNzQ4IDE1LjE3NTYgNS4yNjI0OEMxNS4xNzc3IDUuOTE5NDggMTUuMDM5MiA2LjU2OTMzIDE0Ljc2OTYgNy4xNjg0OEMxNC41MjkgNy43MzkzMiAxNC4xNTM2IDguMjQzMzYgMTMuNjc1NiA4LjYzNzQ4Wk0xMC43MzY2IDIuNjA1NDhDOS45ODY2NCAyLjYwNTQ4IDkuMzUxNjQgMi44NjU0OCA4LjgzMDY0IDMuMzg3NDhDOC4zMzA2NCAzLjg4NzQ4IDguMDgwNjQgNC41MTI0OCA4LjA4MDY0IDUuMjYyNDhDOC4wODA2NCA2LjAxMjQ4IDguMzMwNjQgNi42NDc0OCA4LjgzMDY0IDcuMTY4NDhDOS4zNTA2NCA3LjY2ODQ4IDkuOTg2NjQgNy45MTg0OCAxMC43MzY2IDcuOTE4NDhDMTEuNDg2NiA3LjkxODQ4IDEyLjExMTYgNy42Njg0OCAxMi42MTE2IDcuMTY4NDhDMTMuMTMyNiA2LjY0ODQ4IDEzLjM5MjYgNi4wMTI0OCAxMy4zOTI2IDUuMjYyNDhDMTMuMzkyNiA0LjUxMjQ4IDEzLjEzMjYgMy44ODc0OCAxMi42MTI2IDMuMzg3NDhDMTIuMTEyNiAyLjg2NjQ4IDExLjQ4NjYgMi42MDU0OCAxMC43MzY2IDIuNjA1NDhaTTYuMjA2NjQgNC4zODg0OEM1LjcyNjY0IDQuMzg4NDggNS4zMTA2NCA0LjU2NTQ4IDQuOTU2NjQgNC45MTk0OEM0LjYyMzY0IDUuMjUyNDggNC40NTY2NCA1LjY2OTQ4IDQuNDU2NjQgNi4xNjk0OEM0LjQ1NjY0IDYuNjQ5NDggNC42MjM2NCA3LjA2NTQ4IDQuOTU2NjQgNy40MTk0OEM1LjMxMDY0IDcuNzUyNDggNS43MjY2NCA3LjkxOTQ4IDYuMjA2NjQgNy45MTk0OEg3LjIwNjY0QzYuOTI3MDggNy41NDg5OCA2LjcwNTg1IDcuMTM3ODkgNi41NTA2NCA2LjcwMDQ4QzYuMzg3MDYgNi4yMzg5NSA2LjMwMjU0IDUuNzUzMTMgNi4zMDA2NCA1LjI2MzQ4VjQuODIzNDhDNi4zMTczMiA0LjY3NTEzIDYuMzQ4NDcgNC41Mjg3NiA2LjM5MzY0IDQuMzg2NDhINi4yMDY2NFY0LjM4ODQ4Wk0yLjc2ODY0IDEzLjI2MzVINC42MTI2NEM0LjgwMDY0IDExLjgyNTUgNS4zOTM2NCAxMC42Mzg1IDYuMzkzNjQgOS43MDA0N0g1LjQyNjY0QzQuNjc2NjQgOS43MDA0NyA0LjA0MDY0IDkuOTYwNDcgMy41MTk2NCAxMC40ODE1QzMuMDE5NjQgMTAuOTgxNSAyLjc2OTY0IDExLjYwNzUgMi43Njk2NCAxMi4zNTc1TDIuNzY4NjQgMTMuMjYzNVpNMTUuMTc1NiAxNC4xMzg1QzE1LjE4MjYgMTMuNTQ3NyAxNS4wNjU0IDEyLjk2MjEgMTQuODMxNiAxMi40MTk1QzE0LjYxMzMgMTEuODk0MyAxNC4yOTQ3IDExLjQxNjcgMTMuODkzNiAxMS4wMTM1QzEzLjQ5NzQgMTAuNTk2MyAxMy4wMTg1IDEwLjI2NjMgMTIuNDg3NiAxMC4wNDQ1QzExLjkzMzUgOS44MTI3MyAxMS4zMzgyIDkuNjk1NzEgMTAuNzM3NiA5LjcwMDQ3QzEwLjExMjYgOS43MDA0NyA5LjUyOTY0IDkuODE1NDggOC45ODc2NCAxMC4wNDQ1QzguNDY3NjQgMTAuMjc0NSA3Ljk5NzY0IDEwLjU5NjUgNy41ODE2NCAxMS4wMTM1QzcuMTgwNTggMTEuNDE2NyA2Ljg2MTk3IDExLjg5NDMgNi42NDM2NCAxMi40MTk1QzYuNDEwMjggMTIuOTYyMiA2LjI5MzQzIDEzLjU0NzggNi4zMDA2NCAxNC4xMzg1VjE1LjAxMzVIMTUuMTc1NlYxNC4xMzg1WiIvPiYjeGE7PGRlZnM+JiN4YTs8bGluZWFyR3JhZGllbnQgZ3JhZGllbnRVbml0cz0idXNlclNwYWNlT25Vc2UiIHkyPSIxNi43OTM1IiB4Mj0iOC45NzIxNCIgeTE9IjAuODI0MzY0IiB4MT0iOC45NzIxNCIgaWQ9InBhaW50MF9saW5lYXJfNzc1XzgiPiYjeGE7PHN0b3Agc3RvcC1jb2xvcj0iIzVCNzM4QiIvPiYjeGE7PHN0b3Agc3RvcC1jb2xvcj0iIzIyMzU0OCIgb2Zmc2V0PSIxIi8+JiN4YTs8L2xpbmVhckdyYWRpZW50PiYjeGE7PC9kZWZzPiYjeGE7PC9zdmc+;" parent="1" vertex="1">
          <mxGeometry x="882.44" y="792.5" width="28" height="28" as="geometry" />
        </mxCell>
        <mxCell id="aZ0MxrTqLQG-AXpiNajb-84" value="" style="endArrow=blockThin;html=1;strokeColor=#475E75;bendable=1;rounded=0;endFill=1;endSize=4;strokeWidth=1.5;startSize=4;entryX=0;entryY=0.5;entryDx=0;entryDy=0;entryPerimeter=0;" parent="1" target="aZ0MxrTqLQG-AXpiNajb-166" edge="1">
          <mxGeometry width="50" height="50" relative="1" as="geometry">
            <mxPoint x="618.44" y="499" as="sourcePoint" />
            <mxPoint x="729.44" y="452.75" as="targetPoint" />
            <Array as="points">
              <mxPoint x="668.44" y="499" />
              <mxPoint x="668.44" y="429" />
              <mxPoint x="668.44" y="366" />
            </Array>
          </mxGeometry>
        </mxCell>
        <mxCell id="aZ0MxrTqLQG-AXpiNajb-85" value="" style="rounded=1;whiteSpace=wrap;html=1;strokeColor=#0070F2;strokeWidth=1.5;arcSize=16;fillColor=#FFFFFF;perimeterSpacing=0;absoluteArcSize=1;" parent="1" vertex="1">
          <mxGeometry x="1580.3700000000001" y="309" width="153" height="68.89" as="geometry" />
        </mxCell>
        <mxCell id="aZ0MxrTqLQG-AXpiNajb-86" value="" style="shape=image;verticalLabelPosition=bottom;labelBackgroundColor=default;verticalAlign=top;imageAspect=0;image=data:image/svg+xml,PHN2ZyB4bWxucz0iaHR0cDovL3d3dy53My5vcmcvMjAwMC9zdmciIGZpbGw9Im5vbmUiIHZpZXdCb3g9IjAgMCAxNyAxMiIgaGVpZ2h0PSIxMiIgd2lkdGg9IjE3Ij4mI3hhOzxwYXRoIGZpbGw9InVybCgjcGFpbnQwX2xpbmVhcl83MjRfMTQpIiBkPSJNMTIuMzQ2MSAxMS45OTc0SDMuODE0ODVDMy4zNTY1MiAxMS45OTc0IDIuOTE5MDIgMTEuOTAzNiAyLjUwMjM1IDExLjcxNjJDMi4wODU2OCAxMS41MDc4IDEuNzIxMSAxMS4yMzcgMS40MDg2IDEwLjkwMzZDMS4wOTYxIDEwLjU0OTUgMC44NDYxIDEwLjE0MzIgMC42NTg2IDkuNjg0OTFDMC40OTE5MyA5LjIyNjYxIDAuNDA4NiA4LjczNzAxIDAuNDA4NiA4LjIxNjIxQzAuNDA4NiA3LjcxNjE2IDAuNDkxOTMgNy4yMzY5OSAwLjY1ODYgNi43Nzg2NkMwLjg0NjEgNi4zMjAzMyAxLjA4NTY4IDUuOTI0NDkgMS4zNzczNSA1LjU5MTE2QzEuNjY5MDIgNS4yMzY5OSAyLjAxMjc3IDQuOTY2MTYgMi40MDg2IDQuNzc4NjZDMi44MjUyNyA0LjU3MDMzIDMuMjYyNzcgNC40NjYxNiAzLjcyMTEgNC40NjYxNkMzLjgyNTI3IDMuODQxMTYgNC4wMTI3NyAzLjI1NzgzIDQuMjgzNiAyLjcxNjE2QzQuNTU0NDMgMi4xNTM2NiA0Ljg5ODE4IDEuNjc0NDkgNS4zMTQ4NSAxLjI3ODY2QzUuNzMxNTIgMC44ODI4MzQgNi4yMDAyNyAwLjU3MDMzNCA2LjcyMTEgMC4zNDExNjRDNy4yNjI3NyAwLjExMTk5NCA3LjgyNTI3IC0wLjAwMjU4NjM2IDguNDA4NiAtMC4wMDI1ODYzNkM5LjMwNDQzIC0wLjAwMjU4NjM2IDEwLjEzNzcgMC4yNjgyNDQgMTAuOTA4NiAwLjgwOTkxNEMxMS42Nzk0IDEuMzUxNTggMTIuMjczMSAyLjA4MDc0IDEyLjY4OTggMi45OTc0MUMxMy4yMTA2IDMuMDM5MDggMTMuNzAwMiAzLjE4NDkxIDE0LjE1ODYgMy40MzQ5MUMxNC42MTY5IDMuNjg0OTEgMTUuMDEyOCA0LjAxODI0IDE1LjM0NjEgNC40MzQ5MUMxNS42Nzk1IDQuODMwNzQgMTUuOTM5OCA1LjI4OTA4IDE2LjEyNzMgNS44MDk5MUMxNi4zMTQ4IDYuMzMwNzQgMTYuNDA4NiA2Ljg5MzI0IDE2LjQwODYgNy40OTc0MUMxNi40MDg2IDguMTIyNDEgMTYuMzA0NSA4LjcxNjIxIDE2LjA5NjEgOS4yNzg2MUMxNS44ODc4IDkuODIwMzEgMTUuNTk2MSAxMC4yOTk1IDE1LjIyMTEgMTAuNzE2MkMxNC44NjcgMTEuMTEyIDE0LjQzOTggMTEuNDI0NSAxMy45Mzk4IDExLjY1MzZDMTMuNDM5OCAxMS44ODI4IDEyLjkwODcgMTEuOTk3NCAxMi4zNDYxIDExLjk5NzRaTTMuODE0ODUgNi4wNTk5MUMzLjMxNDg1IDYuMDU5OTEgMi44ODc3NyA2LjI2ODI0IDIuNTMzNiA2LjY4NDkxQzIuMTc5NDMgNy4xMDE1OCAyLjAwMjM1IDcuNjExOTkgMi4wMDIzNSA4LjIxNjIxQzIuMDAyMzUgOC44MjAzMSAyLjE3OTQzIDkuMzQxMjEgMi41MzM2IDkuNzc4NjFDMi44ODc3NyAxMC4xOTUzIDMuMzE0ODUgMTAuNDAzNiAzLjgxNDg1IDEwLjQwMzZIMTIuMzQ2MUMxMy4wMzM3IDEwLjQwMzYgMTMuNjE3IDEwLjEyMjQgMTQuMDk2MSA5LjU1OTkxQzE0LjU3NTMgOC45OTc0MSAxNC44MTQ4IDguMzA5OTEgMTQuODE0OCA3LjQ5NzQxQzE0LjgxNDggNi42NjQwOCAxNC41NzUzIDUuOTY2MTYgMTQuMDk2MSA1LjQwMzY2QzEzLjYxNyA0Ljg0MTE2IDEzLjAzMzcgNC41NTk5MSAxMi4zNDYxIDQuNTU5OTFIMTIuMTI3M0MxMS43NzMxIDQuNTU5OTEgMTEuNTIzMSA0LjM4MjgzIDExLjM3NzMgNC4wMjg2NkMxMS4xMjczIDMuMjk5NDkgMTAuNzMxNSAyLjcxNjE2IDEwLjE4OTggMi4yNzg2NkM5LjY0ODE1IDEuODIwMzMgOS4wNTQ0MyAxLjU5MTE2IDguNDA4NiAxLjU5MTE2QzcuOTcxMSAxLjU5MTE2IDcuNTY0ODUgMS42OTUzMyA3LjE4OTg1IDEuOTAzNjZDNi44MTQ4NSAyLjA5MTE2IDYuNDgxNTIgMi4zNTE1OCA2LjE4OTg1IDIuNjg0OTFDNS45MTkwMiAyLjk5NzQxIDUuNzAwMjcgMy4zODI4MyA1LjUzMzYgMy44NDExNkM1LjM2NjkzIDQuMjc4NjYgNS4yODM2IDQuNzQ3NDEgNS4yODM2IDUuMjQ3NDFDNS4yODM2IDUuNDc2NTggNS4yMDAyNyA1LjY3NDQ5IDUuMDMzNiA1Ljg0MTE2QzQuODg3NzcgNS45ODY5OSA0LjcwMDI3IDYuMDU5OTEgNC40NzExIDYuMDU5OTFIMy44MTQ4NVoiLz4mI3hhOzxkZWZzPiYjeGE7PGxpbmVhckdyYWRpZW50IGdyYWRpZW50VW5pdHM9InVzZXJTcGFjZU9uVXNlIiB5Mj0iMTAuMzM3MyIgeDI9IjE0LjI2MDIiIHkxPSIxLjEyNjIzIiB4MT0iMi40NzY0NiIgaWQ9InBhaW50MF9saW5lYXJfNzI0XzE0Ij4mI3hhOzxzdG9wIHN0b3AtY29sb3I9IiMyMzk1RkYiLz4mI3hhOzxzdG9wIHN0b3AtY29sb3I9IiMwMDU3RDIiIG9mZnNldD0iMSIvPiYjeGE7PC9saW5lYXJHcmFkaWVudD4mI3hhOzwvZGVmcz4mI3hhOzwvc3ZnPg==;strokeWidth=1.5;aspect=fixed;" parent="1" vertex="1">
          <mxGeometry x="1588.51" y="314.6400000000001" width="28" height="17.89" as="geometry" />
        </mxCell>
        <mxCell id="aZ0MxrTqLQG-AXpiNajb-87" value="&lt;font face=&quot;arial&quot;&gt;&lt;span style=&quot;font-size: 16px;&quot;&gt;&lt;b&gt;3rd Party APIs &amp;amp; &lt;br&gt;Applications&lt;/b&gt;&lt;/span&gt;&lt;/font&gt;" style="text;html=1;align=left;verticalAlign=middle;resizable=0;points=[];autosize=1;strokeColor=none;fillColor=none;fontSize=12;fontColor=#1d2d3e;fontFamily=Helvetica;" parent="1" vertex="1">
          <mxGeometry x="1590.438940397351" y="328.6441071428576" width="143" height="50" as="geometry" />
        </mxCell>
        <mxCell id="aZ0MxrTqLQG-AXpiNajb-88" style="edgeStyle=orthogonalEdgeStyle;rounded=0;orthogonalLoop=1;jettySize=auto;html=1;exitX=0.5;exitY=1;exitDx=0;exitDy=0;" parent="1" source="aZ0MxrTqLQG-AXpiNajb-34" target="aZ0MxrTqLQG-AXpiNajb-34" edge="1">
          <mxGeometry relative="1" as="geometry" />
        </mxCell>
        <mxCell id="aZ0MxrTqLQG-AXpiNajb-111" value="&lt;font color=&quot;#188918&quot; size=&quot;1&quot;&gt;&lt;b style=&quot;&quot;&gt;SAML2/OIDC&lt;/b&gt;&lt;/font&gt;" style="rounded=1;whiteSpace=wrap;html=1;arcSize=50;strokeColor=#188918;fillColor=#f5fae5;fontColor=#266f3a;strokeWidth=1.5;" parent="1" vertex="1">
          <mxGeometry x="1209.94" y="670.75" width="72" height="16" as="geometry" />
        </mxCell>
        <mxCell id="aZ0MxrTqLQG-AXpiNajb-131" value="&lt;p style=&quot;line-height: 110%;&quot;&gt;&lt;font color=&quot;#1d2d3e&quot; face=&quot;arial&quot; style=&quot;&quot;&gt;&lt;font style=&quot;font-size: 12px;&quot;&gt;Identity Directory&lt;/font&gt;&lt;br&gt;&lt;/font&gt;&lt;/p&gt;" style="text;html=1;align=center;verticalAlign=middle;resizable=1;points=[[0,0.5,0,0,0],[0.21,1,0,0,0],[0.5,1,0,0,0],[0.85,1,0,0,0],[1,0.5,0,0,0]];autosize=0;strokeColor=none;fillColor=none;fontSize=12;fontColor=default;fontFamily=Helvetica;fixedWidth=1;imageWidth=24;whiteSpace=wrap;labelBackgroundColor=none;" parent="1" vertex="1">
          <mxGeometry x="823.44" y="678" width="72" height="34" as="geometry" />
        </mxCell>
        <mxCell id="aZ0MxrTqLQG-AXpiNajb-138" value="&lt;p style=&quot;line-height: 110%;&quot;&gt;&lt;font color=&quot;#1d2d3e&quot; size=&quot;1&quot; face=&quot;arial&quot; style=&quot;&quot;&gt;&lt;span style=&quot;font-size: 12px;&quot;&gt;Identity Authentication&lt;br&gt;&lt;/span&gt;&lt;/font&gt;&lt;/p&gt;" style="text;html=1;align=center;verticalAlign=middle;resizable=1;points=[[0,0.5,0,0,0],[0.21,1,0,0,0],[0.5,1,0,0,0],[0.85,1,0,0,0],[1,0.5,0,0,0]];autosize=0;strokeColor=none;fillColor=none;fontSize=12;fontColor=default;fontFamily=Helvetica;fixedWidth=1;imageWidth=24;whiteSpace=wrap;labelBackgroundColor=none;" parent="1" vertex="1">
          <mxGeometry x="885.4400000000003" y="679" width="110" height="35" as="geometry" />
        </mxCell>
        <mxCell id="aZ0MxrTqLQG-AXpiNajb-139" value="&lt;p style=&quot;line-height: 110%;&quot;&gt;&lt;font color=&quot;#1d2d3e&quot; size=&quot;1&quot; face=&quot;arial&quot; style=&quot;&quot;&gt;&lt;span style=&quot;font-size: 12px;&quot;&gt;Identity &lt;br&gt;Provisoning&lt;br&gt;&lt;/span&gt;&lt;/font&gt;&lt;/p&gt;" style="text;html=1;align=center;verticalAlign=middle;resizable=1;points=[[0,0.5,0,0,0],[0.21,1,0,0,0],[0.5,1,0,0,0],[0.85,1,0,0,0],[1,0.5,0,0,0]];autosize=0;strokeColor=none;fillColor=none;fontSize=12;fontColor=default;fontFamily=Helvetica;fixedWidth=1;imageWidth=24;whiteSpace=wrap;labelBackgroundColor=none;" parent="1" vertex="1">
          <mxGeometry x="984.44" y="681" width="82" height="31" as="geometry" />
        </mxCell>
        <mxCell id="aZ0MxrTqLQG-AXpiNajb-159" value="&lt;font color=&quot;#475e75&quot; size=&quot;1&quot;&gt;&lt;b style=&quot;&quot;&gt;HTTPS&lt;/b&gt;&lt;/font&gt;" style="rounded=1;whiteSpace=wrap;html=1;arcSize=50;strokeColor=#475E75;fillColor=#f5f6f7;strokeWidth=1.5;" parent="1" vertex="1">
          <mxGeometry x="1404.44" y="458.75" width="46" height="16" as="geometry" />
        </mxCell>
        <mxCell id="aZ0MxrTqLQG-AXpiNajb-162" value="" style="shape=image;verticalLabelPosition=bottom;labelBackgroundColor=default;verticalAlign=top;aspect=fixed;imageAspect=0;image=data:image/svg+xml,PHN2ZyB4bWxucz0iaHR0cDovL3d3dy53My5vcmcvMjAwMC9zdmciIGZpbGw9Im5vbmUiIHZpZXdCb3g9IjAgMCAxNiAxNiIgaGVpZ2h0PSIxNiIgd2lkdGg9IjE2Ij4mI3hhOzxjaXJjbGUgc3Ryb2tlLXdpZHRoPSIwLjI4NTcwOCIgc3Ryb2tlPSIjRDVEQUREIiBmaWxsPSJ1cmwoI3BhaW50MF9saW5lYXJfMzg5MF8yMTUyMCkiIHI9IjcuODU2OTYiIGN5PSI3Ljk5Nzg2IiBjeD0iNy45OTY4OSIvPiYjeGE7PGcgY2xpcC1wYXRoPSJ1cmwoI2NsaXAwXzM4OTBfMjE1MjApIj4mI3hhOzxwYXRoIGZpbGw9InVybCgjcGFpbnQxX2xpbmVhcl8zODkwXzIxNTIwKSIgZD0iTTQuNjg1NDQgMy43MTg5N0M0LjQxMzUxIDMuODI2NjkgNC4xNTU0IDMuOTczMiAzLjk1NjYzIDQuMTc1NkMzLjgyNjY3IDQuMzA3OTQgMy41OTcxNyA0LjU2MzU2IDMuNTk3MTcgNS4wNDU5NVY5LjcyMzMyQzMuNTk3NSAxMC41NDAyIDQuMjAwMzUgMTAuOTgxNSA0LjczNTk3IDExLjIwMDJDNS4zMDI3NCAxMS40MzE3IDYuMDIyOTMgMTEuNTIyNSA2LjcwOTUxIDExLjUyM0M2Ljc5OTU3IDExLjUyMyA2LjkzOTA4IDExLjUwNiA3LjA4NDQzIDExLjQ4NTRDNy4zNjE3MiAxMS40NDYzIDcuNTc1MjkgMTEuMjAzMiA3LjU3NTI5IDEwLjkyMzFDNy41NzUyOSAxMC42MDU2IDcuMzAzODEgMTAuMzcyOSA2Ljk4ODk1IDEwLjQxNDNDNi44ODA4MSAxMC40Mjg1IDYuNzgxMzIgMTAuNDM4NyA2LjcxMDEgMTAuNDM4N0M2LjA3OTEgMTAuNDM4MiA1LjQ4Mzc0IDEwLjM1MjIgNS4wNjQzNyAxMC4xODA5QzQuNjEzOTggOS45OTcwMiA0LjU2MDI3IDkuODA5OSA0LjU2MDI3IDkuNzIyNjVMNC41NTk3MyA5LjA1NzI2QzQuNzMyNzYgOS4xMTYxOCA0LjkxNDMzIDkuMTY0NTUgNS4wOTc4IDkuMjA0MTZDNS41OTkyMiA5LjMxMjQxIDYuMTY3NTkgOS4zNjYwNyA2LjcyODkxIDkuMzY3MzlDNi44MjA0MyA5LjM2NzYxIDYuODk5MTkgOS4zNjkwMSA2Ljk5MDcyIDkuMzY2NDJDNy4xNzE2OSA5LjM2MTMxIDcuMzEyMTggOS4yMTA2NSA3LjMxMjE4IDkuMDI5NjFDNy4zMTIxOCA4LjgzMDA1IDcuMTQyNjkgOC42NzMwOCA2Ljk0MzE5IDguNjc4MTNDNi44Njg0NiA4LjY4MDAzIDYuODA2MjQgOC42NzgzMSA2LjczMDk0IDguNjc4MTRDNi4yMTg0NyA4LjY3NjkyIDUuNzExMyA4LjYyNzU5IDUuMjc5MTggOC41MzQzQzQuOTc3NjYgOC40NjkyIDQuNzM1MTggOC4zODczNyA0LjU1NzQyIDguMjk5OTdMNC41NTYzIDcuNDg3OTRDNC43MzAzNiA3LjU0NzM5IDQuOTEzMTIgNy41OTYxNCA1LjA5NzggNy42MzYwMUM1LjU5OTIyIDcuNzQ0MjYgNi4xNjc1OSA3Ljc5NzkyIDYuNzI4OTEgNy43OTkyNUM3LjE5MDg2IDcuODAwMzQgNy42NTcwOSA3Ljc2NjAxIDguMDg2MDQgNy42OTM2M0M4LjU0MDMgNy42MzYwMSA4LjQ5MzQ0IDYuOTQyNjYgOC4wODYwNCA3LjAyMjgyQzcuNjc4NjQgNy4xMDI5OSA3LjIwODI5IDcuMTQzNjQgNi43MzA5NCA3LjE0MjUxQzYuMjE4NDcgNy4xNDEzIDUuNzExMyA3LjA5MTk3IDUuMjc5MTggNi45OTg2OEM0Ljk3NTcyIDYuOTMzMTYgNC43MzIwNyA2Ljg1MDcgNC41NTQwMSA2Ljc2MjY3TDQuNTUyNjcgNS45MDU4NEM0LjU5OTE2IDUuOTI2NzUgNC42NDYzMSA1Ljk0NjQgNC42OTM4NiA1Ljk2NDg4QzUuMjM5ODYgNi4xNzcxNyA1Ljk1NTIgNi4yODAxNCA2LjcwOTgxIDYuMjgwMTRDNy40NzA3MSA2LjI4MDE0IDguMTkzMDYgNi4xNzU0NSA4Ljc0MzE1IDUuOTU5NjdDOC43OTA2IDUuOTQxMDYgOC44Mzc2NSA1LjkyMTI4IDguODg0MDYgNS45MDAyNUw4Ljg4NDA2IDYuNTk0NzJMOC44ODE5NiA2LjM1ODk3QzguODgxNzcgNi41Njc0NCA5LjA1MDcyIDYuNzM2NTMgOS4yNTkxOSA2LjczNjUzSDkuMzY0NTVDOS42MzEwMyA2LjczNjUzIDkuODQ3MDUgNi41MjA1MSA5Ljg0NzA0IDYuMjU0MDNMOS44NDcwMSA1LjA0NTk1QzkuODQ3MDEgNC42NzY2IDkuNjgzOTcgNC4zODMxOCA5LjQ3NzM2IDQuMTc0MzFDOS4yNzcxNiAzLjk3MTkxIDkuMDE2NjYgMy44MjU3NiA4Ljc0MzAxIDMuNzE4NDFDOC4xOTI5MSAzLjUwMjY0IDcuNDcwNTYgMy4zOTc5NSA2LjcwOTY2IDMuMzk3OTVDNS45NDg3NiAzLjM5Nzk1IDUuMjMxNTYgMy41MDI2MyA0LjY4NTQ0IDMuNzE4OTdaIiBjbGlwLXJ1bGU9ImV2ZW5vZGQiIGZpbGwtcnVsZT0iZXZlbm9kZCIvPiYjeGE7PHBhdGggZmlsbD0idXJsKCNwYWludDJfbGluZWFyXzM4OTBfMjE1MjApIiBkPSJNMTAuNTUwMSA3LjQzNDQyQzEwLjU4NzQgNy4xOTU3IDEwLjgxMTIgNy4wMzI0NCAxMS4wNDk5IDcuMDY5NzdDMTEuOTA2NCA3LjIwMzcyIDEyLjc0ODggNy42MTA5IDEzLjQ0MTYgOC4zMDc1NkMxMy42MTIgOC40Nzg4OSAxMy42MTEzIDguNzU1OSAxMy40Mzk5IDguOTI2MjhDMTMuMjY4NiA5LjA5NjY2IDEyLjk5MTYgOS4wOTU5IDEyLjgyMTIgOC45MjQ1OEMxMi4yNjA2IDguMzYwODkgMTEuNTg4NiA4LjAzOTY1IDEwLjkxNDcgNy45MzQyNkMxMC42NzYgNy44OTY5MyAxMC41MTI4IDcuNjczMTQgMTAuNTUwMSA3LjQzNDQyWiIgY2xpcC1ydWxlPSJldmVub2RkIiBmaWxsLXJ1bGU9ImV2ZW5vZGQiLz4mI3hhOzxwYXRoIGZpbGw9InVybCgjcGFpbnQzX2xpbmVhcl8zODkwXzIxNTIwKSIgZD0iTTEwLjkzMzcgMTEuMTcwNEMxMC45MzM3IDEwLjkyODggMTAuNzM3OSAxMC43MzI5IDEwLjQ5NjIgMTAuNzMyOUMxMC4yNTQ2IDEwLjczMjkgMTAuMDU4NyAxMC45Mjg4IDEwLjA1ODcgMTEuMTcwNEMxMC4wNTg3IDExLjUxNCAxMC4xNTA4IDExLjg4MDIgMTAuMzM0MiAxMi4xNzY0QzEwLjM1MzEgMTIuMjA3IDEwLjM3MjIgMTIuMjM3NCAxMC4zOTUxIDEyLjI2NDlDMTAuNTM3NCAxMi40MzUgMTAuNzk0NiAxMi40NzM2IDEwLjk4MDMgMTIuMzQ1NEMxMS4xNzggMTIuMjA4OCAxMS4yMjg0IDExLjkzODUgMTEuMDkzOCAxMS43NEMxMC45ODg2IDExLjU3MzggMTAuOTMzNyAxMS4zNjU3IDEwLjkzMzcgMTEuMTcwNFoiLz4mI3hhOzxwYXRoIGZpbGw9InVybCgjcGFpbnQ0X2xpbmVhcl8zODkwXzIxNTIwKSIgZD0iTTEzLjI4NTYgMTAuOTAwM0MxMy4zMzE2IDkuNzc0MDMgMTIuNDY0NCA4LjgyOTkxIDExLjQ1NDkgOC40NTA4MUMxMC40MDkzIDguMDU4MTMgOS4xMDEzMSA4LjIxOTk5IDguMTk2MTIgOS4zOTc2OEM4LjA0ODg3IDkuNTg5MjUgOC4wODQ4IDkuODYzOTIgOC4yNzYzNyAxMC4wMTEyQzguNDY3OTUgMTAuMTU4NCA4Ljc0MjYyIDEwLjEyMjUgOC44ODk4NyA5LjkzMDkxQzkuNTI3MDIgOS4xMDE5NiAxMC40MDc4IDguOTkyMjQgMTEuMTQ3MyA5LjI2OTk1QzExLjkyMyA5LjU2MTI2IDEyLjQzNzMgMTAuMjI5NSAxMi40MTEzIDEwLjg2NDVDMTIuNDA2NSAxMC45ODI1IDEyLjM2NjcgMTEuMDQyNCAxMi4zMzYyIDExLjA3MjJDMTIuMzAxOCAxMS4xMDU5IDEyLjI1NzUgMTEuMTIyOSAxMi4yMTUxIDExLjEyMzdDMTIuMTczNiAxMS4xMjQ1IDEyLjE0MjUgMTEuMTEwMyAxMi4xMjE4IDExLjA4OTRDMTIuMTA0MSAxMS4wNzE3IDEyLjA2MzIgMTEuMDE4IDEyLjA2MzIgMTAuODgyNEMxMi4wNjMyIDEwLjUwODIgMTEuODI1NyAxMC4xMDcxIDExLjQ4MTMgOS44NDg2QzExLjExMDQgOS41NzAyMyAxMC41ODU2IDkuNDI4MDkgOS45Njg5NSA5LjU5ODI1TDkuOTU5OTIgOS42MDA3NUw5Ljk1MSA5LjYwMzYyQzkuMzYwNDcgOS43OTQxMiA4Ljk4Mzc5IDEwLjM0NjEgOC44OTkxNiAxMC45OTExQzguODEzNjkgMTEuNjQyNCA5LjAxMzc5IDEyLjQwODYgOS41NjU4NyAxMy4xNTM2QzkuNzA5NzMgMTMuMzQ3OCA5Ljk4MzczIDEzLjM4ODUgMTAuMTc3OSAxMy4yNDQ3QzEwLjM3MiAxMy4xMDA4IDEwLjQxMjcgMTIuODI2OCAxMC4yNjg5IDEyLjYzMjdDOS44MjU0NSAxMi4wMzQzIDkuNzE2MDcgMTEuNDkwOSA5Ljc2NjcyIDExLjEwNDlDOS44MTc1MSAxMC43MTc5IDEwLjAxNzcgMTAuNTA1NSAxMC4yMTE2IDEwLjQzOUMxMC41NTggMTAuMzQ2MyAxMC44MDAzIDEwLjQzMTUgMTAuOTU2IDEwLjU0ODRDMTEuMDM5NSAxMC42MTEgMTEuMTAxNCAxMC42ODU1IDExLjE0MDkgMTAuNzU0OUMxMS4xODMgMTAuODI2OSAxMS4xODY1IDEwLjg2MzUgMTEuMTg4OSAxMC45MjgzQzExLjE5ODQgMTEuMjM3OCAxMS4zMDUyIDExLjUwOTMgMTEuNTAxNSAxMS43MDY2QzExLjcwNDQgMTEuOTEwNSAxMS45NzIzIDEyLjAwMzYgMTIuMjMyIDExLjk5ODZDMTIuNzY0NiAxMS45ODgzIDEzLjI1ODIgMTEuNTcyMyAxMy4yODU2IDEwLjkwMDNaIi8+JiN4YTs8L2c+JiN4YTs8ZGVmcz4mI3hhOzxsaW5lYXJHcmFkaWVudCBncmFkaWVudFVuaXRzPSJ1c2VyU3BhY2VPblVzZSIgeTI9IjE0Ljc0NTgiIHgyPSIxMy42ODQ5IiB5MT0iMi4yNjg5NCIgeDE9IjEuNDQ3OTkiIGlkPSJwYWludDBfbGluZWFyXzM4OTBfMjE1MjAiPiYjeGE7PHN0b3Agc3RvcC1jb2xvcj0id2hpdGUiLz4mI3hhOzxzdG9wIHN0b3AtY29sb3I9IiNFQUVDRUUiIG9mZnNldD0iMSIvPiYjeGE7PC9saW5lYXJHcmFkaWVudD4mI3hhOzxsaW5lYXJHcmFkaWVudCBncmFkaWVudFVuaXRzPSJ1c2VyU3BhY2VPblVzZSIgeTI9IjguODQ0NTUiIHgyPSIxMC4wMzMzIiB5MT0iNC42MTI5OSIgeDE9IjQuNTM0MDUiIGlkPSJwYWludDFfbGluZWFyXzM4OTBfMjE1MjAiPiYjeGE7PHN0b3Agc3RvcC1jb2xvcj0iIzAxOTVGRiIvPiYjeGE7PHN0b3Agc3RvcC1jb2xvcj0iIzExNDdFOSIgb2Zmc2V0PSIwLjk5MTAyOCIvPiYjeGE7PC9saW5lYXJHcmFkaWVudD4mI3hhOzxsaW5lYXJHcmFkaWVudCBncmFkaWVudFVuaXRzPSJ1c2VyU3BhY2VPblVzZSIgeTI9IjExLjc5MjgiIHgyPSIxMy4yNjAyIiB5MT0iNy45ODYzNSIgeDE9IjguOTEzMjEiIGlkPSJwYWludDJfbGluZWFyXzM4OTBfMjE1MjAiPiYjeGE7PHN0b3Agc3RvcC1jb2xvcj0iIzEzNDhGRiIvPiYjeGE7PHN0b3Agc3RvcC1jb2xvcj0iIzA2MjM4RCIgb2Zmc2V0PSIxIi8+JiN4YTs8L2xpbmVhckdyYWRpZW50PiYjeGE7PGxpbmVhckdyYWRpZW50IGdyYWRpZW50VW5pdHM9InVzZXJTcGFjZU9uVXNlIiB5Mj0iMTEuNzkyOCIgeDI9IjEzLjI2MDIiIHkxPSI3Ljk4NjM1IiB4MT0iOC45MTMyMSIgaWQ9InBhaW50M19saW5lYXJfMzg5MF8yMTUyMCI+JiN4YTs8c3RvcCBzdG9wLWNvbG9yPSIjMTM0OEZGIi8+JiN4YTs8c3RvcCBzdG9wLWNvbG9yPSIjMDYyMzhEIiBvZmZzZXQ9IjEiLz4mI3hhOzwvbGluZWFyR3JhZGllbnQ+JiN4YTs8bGluZWFyR3JhZGllbnQgZ3JhZGllbnRVbml0cz0idXNlclNwYWNlT25Vc2UiIHkyPSIxMS43OTI4IiB4Mj0iMTMuMjYwMiIgeTE9IjcuOTg2MzUiIHgxPSI4LjkxMzIxIiBpZD0icGFpbnQ0X2xpbmVhcl8zODkwXzIxNTIwIj4mI3hhOzxzdG9wIHN0b3AtY29sb3I9IiMxMzQ4RkYiLz4mI3hhOzxzdG9wIHN0b3AtY29sb3I9IiMwNjIzOEQiIG9mZnNldD0iMSIvPiYjeGE7PC9saW5lYXJHcmFkaWVudD4mI3hhOzxjbGlwUGF0aCBpZD0iY2xpcDBfMzg5MF8yMTUyMCI+JiN4YTs8cmVjdCB0cmFuc2Zvcm09InRyYW5zbGF0ZSgzLjU5NzE3IDMuMzk3OTUpIiBmaWxsPSJ3aGl0ZSIgaGVpZ2h0PSIxMCIgd2lkdGg9IjEwIi8+JiN4YTs8L2NsaXBQYXRoPiYjeGE7PC9kZWZzPiYjeGE7PC9zdmc+;" parent="1" vertex="1">
          <mxGeometry x="843.44" y="646" width="32" height="32" as="geometry" />
        </mxCell>
        <mxCell id="aZ0MxrTqLQG-AXpiNajb-163" value="" style="shape=image;verticalLabelPosition=bottom;labelBackgroundColor=default;verticalAlign=top;aspect=fixed;imageAspect=0;image=data:image/svg+xml,PHN2ZyB4bWxucz0iaHR0cDovL3d3dy53My5vcmcvMjAwMC9zdmciIGZpbGw9Im5vbmUiIHZpZXdCb3g9IjAgMCAxNiAxNiIgaGVpZ2h0PSIxNiIgd2lkdGg9IjE2Ij4mI3hhOzxjaXJjbGUgc3Ryb2tlLXdpZHRoPSIwLjI4NTcwOCIgc3Ryb2tlPSIjRDVEQUREIiBmaWxsPSJ1cmwoI3BhaW50MF9saW5lYXJfMzg5MF8yMTUxMykiIHI9IjcuODU2OTYiIGN5PSI3Ljk5Nzg2IiBjeD0iNy45OTkzMyIvPiYjeGE7PHBhdGggZmlsbD0idXJsKCNwYWludDFfbGluZWFyXzM4OTBfMjE1MTMpIiBkPSJNNy4xNzQ4NCAzLjQxNDlMMTAuMTkzNiA0LjI4NTYxSDEwLjE5MjhDMTAuNDA2NSA0LjM0MjkgMTAuNTEzMyA0LjQ4NDkzIDEwLjUxMzMgNC43MTI0OVY2LjIzMDQ0QzEwLjAxNjEgNi4zNzgwNSA5LjY1MjU1IDYuNzY4MjQgOS41NTU4MyA3LjQ0NTUzQzkuNTU1ODMgNy40NDU1MyA5LjI2OTcxIDcuNDYxODcgOC42MzQ4NiA3LjgwMTE2QzggOC4xNDA0NCA3LjU2MzcxIDguNjkwNTQgNy41NjM3MSA4LjY5MDU0QzcuMTM3NDggOS4xNzM1MSA3LjAzMzEyIDkuNDk2MjYgNy4xODA2NiAxMC4yMDMxQzcuMzcwMDQgMTAuNjQzNyA3LjUzMjQ4IDEwLjgxOTggNy45MDEzMSAxMS4wMzQxQzcuOTAxMzEgMTEuMDM0MSA3Ljg1MTMxIDExLjI5OTYgNy45MDI2NCAxMS43Mzc3QzcuNzU0NzYgMTEuODI3OSA3LjYyNDQgMTEuOTAxNCA3LjUxMTY3IDExLjk1ODZDNy4zNDMwNiAxMi4wNDQyIDcuMjQ3MzkgMTIuMDkyNiA3LjIyNTA2IDEyLjEwMzlDNy4xNTc3IDEyLjEyNjkgNy4xMDE0OSAxMi4xMzgyIDcuMDU2NDUgMTIuMTM4MkM3LjAxMTQgMTIuMTM4MiA2Ljk1NTIgMTIuMTI2NSA2Ljg4NzgzIDEyLjEwMzlDNi44NjUxMSAxMi4wOTI2IDYuNzY5ODQgMTIuMDQ3IDYuNjAxMjIgMTEuOTY3NUM2LjQzMjYxIDExLjg4NzYgNi4yMjQ1MyAxMS43NjU0IDUuOTc3MzggMTEuNjAwM0M1LjczMDI0IDExLjQzNTMgNS40Njg3NCAxMS4yMzMyIDUuMTkzMjkgMTAuOTk0M0M0LjkxNzg1IDEwLjc1NTQgNC42NjE5MyAxMC40NzY2IDQuNDI1OTUgMTAuMTU3OUM0LjE4OTU3IDkuODM5NTQgMy45OTMwNSA5LjQ4MTI1IDMuODM1NTkgOS4wODI2MUMzLjY3ODE0IDguNjg0MzcgMy41OTk2MSA4LjI0NjE5IDMuNTk5NjEgNy43NjgwNlY0LjcxMjQ5QzMuNTk5NjEgNC40ODQ5MyAzLjcwNjQ0IDQuMzQyNSAzLjkyMDEgNC4yODU2MUw2LjkzODg1IDMuNDE0OUM3LjAwNjIyIDMuMzkyMyA3LjA4NDc1IDMuMzkyMyA3LjE3NDg0IDMuNDE0OVoiLz4mI3hhOzxwYXRoIGZpbGw9InVybCgjcGFpbnQyX2xpbmVhcl8zODkwXzIxNTEzKSIgZD0iTTEwLjU1MjUgNy41MTg4OUMxMC41ODk5IDcuMjgwMTcgMTAuODEzNiA3LjExNjkxIDExLjA1MjQgNy4xNTQyNEMxMS45MDg5IDcuMjg4MTkgMTIuNzUxMiA3LjY5NTM3IDEzLjQ0NDEgOC4zOTIwNEMxMy42MTQ1IDguNTYzMzYgMTMuNjEzNyA4Ljg0MDM3IDEzLjQ0MjQgOS4wMTA3NUMxMy4yNzExIDkuMTgxMTQgMTIuOTk0MSA5LjE4MDM3IDEyLjgyMzcgOS4wMDkwNUMxMi4yNjMxIDguNDQ1MzYgMTEuNTkxMSA4LjEyNDEyIDEwLjkxNzIgOC4wMTg3M0MxMC42Nzg1IDcuOTgxNCAxMC41MTUyIDcuNzU3NjEgMTAuNTUyNSA3LjUxODg5WiIgY2xpcC1ydWxlPSJldmVub2RkIiBmaWxsLXJ1bGU9ImV2ZW5vZGQiLz4mI3hhOzxwYXRoIGZpbGw9InVybCgjcGFpbnQzX2xpbmVhcl8zODkwXzIxNTEzKSIgZD0iTTEwLjkzNjIgMTEuMjU0OUMxMC45MzYyIDExLjAxMzMgMTAuNzQwMyAxMC44MTc0IDEwLjQ5ODcgMTAuODE3NEMxMC4yNTcxIDEwLjgxNzQgMTAuMDYxMiAxMS4wMTMzIDEwLjA2MTIgMTEuMjU0OUMxMC4wNjEyIDExLjU5ODUgMTAuMTUzMiAxMS45NjQ2IDEwLjMzNjYgMTIuMjYwOUMxMC4zNTU1IDEyLjI5MTQgMTAuMzc0NiAxMi4zMjE5IDEwLjM5NzYgMTIuMzQ5M0MxMC41Mzk4IDEyLjUxOTUgMTAuNzk3IDEyLjU1ODEgMTAuOTgyNyAxMi40Mjk4QzExLjE4MDUgMTIuMjkzMiAxMS4yMzA4IDEyLjAyMjkgMTEuMDk2MiAxMS44MjQ0QzEwLjk5MSAxMS42NTgzIDEwLjkzNjIgMTEuNDUwMiAxMC45MzYyIDExLjI1NDlaIi8+JiN4YTs8cGF0aCBmaWxsPSJ1cmwoI3BhaW50NF9saW5lYXJfMzg5MF8yMTUxMykiIGQ9Ik0xMy4yODggMTAuOTg0N0MxMy4zMzQxIDkuODU4NSAxMi40NjY4IDguOTE0MzggMTEuNDU3MyA4LjUzNTI5QzEwLjQxMTcgOC4xNDI2IDkuMTAzNzUgOC4zMDQ0NiA4LjE5ODU2IDkuNDgyMTVDOC4wNTEzMSA5LjY3MzcyIDguMDg3MjQgOS45NDgzOSA4LjI3ODgyIDEwLjA5NTZDOC40NzAzOSAxMC4yNDI5IDguNzQ1MDYgMTAuMjA3IDguODkyMzEgMTAuMDE1NEM5LjUyOTQ2IDkuMTg2NDMgMTAuNDEwMiA5LjA3NjcxIDExLjE0OTcgOS4zNTQ0M0MxMS45MjU0IDkuNjQ1NzMgMTIuNDM5NyAxMC4zMTQgMTIuNDEzOCAxMC45NDlDMTIuNDA5IDExLjA2NyAxMi4zNjkyIDExLjEyNjkgMTIuMzM4NiAxMS4xNTY3QzEyLjMwNDMgMTEuMTkwNCAxMi4yNTk5IDExLjIwNzQgMTIuMjE3NiAxMS4yMDgyQzEyLjE3NjEgMTEuMjA5IDEyLjE0NSAxMS4xOTQ3IDEyLjEyNDIgMTEuMTczOUMxMi4xMDY2IDExLjE1NjEgMTIuMDY1NiAxMS4xMDI0IDEyLjA2NTYgMTAuOTY2OUMxMi4wNjU2IDEwLjU5MjYgMTEuODI4MiAxMC4xOTE2IDExLjQ4MzcgOS45MzMwOEMxMS4xMTI4IDkuNjU0NzEgMTAuNTg4MSA5LjUxMjU3IDkuOTcxMzkgOS42ODI3M0w5Ljk2MjM2IDkuNjg1MjJMOS45NTM0NCA5LjY4ODA5QzkuMzYyOTEgOS44Nzg1OSA4Ljk4NjIzIDEwLjQzMDYgOC45MDE2IDExLjA3NTVDOC44MTYxMyAxMS43MjY5IDkuMDE2MjMgMTIuNDkzMSA5LjU2ODMxIDEzLjIzODFDOS43MTIxNyAxMy40MzIyIDkuOTg2MTcgMTMuNDczIDEwLjE4MDMgMTMuMzI5MUMxMC4zNzQ0IDEzLjE4NTMgMTAuNDE1MiAxMi45MTEzIDEwLjI3MTMgMTIuNzE3MUM5LjgyNzkgMTIuMTE4OCA5LjcxODUyIDExLjU3NTMgOS43NjkxNiAxMS4xODk0QzkuODE5OTUgMTAuODAyNCAxMC4wMjAxIDEwLjU5IDEwLjIxNCAxMC41MjM1QzEwLjU2MDUgMTAuNDMwOCAxMC44MDI4IDEwLjUxNiAxMC45NTg1IDEwLjYzMjlDMTEuMDQxOSAxMC42OTU1IDExLjEwMzkgMTAuNzcgMTEuMTQzNCAxMC44Mzk0QzExLjE4NTQgMTAuOTExNCAxMS4xODg5IDEwLjk0OCAxMS4xOTEzIDExLjAxMjhDMTEuMjAwOSAxMS4zMjIzIDExLjMwNzYgMTEuNTkzNyAxMS41MDQgMTEuNzkxMUMxMS43MDY5IDExLjk5NSAxMS45NzQ3IDEyLjA4ODEgMTIuMjM0NSAxMi4wODNDMTIuNzY3IDEyLjA3MjcgMTMuMjYwNiAxMS42NTY4IDEzLjI4OCAxMC45ODQ3WiIvPiYjeGE7PGRlZnM+JiN4YTs8bGluZWFyR3JhZGllbnQgZ3JhZGllbnRVbml0cz0idXNlclNwYWNlT25Vc2UiIHkyPSIxNC43NDU4IiB4Mj0iMTMuNjg3NCIgeTE9IjIuMjY4OTQiIHgxPSIxLjQ1MDQzIiBpZD0icGFpbnQwX2xpbmVhcl8zODkwXzIxNTEzIj4mI3hhOzxzdG9wIHN0b3AtY29sb3I9IndoaXRlIi8+JiN4YTs8c3RvcCBzdG9wLWNvbG9yPSIjRUFFQ0VFIiBvZmZzZXQ9IjEiLz4mI3hhOzwvbGluZWFyR3JhZGllbnQ+JiN4YTs8bGluZWFyR3JhZGllbnQgZ3JhZGllbnRVbml0cz0idXNlclNwYWNlT25Vc2UiIHkyPSI5LjQxNzg5IiB4Mj0iMTAuNTkxOSIgeTE9IjQuNzA1IiB4MT0iNC42MzYiIGlkPSJwYWludDFfbGluZWFyXzM4OTBfMjE1MTMiPiYjeGE7PHN0b3Agc3RvcC1jb2xvcj0iIzAxOTVGRiIvPiYjeGE7PHN0b3Agc3RvcC1jb2xvcj0iIzExNDdFOSIgb2Zmc2V0PSIwLjk5MTAyOCIvPiYjeGE7PC9saW5lYXJHcmFkaWVudD4mI3hhOzxsaW5lYXJHcmFkaWVudCBncmFkaWVudFVuaXRzPSJ1c2VyU3BhY2VPblVzZSIgeTI9IjExLjg3NzMiIHgyPSIxMy4yNjI3IiB5MT0iOC4wNzA4MiIgeDE9IjguOTE1NjUiIGlkPSJwYWludDJfbGluZWFyXzM4OTBfMjE1MTMiPiYjeGE7PHN0b3Agc3RvcC1jb2xvcj0iIzEzNDhGRiIvPiYjeGE7PHN0b3Agc3RvcC1jb2xvcj0iIzA2MjM4RCIgb2Zmc2V0PSIxIi8+JiN4YTs8L2xpbmVhckdyYWRpZW50PiYjeGE7PGxpbmVhckdyYWRpZW50IGdyYWRpZW50VW5pdHM9InVzZXJTcGFjZU9uVXNlIiB5Mj0iMTEuODc3MyIgeDI9IjEzLjI2MjciIHkxPSI4LjA3MDgyIiB4MT0iOC45MTU2NSIgaWQ9InBhaW50M19saW5lYXJfMzg5MF8yMTUxMyI+JiN4YTs8c3RvcCBzdG9wLWNvbG9yPSIjMTM0OEZGIi8+JiN4YTs8c3RvcCBzdG9wLWNvbG9yPSIjMDYyMzhEIiBvZmZzZXQ9IjEiLz4mI3hhOzwvbGluZWFyR3JhZGllbnQ+JiN4YTs8bGluZWFyR3JhZGllbnQgZ3JhZGllbnRVbml0cz0idXNlclNwYWNlT25Vc2UiIHkyPSIxMS44NzczIiB4Mj0iMTMuMjYyNyIgeTE9IjguMDcwODIiIHgxPSI4LjkxNTY1IiBpZD0icGFpbnQ0X2xpbmVhcl8zODkwXzIxNTEzIj4mI3hhOzxzdG9wIHN0b3AtY29sb3I9IiMxMzQ4RkYiLz4mI3hhOzxzdG9wIHN0b3AtY29sb3I9IiMwNjIzOEQiIG9mZnNldD0iMSIvPiYjeGE7PC9saW5lYXJHcmFkaWVudD4mI3hhOzwvZGVmcz4mI3hhOzwvc3ZnPg==;" parent="1" vertex="1">
          <mxGeometry x="924.4400000000003" y="644.5" width="32" height="32" as="geometry" />
        </mxCell>
        <mxCell id="aZ0MxrTqLQG-AXpiNajb-164" value="" style="shape=image;verticalLabelPosition=bottom;labelBackgroundColor=default;verticalAlign=top;aspect=fixed;imageAspect=0;image=data:image/svg+xml,PHN2ZyB4bWxucz0iaHR0cDovL3d3dy53My5vcmcvMjAwMC9zdmciIGZpbGw9Im5vbmUiIHZpZXdCb3g9IjAgMCAxNiAxNiIgaGVpZ2h0PSIxNiIgd2lkdGg9IjE2Ij4mI3hhOzxjaXJjbGUgc3Ryb2tlLXdpZHRoPSIwLjI4NTcwOCIgc3Ryb2tlPSIjRDVEQUREIiBmaWxsPSJ1cmwoI3BhaW50MF9saW5lYXJfMzg5MF8yMTUxNCkiIHI9IjcuODU2OTYiIGN5PSI3Ljk5Nzg2IiBjeD0iNy45OTg4NCIvPiYjeGE7PHBhdGggZmlsbD0idXJsKCNwYWludDFfbGluZWFyXzM4OTBfMjE1MTQpIiBkPSJNOS45NTE5NCA3LjUxODg5QzkuOTg5MjcgNy4yODAxNyAxMC4yMTMxIDcuMTE2OTEgMTAuNDUxOCA3LjE1NDI0QzExLjMwODMgNy4yODgxOSAxMi4xNTA3IDcuNjk1MzcgMTIuODQzNSA4LjM5MjA0QzEzLjAxMzkgOC41NjMzNiAxMy4wMTMxIDguODQwMzcgMTIuODQxOCA5LjAxMDc1QzEyLjY3MDUgOS4xODExNCAxMi4zOTM1IDkuMTgwMzcgMTIuMjIzMSA5LjAwOTA1QzExLjY2MjUgOC40NDUzNiAxMC45OTA1IDguMTI0MTIgMTAuMzE2NiA4LjAxODczQzEwLjA3NzkgNy45ODE0IDkuOTE0NjEgNy43NTc2MSA5Ljk1MTk0IDcuNTE4ODlaIiBjbGlwLXJ1bGU9ImV2ZW5vZGQiIGZpbGwtcnVsZT0iZXZlbm9kZCIvPiYjeGE7PHBhdGggZmlsbD0idXJsKCNwYWludDJfbGluZWFyXzM4OTBfMjE1MTQpIiBkPSJNMTAuMzM1NiAxMS4yNTQ5QzEwLjMzNTYgMTEuMDEzMyAxMC4xMzk3IDEwLjgxNzQgOS44OTgwOSAxMC44MTc0QzkuNjU2NDcgMTAuODE3NCA5LjQ2MDU5IDExLjAxMzMgOS40NjA1OSAxMS4yNTQ5QzkuNDYwNTkgMTEuNTk4NSA5LjU1MjY0IDExLjk2NDYgOS43MzYwMSAxMi4yNjA5QzkuNzU0OTQgMTIuMjkxNCA5Ljc3NDAxIDEyLjMyMTkgOS43OTY5NyAxMi4zNDkzQzkuOTM5MjIgMTIuNTE5NSAxMC4xOTY1IDEyLjU1ODEgMTAuMzgyMiAxMi40Mjk4QzEwLjU3OTkgMTIuMjkzMiAxMC42MzAyIDEyLjAyMjkgMTAuNDk1NiAxMS44MjQ0QzEwLjM5MDQgMTEuNjU4MyAxMC4zMzU2IDExLjQ1MDIgMTAuMzM1NiAxMS4yNTQ5WiIvPiYjeGE7PHBhdGggZmlsbD0idXJsKCNwYWludDNfbGluZWFyXzM4OTBfMjE1MTQpIiBkPSJNMTIuNjg3NSAxMC45ODQ3QzEyLjczMzUgOS44NTg1IDExLjg2NjIgOC45MTQzOCAxMC44NTY4IDguNTM1MjlDOS44MTExMiA4LjE0MjYgOC41MDMxNyA4LjMwNDQ2IDcuNTk3OTcgOS40ODIxNUM3LjQ1MDcyIDkuNjczNzIgNy40ODY2NiA5Ljk0ODM5IDcuNjc4MjMgMTAuMDk1NkM3Ljg2OTggMTAuMjQyOSA4LjE0NDQ3IDEwLjIwNyA4LjI5MTcyIDEwLjAxNTRDOC45Mjg4NyA5LjE4NjQzIDkuODA5NjQgOS4wNzY3MSAxMC41NDkxIDkuMzU0NDNDMTEuMzI0OCA5LjY0NTczIDExLjgzOTEgMTAuMzE0IDExLjgxMzIgMTAuOTQ5QzExLjgwODQgMTEuMDY3IDExLjc2ODYgMTEuMTI2OSAxMS43MzgxIDExLjE1NjdDMTEuNzAzNyAxMS4xOTA0IDExLjY1OTMgMTEuMjA3NCAxMS42MTcgMTEuMjA4MkMxMS41NzU1IDExLjIwOSAxMS41NDQ0IDExLjE5NDcgMTEuNTIzNyAxMS4xNzM5QzExLjUwNiAxMS4xNTYxIDExLjQ2NSAxMS4xMDI0IDExLjQ2NSAxMC45NjY5QzExLjQ2NSAxMC41OTI2IDExLjIyNzYgMTAuMTkxNiAxMC44ODMxIDkuOTMzMDhDMTAuNTEyMyA5LjY1NDcxIDkuOTg3NSA5LjUxMjU3IDkuMzcwODEgOS42ODI3M0w5LjM2MTc4IDkuNjg1MjJMOS4zNTI4NiA5LjY4ODA5QzguNzYyMzIgOS44Nzg1OSA4LjM4NTY1IDEwLjQzMDYgOC4zMDEwMSAxMS4wNzU1QzguMjE1NTQgMTEuNzI2OSA4LjQxNTY1IDEyLjQ5MzEgOC45Njc3MyAxMy4yMzgxQzkuMTExNTkgMTMuNDMyMiA5LjM4NTU4IDEzLjQ3MyA5LjU3OTcxIDEzLjMyOTFDOS43NzM4NSAxMy4xODUzIDkuODE0NiAxMi45MTEzIDkuNjcwNzQgMTIuNzE3MUM5LjIyNzMxIDEyLjExODggOS4xMTc5MyAxMS41NzUzIDkuMTY4NTggMTEuMTg5NEM5LjIxOTM2IDEwLjgwMjQgOS40MTk1NSAxMC41OSA5LjYxMzQ2IDEwLjUyMzVDOS45NTk4OCAxMC40MzA4IDEwLjIwMjIgMTAuNTE2IDEwLjM1NzkgMTAuNjMyOUMxMC40NDEzIDEwLjY5NTUgMTAuNTAzMyAxMC43NyAxMC41NDI4IDEwLjgzOTRDMTAuNTg0OCAxMC45MTE0IDEwLjU4ODMgMTAuOTQ4IDEwLjU5MDcgMTEuMDEyOEMxMC42MDAzIDExLjMyMjMgMTAuNzA3MSAxMS41OTM3IDEwLjkwMzQgMTEuNzkxMUMxMS4xMDYzIDExLjk5NSAxMS4zNzQxIDEyLjA4ODEgMTEuNjMzOSAxMi4wODNDMTIuMTY2NCAxMi4wNzI3IDEyLjY2IDExLjY1NjggMTIuNjg3NSAxMC45ODQ3WiIvPiYjeGE7PHBhdGggZmlsbD0idXJsKCNwYWludDRfbGluZWFyXzM4OTBfMjE1MTQpIiBkPSJNOC41NzMzMSA3LjI4NTg0QzguMzc4MDUgNy40ODExMSA4LjA2MTQ3IDcuNDgxMTEgNy44NjYyMSA3LjI4NTg1QzcuNjcwOTQgNy4wOTA1OSA3LjY3MDk0IDYuNzc0IDcuODY2MiA2LjU3ODc0TDguNTI5OCA1LjkxNTEzSDQuNTcwNzdDNC4yOTQ2MiA1LjkxNTEzIDQuMDcwNzcgNS42OTEyNyA0LjA3MDc3IDUuNDE1MTNDNC4wNzA3NyA1LjEzODk5IDQuMjk0NjIgNC45MTUxMyA0LjU3MDc3IDQuOTE1MTNIOC41Mjk4MUw3Ljg2NjIgNC4yNTE1QzcuNjcwOTQgNC4wNTYyMyA3LjY3MDk0IDMuNzM5NjUgNy44NjYyMSAzLjU0NDM5QzguMDYxNDcgMy4zNDkxMyA4LjM3ODA1IDMuMzQ5MTQgOC41NzMzMSAzLjU0NDRMMTAuMDkwNSA1LjA2MTU4QzEwLjI4NTcgNS4yNTY4NCAxMC4yODU3IDUuNTczNDIgMTAuMDkwNSA1Ljc2ODY4TDguNTczMzEgNy4yODU4NFoiLz4mI3hhOzxwYXRoIGZpbGw9InVybCgjcGFpbnQ1X2xpbmVhcl8zODkwXzIxNTE0KSIgZD0iTTQuNjYyNjEgNi43NzE2MkM0Ljg1Nzg3IDYuNTc2MzUgNS4xNzQ0NSA2LjU3NjM1IDUuMzY5NzIgNi43NzE2MUM1LjU2NDk4IDYuOTY2ODcgNS41NjQ5OCA3LjI4MzQ2IDUuMzY5NzIgNy40Nzg3Mkw0LjcwNjEyIDguMTQyMzNINi40MTIzOEM2LjY4ODUyIDguMTQyMzMgNi45MTIzOCA4LjM2NjE5IDYuOTEyMzggOC42NDIzM0M2LjkxMjM4IDguOTE4NDcgNi42ODg1MiA5LjE0MjMzIDYuNDEyMzggOS4xNDIzM0g0LjcwNjExTDUuMzY5NzIgOS44MDU5NkM1LjU2NDk4IDEwLjAwMTIgNS41NjQ5OCAxMC4zMTc4IDUuMzY5NzIgMTAuNTEzMUM1LjE3NDQ1IDEwLjcwODMgNC44NTc4NyAxMC43MDgzIDQuNjYyNjEgMTAuNTEzMUwzLjE0NTQ3IDguOTk1ODhDMi45NTAyMSA4LjgwMDYyIDIuOTUwMjEgOC40ODQwNCAzLjE0NTQ3IDguMjg4NzhMNC42NjI2MSA2Ljc3MTYyWiIvPiYjeGE7PGRlZnM+JiN4YTs8bGluZWFyR3JhZGllbnQgZ3JhZGllbnRVbml0cz0idXNlclNwYWNlT25Vc2UiIHkyPSIxNC43NDU4IiB4Mj0iMTMuNjg2OSIgeTE9IjIuMjY4OTQiIHgxPSIxLjQ0OTk1IiBpZD0icGFpbnQwX2xpbmVhcl8zODkwXzIxNTE0Ij4mI3hhOzxzdG9wIHN0b3AtY29sb3I9IndoaXRlIi8+JiN4YTs8c3RvcCBzdG9wLWNvbG9yPSIjRUFFQ0VFIiBvZmZzZXQ9IjEiLz4mI3hhOzwvbGluZWFyR3JhZGllbnQ+JiN4YTs8bGluZWFyR3JhZGllbnQgZ3JhZGllbnRVbml0cz0idXNlclNwYWNlT25Vc2UiIHkyPSIxMS44NzczIiB4Mj0iMTIuNjYyMSIgeTE9IjguMDcwODIiIHgxPSI4LjMxNTA2IiBpZD0icGFpbnQxX2xpbmVhcl8zODkwXzIxNTE0Ij4mI3hhOzxzdG9wIHN0b3AtY29sb3I9IiMxMzQ4RkYiLz4mI3hhOzxzdG9wIHN0b3AtY29sb3I9IiMwNjIzOEQiIG9mZnNldD0iMSIvPiYjeGE7PC9saW5lYXJHcmFkaWVudD4mI3hhOzxsaW5lYXJHcmFkaWVudCBncmFkaWVudFVuaXRzPSJ1c2VyU3BhY2VPblVzZSIgeTI9IjExLjg3NzMiIHgyPSIxMi42NjIxIiB5MT0iOC4wNzA4MiIgeDE9IjguMzE1MDYiIGlkPSJwYWludDJfbGluZWFyXzM4OTBfMjE1MTQiPiYjeGE7PHN0b3Agc3RvcC1jb2xvcj0iIzEzNDhGRiIvPiYjeGE7PHN0b3Agc3RvcC1jb2xvcj0iIzA2MjM4RCIgb2Zmc2V0PSIxIi8+JiN4YTs8L2xpbmVhckdyYWRpZW50PiYjeGE7PGxpbmVhckdyYWRpZW50IGdyYWRpZW50VW5pdHM9InVzZXJTcGFjZU9uVXNlIiB5Mj0iMTEuODc3MyIgeDI9IjEyLjY2MjEiIHkxPSI4LjA3MDgyIiB4MT0iOC4zMTUwNiIgaWQ9InBhaW50M19saW5lYXJfMzg5MF8yMTUxNCI+JiN4YTs8c3RvcCBzdG9wLWNvbG9yPSIjMTM0OEZGIi8+JiN4YTs8c3RvcCBzdG9wLWNvbG9yPSIjMDYyMzhEIiBvZmZzZXQ9IjEiLz4mI3hhOzwvbGluZWFyR3JhZGllbnQ+JiN4YTs8bGluZWFyR3JhZGllbnQgZ3JhZGllbnRVbml0cz0idXNlclNwYWNlT25Vc2UiIHkyPSI5LjU1MzU0IiB4Mj0iOS4xNjg1IiB5MT0iNC40ODM4NyIgeDE9IjQuMDg0MDEiIGlkPSJwYWludDRfbGluZWFyXzM4OTBfMjE1MTQiPiYjeGE7PHN0b3Agc3RvcC1jb2xvcj0iIzAxOTVGRiIvPiYjeGE7PHN0b3Agc3RvcC1jb2xvcj0iIzExNDdFOSIgb2Zmc2V0PSIwLjk5MTAyOCIvPiYjeGE7PC9saW5lYXJHcmFkaWVudD4mI3hhOzxsaW5lYXJHcmFkaWVudCBncmFkaWVudFVuaXRzPSJ1c2VyU3BhY2VPblVzZSIgeTI9IjkuNTUzNTQiIHgyPSI5LjE2ODUiIHkxPSI0LjQ4Mzg3IiB4MT0iNC4wODQwMSIgaWQ9InBhaW50NV9saW5lYXJfMzg5MF8yMTUxNCI+JiN4YTs8c3RvcCBzdG9wLWNvbG9yPSIjMDE5NUZGIi8+JiN4YTs8c3RvcCBzdG9wLWNvbG9yPSIjMTE0N0U5IiBvZmZzZXQ9IjAuOTkxMDI4Ii8+JiN4YTs8L2xpbmVhckdyYWRpZW50PiYjeGE7PC9kZWZzPiYjeGE7PC9zdmc+;" parent="1" vertex="1">
          <mxGeometry x="1009.44" y="644.5" width="32" height="32" as="geometry" />
        </mxCell>
        <mxCell id="aZ0MxrTqLQG-AXpiNajb-169" value="" style="endArrow=blockThin;html=1;strokeColor=#475E75;bendable=1;rounded=0;endFill=1;endSize=4;strokeWidth=1.5;startSize=4;exitX=0.987;exitY=0.408;exitDx=0;exitDy=0;exitPerimeter=0;entryX=0;entryY=0.5;entryDx=0;entryDy=0;entryPerimeter=0;" parent="1" edge="1">
          <mxGeometry width="50" height="50" relative="1" as="geometry">
            <mxPoint x="459.44" y="497" as="sourcePoint" />
            <mxPoint x="586.44" y="497" as="targetPoint" />
          </mxGeometry>
        </mxCell>
        <mxCell id="i5Ugfd166CEYFusr1dS5-23" value="&lt;p style=&quot;line-height: 100%;&quot;&gt;&lt;b&gt;&lt;font face=&quot;arial black&quot; style=&quot;font-size: 16px;&quot; color=&quot;#ffffff&quot;&gt;1&lt;/font&gt;&lt;/b&gt;&lt;/p&gt;" style="ellipse;whiteSpace=wrap;html=1;aspect=fixed;rotation=0;gradientColor=#0057D2;strokeColor=none;gradientDirection=east;fillColor=#2395FF;rounded=0;pointerEvents=0;fontFamily=Helvetica;fontSize=12;fontColor=default;spacingTop=4;spacingBottom=4;spacingLeft=4;spacingRight=4;" parent="1" vertex="1">
          <mxGeometry x="498.44" y="463" width="30" height="30" as="geometry" />
        </mxCell>
        <mxCell id="mYb0OIEfCtn2UmpUFE31-3" value="&lt;p style=&quot;line-height: 100%;&quot;&gt;&lt;b&gt;&lt;font face=&quot;arial black&quot; style=&quot;font-size: 16px;&quot; color=&quot;#ffffff&quot;&gt;4&lt;/font&gt;&lt;/b&gt;&lt;/p&gt;" style="ellipse;whiteSpace=wrap;html=1;aspect=fixed;rotation=0;gradientColor=#0057D2;strokeColor=none;gradientDirection=east;fillColor=#2395FF;rounded=0;pointerEvents=0;fontFamily=Helvetica;fontSize=12;fontColor=default;spacingTop=4;spacingBottom=4;spacingLeft=4;spacingRight=4;" parent="1" vertex="1">
          <mxGeometry x="872.44" y="252.75" width="30" height="30" as="geometry" />
        </mxCell>
        <mxCell id="mYb0OIEfCtn2UmpUFE31-4" value="&lt;p style=&quot;line-height: 100%;&quot;&gt;&lt;b&gt;&lt;font face=&quot;arial black&quot; style=&quot;font-size: 16px;&quot; color=&quot;#ffffff&quot;&gt;5&lt;/font&gt;&lt;/b&gt;&lt;/p&gt;" style="ellipse;whiteSpace=wrap;html=1;aspect=fixed;rotation=0;gradientColor=#0057D2;strokeColor=none;gradientDirection=east;fillColor=#2395FF;rounded=0;pointerEvents=0;fontFamily=Helvetica;fontSize=12;fontColor=default;spacingTop=4;spacingBottom=4;spacingLeft=4;spacingRight=4;" parent="1" vertex="1">
          <mxGeometry x="1366" y="191.75" width="30" height="30" as="geometry" />
        </mxCell>
        <mxCell id="GyjTEhcaRAmpPdTnbKXX-291" value="" style="group" parent="1" vertex="1" connectable="0">
          <mxGeometry x="1282.19" y="385" width="110" height="78" as="geometry" />
        </mxCell>
        <mxCell id="GyjTEhcaRAmpPdTnbKXX-292" value="SAP Destination&#xa;service" style="shape=image;verticalLabelPosition=bottom;verticalAlign=top;imageAspect=0;aspect=fixed;image=data:image/svg+xml,PHN2ZyB4bWxucz0iaHR0cDovL3d3dy53My5vcmcvMjAwMC9zdmciIGZpbGw9Im5vbmUiIHZpZXdCb3g9IjAgMCAxNiAxNiIgaGVpZ2h0PSIxNiIgd2lkdGg9IjE2Ij4mI3hhOzxjaXJjbGUgc3Ryb2tlLXdpZHRoPSIwLjI4NTcwOCIgc3Ryb2tlPSIjRDVEQUREIiBmaWxsPSJ1cmwoI3BhaW50MF9saW5lYXJfMzUxNF80MDIwNSkiIHI9IjcuODU2OTYiIGN5PSI3Ljk5OTA4IiBjeD0iNy45OTgzNSIvPiYjeGE7PGcgY2xpcC1wYXRoPSJ1cmwoI2NsaXAwXzM1MTRfNDAyMDUpIj4mI3hhOzxwYXRoIGZpbGw9InVybCgjcGFpbnQxX2xpbmVhcl8zNTE0XzQwMjA1KSIgZD0iTTEwLjAwMjUgMy4yMTY4SDcuMzQ2MTlDNy4yNDY3NiAzLjIxNjggNy4xNTE0IDMuMjU2MyA3LjA4MTA5IDMuMzI2NjFDNy4wMTA3OCAzLjM5NjkyIDYuOTcxMjggMy40OTIyOCA2Ljk3MTI4IDMuNTkxNzFWNC45MDc4NkM2Ljk3MTI4IDUuMjE1MzMgNi44NjE0NyA1LjQ3ODg3IDYuNjQxODUgNS42OTg0OUM2LjQyMjIzIDUuOTE4MTEgNi4xNTg2OSA2LjAyNzkyIDUuODUxMjIgNi4wMjc5Mkg0LjUzNTA3QzQuNDM1NjQgNi4wMjc5MiA0LjM0MDI4IDYuMDY3NDIgNC4yNjk5NyA2LjEzNzczQzQuMTk5NjYgNi4yMDgwNCA0LjE2MDE2IDYuMzAzNCA0LjE2MDE2IDYuNDAyODNWMTEuMjk5MkM0LjE2MDE2IDExLjc5NjMgNC41NjMxIDEyLjE5OTIgNS4wNjAxNiAxMi4xOTkySDcuMzk4OUM3LjIzMDIgMTIuMDMxMiA3LjA3NjM2IDExLjg0ODMgNi45Mzk1MSAxMS42NTI2QzYuODMyNjkgMTEuNDk5OCA2Ljg2OTk0IDExLjI4OTQgNy4wMjI2OSAxMS4xODI2QzcuMTc1NDUgMTEuMDc1OCA3LjM4NTg3IDExLjExMyA3LjQ5MjY4IDExLjI2NThDNy43MTc5NSAxMS41ODc5IDcuOTk4NjEgMTEuODY4NiA4LjMyMDc2IDEyLjA5MzhDOC4zNjE4IDEyLjEyMjUgOC4zOTQ0OSAxMi4xNTg3IDguNDE4MyAxMi4xOTkySDEwLjAwMjVDMTAuNDIxNCAxMi4xOTkyIDEwLjc3MzUgMTEuOTEzIDEwLjg3MzggMTEuNTI1NEMxMC43NDUgMTEuNTQ5IDEwLjYxMjEgMTEuNTYwOCAxMC40NzU2IDExLjU2MDhIMTAuMDE0MkM5Ljc1NDIgMTEuNTYwOCA5LjUzMTk0IDExLjQ1MTkgOS4zNjU3NSAxMS4yODU3QzkuMjI5NjggMTEuMTQ5NyA5LjE0MjQ0IDEwLjk4MDkgOS4xMTIzOSAxMC43OTQ2TDguNzUwNTMgMTAuNzk4NkM4LjUxNTcyIDEwLjc5ODYgOC4yNzg1NyAxMC43MjAxIDguMDkyMDIgMTAuNTMzNUM3LjkwNTQ3IDEwLjM0NyA3LjgyNjk3IDEwLjEwOTggNy44MjY5NyA5Ljg3NTAzQzcuODI2OTcgOS42OTgzMyA3Ljg3MTQyIDkuNTIwMzIgNy45NzI5MSA5LjM2MzUzQzcuODcxNDIgOS4yMDY3NCA3LjgyNjk3IDkuMDI4NzIgNy44MjY5NyA4Ljg1MjAzQzcuODI2OTcgOC42MTcyMiA3LjkwNTQ3IDguMzgwMDcgOC4wOTIwMiA4LjE5MzUyQzguMjgzMTkgOC4wMDIzNCA4LjUyNDc3IDcuOTM4NSA4Ljc0MDUgNy45Mzg1TDkuMTEzNDUgNy45Mzg1QzkuMTQyNCA3Ljc1ODg4IDkuMjIxOTkgNy41ODUwNyA5LjM2NTc1IDcuNDQxMzJDOS41NDI0NiA3LjI2NDYgOS43NzQ3OSA3LjE2NzE4IDEwLjAzMTIgNy4xNzU5OEwxMC40NjkzIDcuMTY2MjRIMTAuNDc1NkMxMC42MjIxIDcuMTY2MjQgMTAuNzY0NyA3LjE3OTI3IDEwLjkwMjUgNy4yMDU4MVY2LjA2NzYxQzEwLjg3NTEgNi4wNjk2IDEwLjg0NzEgNi4wNjgyOCAxMC44MTg5IDYuMDYzMjlDMTAuNjI4OSA2LjAyOTcxIDEwLjQzMzIgNi4wMTIxNiAxMC4yMzMxIDYuMDEyMTZDMTAuMDMyOSA2LjAxMjE2IDkuODM3MTcgNi4wMjk3MSA5LjY0NzE4IDYuMDYzMjlDOS40NjM2MyA2LjA5NTczIDkuMjg4NTQgNS45NzMyMyA5LjI1NjEgNS43ODk2OEM5LjIyMzY2IDUuNjA2MTMgOS4zNDYxNiA1LjQzMTAzIDkuNTI5NzEgNS4zOTg1OUM5Ljc1ODMxIDUuMzU4MTkgOS45OTMzNiA1LjMzNzE2IDEwLjIzMzEgNS4zMzcxNkMxMC40NjA5IDUuMzM3MTYgMTAuNjg0NiA1LjM1NjE3IDEwLjkwMjUgNS4zOTI3NVY0LjExNjhDMTAuOTAyNSAzLjYxOTc0IDEwLjQ5OTUgMy4yMTY4IDEwLjAwMjUgMy4yMTY4Wk04LjQwMzk1IDYuMTQzMTFDOC41MTA3NiA2LjI5NTg2IDguNDczNTIgNi41MDYyOCA4LjMyMDc2IDYuNjEzMUM3Ljk5ODYxIDYuODM4MzcgNy43MTc5NSA3LjExOTAyIDcuNDkyNjggNy40NDExOEM3LjM4NTg3IDcuNTkzOTMgNy4xNzU0NSA3LjYzMTE4IDcuMDIyNjkgNy41MjQzNkM2Ljg2OTk0IDcuNDE3NTUgNi44MzI2OSA3LjIwNzEzIDYuOTM5NTEgNy4wNTQzN0M3LjIxMDA2IDYuNjY3NDUgNy41NDcwMyA2LjMzMDQ4IDcuOTMzOTUgNi4wNTk5MkM4LjA4NjcxIDUuOTUzMTEgOC4yOTcxMyA1Ljk5MDM1IDguNDAzOTUgNi4xNDMxMVpNNi42NjkyNyA4LjM3NjUxQzYuODUyODIgOC40MDg5NSA2Ljk3NTMyIDguNTg0MDUgNi45NDI4OCA4Ljc2NzZDNi45MDkzIDguOTU3NTkgNi44OTE3NSA5LjE1MzM0IDYuODkxNzUgOS4zNTM0N0M2Ljg5MTc1IDkuNTUzNiA2LjkwOTMgOS43NDkzNSA2Ljk0Mjg4IDkuOTM5MzRDNi45NzUzMiAxMC4xMjI5IDYuODUyODIgMTAuMjk4IDYuNjY5MjcgMTAuMzMwNEM2LjQ4NTcyIDEwLjM2MjkgNi4zMTA2MiAxMC4yNDA0IDYuMjc4MTggMTAuMDU2OEM2LjIzNzc4IDkuODI4MjEgNi4yMTY3NSA5LjU5MzE2IDYuMjE2NzUgOS4zNTM0N0M2LjIxNjc1IDkuMTEzNzggNi4yMzc3OCA4Ljg3ODczIDYuMjc4MTggOC42NTAxM0M2LjMxMDYyIDguNDY2NTcgNi40ODU3MiA4LjM0NDA3IDYuNjY5MjcgOC4zNzY1MVoiIGNsaXAtcnVsZT0iZXZlbm9kZCIgZmlsbC1ydWxlPSJldmVub2RkIi8+JiN4YTs8cGF0aCBmaWxsPSJ1cmwoI3BhaW50Ml9saW5lYXJfMzUxNF80MDIwNSkiIGQ9Ik04LjQ4OTk0IDguNTkxMjlDOC40MjMwOCA4LjY1ODE1IDguMzg5NjUgOC43NDUwNyA4LjM4OTY1IDguODUyMDVDOC4zODk2NSA4Ljk1OTAzIDguNDIzMDggOS4wNDU5NSA4LjQ4OTk0IDkuMTEyODFDOC41NTY4MSA5LjE3OTY4IDguNjQzNzMgOS4yMTMxMSA4Ljc1MDcxIDkuMjEzMTFMOS42NjMzOCA5LjIwMzA4TDkuNjYzMzggOS41MjQwMkw4Ljc1MDcxIDkuNTEzOTlDOC42NDM3MyA5LjUxMzk5IDguNTU2ODEgOS41NDc0MiA4LjQ4OTk0IDkuNjE0MjhDOC40MjMwOCA5LjY4MTE1IDguMzg5NjUgOS43NjgwNyA4LjM4OTY1IDkuODc1MDVDOC4zODk2NSA5Ljk4MjAzIDguNDIzMDggMTAuMDY4OSA4LjQ4OTk0IDEwLjEzNThDOC41NTY4MSAxMC4yMDI3IDguNjQzNzMgMTAuMjM2MSA4Ljc1MDcxIDEwLjIzNjFMOS42NjMzOCAxMC4yMjYxVjEwLjY0NzNDOS42NjMzOCAxMC43NDA5IDkuNjk2ODEgMTAuODIxMiA5Ljc2MzY3IDEwLjg4OEM5LjgzNzIyIDEwLjk2MTYgOS45MjA4IDEwLjk5ODMgMTAuMDE0NCAxMC45OTgzSDEwLjQ3NThDMTAuODYzNiAxMC45OTgzIDExLjE5NDUgMTAuODc0NiAxMS40Njg3IDEwLjYyNzNDMTEuNzQyOCAxMC4zNzk5IDExLjg5OTkgMTAuMDY4OSAxMS45NCA5LjY5NDUyTDEyLjg0MTMgOS42OTQ1MUMxMi45NDgzIDkuNjk0NTEgMTMuMDM1MiA5LjY2MTA4IDEzLjEwMjEgOS41OTQyMUMxMy4xNjIzIDkuNTM0MDQgMTMuMTkyNCA5LjQ1MDQ2IDEzLjE5MjQgOS4zNDM0OEMxMy4xOTI0IDkuMjM2NSAxMy4xNTg5IDkuMTQ5NTggMTMuMDkyMSA5LjA4MjcyQzEzLjAyNTIgOS4wMTU4NSAxMi45MzgzIDguOTgyNDIgMTIuODMxMyA4Ljk4MjQyTDExLjkzIDguOTgyNDNDMTEuODc2NSA4LjYyMTM3IDExLjcxNjEgOC4zMjA0OSAxMS40NDg2IDguMDc5NzlDMTEuMTg3OCA3Ljg0NTc3IDEwLjg2MzYgNy43Mjg3NiAxMC40NzU4IDcuNzI4NzZMMTAuMDI0NCA3LjczODc5QzkuOTI0MTQgNy43MzIxIDkuODM3MjIgNy43NjU1MyA5Ljc2MzY3IDcuODM5MDhDOS42OTY4MSA3LjkwNTk1IDkuNjYzMzggNy45OTI4NyA5LjY2MzM4IDguMDk5ODVMOS42NjMzOCA4LjUwMTAyTDguNzQwNjggOC41MDEwMkM4LjYzMzcgOC41MDEwMiA4LjU1MDEyIDguNTMxMTEgOC40ODk5NCA4LjU5MTI5WiIvPiYjeGE7PHBhdGggZmlsbD0idXJsKCNwYWludDNfbGluZWFyXzM1MTRfNDAyMDUpIiBkPSJNNi41NTQzMSA0Ljg1MTM4VjMuODUzNTJMNC43OTY4OCA1LjYxMDk1SDUuNzk0NzRDNi4wMDMyNSA1LjYxMDk1IDYuMTgxOTcgNS41MzY0OCA2LjMzMDkxIDUuMzg3NTVDNi40Nzk4NCA1LjIzODYxIDYuNTU0MzEgNS4wNTk4OSA2LjU1NDMxIDQuODUxMzhaIi8+JiN4YTs8L2c+JiN4YTs8ZGVmcz4mI3hhOzxsaW5lYXJHcmFkaWVudCBncmFkaWVudFVuaXRzPSJ1c2VyU3BhY2VPblVzZSIgeTI9IjE0Ljc0NyIgeDI9IjEzLjY4NjQiIHkxPSIyLjI3MDE2IiB4MT0iMS40NDk0NiIgaWQ9InBhaW50MF9saW5lYXJfMzUxNF80MDIwNSI+JiN4YTs8c3RvcCBzdG9wLWNvbG9yPSJ3aGl0ZSIvPiYjeGE7PHN0b3Agc3RvcC1jb2xvcj0iI0VBRUNFRSIgb2Zmc2V0PSIxIi8+JiN4YTs8L2xpbmVhckdyYWRpZW50PiYjeGE7PGxpbmVhckdyYWRpZW50IGdyYWRpZW50VW5pdHM9InVzZXJTcGFjZU9uVXNlIiB5Mj0iOS4wOTUyMSIgeDI9IjExLjIxMDciIHkxPSI0LjU2MDA2IiB4MT0iNS4xNzA4NiIgaWQ9InBhaW50MV9saW5lYXJfMzUxNF80MDIwNSI+JiN4YTs8c3RvcCBzdG9wLWNvbG9yPSIjMDE5NUZGIi8+JiN4YTs8c3RvcCBzdG9wLWNvbG9yPSIjMTE0N0U5IiBvZmZzZXQ9IjAuOTkxMDI4Ii8+JiN4YTs8L2xpbmVhckdyYWRpZW50PiYjeGE7PGxpbmVhckdyYWRpZW50IGdyYWRpZW50VW5pdHM9InVzZXJTcGFjZU9uVXNlIiB5Mj0iMTEuMzQ1NCIgeDI9IjExLjIyNTIiIHkxPSI4LjIwOTc5IiB4MT0iOS4wOTk3IiBpZD0icGFpbnQyX2xpbmVhcl8zNTE0XzQwMjA1Ij4mI3hhOzxzdG9wIHN0b3AtY29sb3I9IiMxMzQ4RkYiLz4mI3hhOzxzdG9wIHN0b3AtY29sb3I9IiMwNjIzOEQiIG9mZnNldD0iMSIvPiYjeGE7PC9saW5lYXJHcmFkaWVudD4mI3hhOzxsaW5lYXJHcmFkaWVudCBncmFkaWVudFVuaXRzPSJ1c2VyU3BhY2VPblVzZSIgeTI9IjUuMzQ3MzEiIHgyPSI2LjI4NjYzIiB5MT0iNC4xMTIwNyIgeDE9IjUuMDU2NyIgaWQ9InBhaW50M19saW5lYXJfMzUxNF80MDIwNSI+JiN4YTs8c3RvcCBzdG9wLWNvbG9yPSIjMTM0OEZGIi8+JiN4YTs8c3RvcCBzdG9wLWNvbG9yPSIjMDYyMzhEIiBvZmZzZXQ9IjEiLz4mI3hhOzwvbGluZWFyR3JhZGllbnQ+JiN4YTs8Y2xpcFBhdGggaWQ9ImNsaXAwXzM1MTRfNDAyMDUiPiYjeGE7PHJlY3QgdHJhbnNmb3JtPSJ0cmFuc2xhdGUoNC4xOTg0OSAzLjE5OTIyKSIgZmlsbD0id2hpdGUiIGhlaWdodD0iOSIgd2lkdGg9IjkiLz4mI3hhOzwvY2xpcFBhdGg+JiN4YTs8L2RlZnM+JiN4YTs8L3N2Zz4=;points=[[0,0,0,0,0],[0,0.25,0,0,0],[0,0.5,0,0,0],[0,0.75,0,0,0],[0.25,0,0,0,0],[0.5,0,0,0,0],[0.75,0,0,0,0],[1,0,0,0,0],[1,0.25,0,0,0],[1,0.5,0,0,0],[1,0.75,0,0,0]];labelBackgroundColor=default;" parent="GyjTEhcaRAmpPdTnbKXX-291" vertex="1">
          <mxGeometry x="37.5" width="32" height="32" as="geometry" />
        </mxCell>
        <mxCell id="NNhpY-dIR3qiy-xcSVZ_-1" value="" style="endArrow=blockThin;html=1;strokeColor=#475e75;bendable=1;rounded=0;endFill=1;endSize=4;strokeWidth=1.5;startSize=4;startArrow=none;startFill=0;" parent="1" edge="1">
          <mxGeometry width="50" height="50" relative="1" as="geometry">
            <mxPoint x="798.44" y="290.64" as="sourcePoint" />
            <mxPoint x="968.44" y="290" as="targetPoint" />
            <Array as="points" />
          </mxGeometry>
        </mxCell>
        <mxCell id="NNhpY-dIR3qiy-xcSVZ_-2" value="" style="endArrow=blockThin;html=1;strokeColor=#475e75;bendable=1;rounded=0;endFill=1;endSize=4;strokeWidth=1.5;startSize=4;startArrow=none;startFill=0;" parent="1" edge="1">
          <mxGeometry width="50" height="50" relative="1" as="geometry">
            <mxPoint x="797.94" y="366.31999999999994" as="sourcePoint" />
            <mxPoint x="868.44" y="366" as="targetPoint" />
            <Array as="points" />
          </mxGeometry>
        </mxCell>
        <mxCell id="NNhpY-dIR3qiy-xcSVZ_-3" style="edgeStyle=orthogonalEdgeStyle;rounded=0;orthogonalLoop=1;jettySize=auto;html=1;fontSize=18;strokeColor=#475E75;fontFamily=Helvetica;fontColor=default;targetPerimeterSpacing=15;endSize=4;startSize=4;endArrow=blockThin;endFill=1;strokeWidth=1.5;startArrow=none;startFill=0;entryX=0;entryY=0.5;entryDx=0;entryDy=0;entryPerimeter=0;" parent="1" target="GyjTEhcaRAmpPdTnbKXX-292" edge="1">
          <mxGeometry relative="1" as="geometry">
            <mxPoint x="1255.94" y="308.53" as="targetPoint" />
            <mxPoint x="1218.44" y="289" as="sourcePoint" />
            <Array as="points">
              <mxPoint x="1258.44" y="289" />
              <mxPoint x="1258.44" y="401" />
            </Array>
          </mxGeometry>
        </mxCell>
        <mxCell id="NNhpY-dIR3qiy-xcSVZ_-6" value="" style="rounded=1;whiteSpace=wrap;html=1;strokeColor=#cc00dc;fillColor=#FFF0FA;arcSize=24;absoluteArcSize=1;imageWidth=64;imageHeight=64;strokeWidth=1.5;fontFamily=Arial;" parent="1" vertex="1">
          <mxGeometry x="978.44" y="259" width="260" height="130.14" as="geometry" />
        </mxCell>
        <mxCell id="NNhpY-dIR3qiy-xcSVZ_-9" value="&lt;span style=&quot;font-style: normal; font-variant-ligatures: normal; font-variant-caps: normal; letter-spacing: normal; orphans: 2; text-indent: 0px; text-transform: none; widows: 2; word-spacing: 0px; -webkit-text-stroke-width: 0px; text-decoration-thickness: initial; text-decoration-style: initial; text-decoration-color: initial; float: none; display: inline !important;&quot;&gt;&lt;b style=&quot;&quot;&gt;&lt;font style=&quot;font-size: 12px;&quot; color=&quot;#1d2d3e&quot;&gt;Events-To-Business Actions Framework&lt;/font&gt;&lt;/b&gt;&lt;/span&gt;&lt;div style=&quot;&quot;&gt;&lt;font color=&quot;#1d2d3e&quot;&gt;&lt;b&gt;(Node.js Application)&lt;/b&gt;&lt;/font&gt;&lt;/div&gt;" style="text;whiteSpace=wrap;html=1;fontFamily=Arial;align=left;" parent="1" vertex="1">
          <mxGeometry x="982.44" y="259" width="245" height="35" as="geometry" />
        </mxCell>
        <mxCell id="NNhpY-dIR3qiy-xcSVZ_-10" value="" style="rounded=1;whiteSpace=wrap;html=1;fillColor=#FFFFFF;align=center;verticalAlign=middle;strokeColor=#0070f2;fontColor=default;strokeWidth=1.5;arcSize=24;fontStyle=1;spacingTop=0;spacingLeft=0;spacing=8;imageWidth=64;imageHeight=64;absoluteArcSize=1;fontFamily=Arial;" parent="1" vertex="1">
          <mxGeometry x="988.44" y="299" width="240" height="80" as="geometry" />
        </mxCell>
        <mxCell id="NNhpY-dIR3qiy-xcSVZ_-7" value="&lt;span style=&quot;font-style: normal; font-variant-ligatures: normal; font-variant-caps: normal; letter-spacing: normal; orphans: 2; text-align: center; text-indent: 0px; text-transform: none; widows: 2; word-spacing: 0px; -webkit-text-stroke-width: 0px; text-decoration-thickness: initial; text-decoration-style: initial; text-decoration-color: initial; float: none; display: inline !important; font-weight: normal;&quot;&gt;&lt;font style=&quot;font-size: 14px;&quot; color=&quot;#1d2d3e&quot;&gt;&amp;nbsp;Application Service&lt;/font&gt;&lt;/span&gt;" style="text;whiteSpace=wrap;html=1;fontStyle=1;fontColor=#595959;fontFamily=Arial;" parent="1" vertex="1">
          <mxGeometry x="988.44" y="297" width="155" height="20" as="geometry" />
        </mxCell>
        <mxCell id="NNhpY-dIR3qiy-xcSVZ_-8" value="&lt;font style=&quot;font-weight: normal;&quot; color=&quot;#1d2d3e&quot;&gt;Modeller App&lt;/font&gt;" style="rounded=1;whiteSpace=wrap;html=1;fillColor=#FFEAF4;strokeColor=none;strokeWidth=1.5;arcSize=16;fontStyle=1;spacingTop=0;spacingLeft=0;spacing=8;imageWidth=64;imageHeight=64;absoluteArcSize=1;fontFamily=Helvetica;align=center;verticalAlign=middle;fontSize=12;" parent="1" vertex="1">
          <mxGeometry x="997.44" y="326" width="107.0864" height="20" as="geometry" />
        </mxCell>
        <mxCell id="NNhpY-dIR3qiy-xcSVZ_-24" value="" style="endArrow=blockThin;html=1;rounded=0;entryX=0.5;entryY=1;entryDx=0;entryDy=0;strokeColor=#cc00dc;strokeWidth=1.5;endFill=1;endSize=4;startSize=4;" parent="1" source="NNhpY-dIR3qiy-xcSVZ_-23" target="NNhpY-dIR3qiy-xcSVZ_-6" edge="1">
          <mxGeometry width="50" height="50" relative="1" as="geometry">
            <mxPoint x="1108.44" y="409" as="sourcePoint" />
            <mxPoint x="1108.69" y="392.69000000000005" as="targetPoint" />
          </mxGeometry>
        </mxCell>
        <mxCell id="NNhpY-dIR3qiy-xcSVZ_-31" value="" style="endArrow=blockThin;html=1;strokeColor=#475e75;bendable=1;rounded=0;endFill=1;endSize=4;strokeWidth=1.5;startSize=4;startArrow=none;startFill=0;entryX=0.5;entryY=0;entryDx=0;entryDy=0;entryPerimeter=0;" parent="1" target="NNhpY-dIR3qiy-xcSVZ_-26" edge="1">
          <mxGeometry width="50" height="50" relative="1" as="geometry">
            <mxPoint x="994.44" y="389.14" as="sourcePoint" />
            <mxPoint x="994.6400000000003" y="429.08725000000015" as="targetPoint" />
            <Array as="points" />
          </mxGeometry>
        </mxCell>
        <mxCell id="NNhpY-dIR3qiy-xcSVZ_-32" value="" style="endArrow=blockThin;html=1;strokeColor=#475e75;bendable=1;rounded=0;endFill=1;endSize=4;strokeWidth=1.5;startSize=4;startArrow=none;startFill=0;entryX=0.518;entryY=-0.078;entryDx=0;entryDy=0;entryPerimeter=0;" parent="1" target="NNhpY-dIR3qiy-xcSVZ_-29" edge="1">
          <mxGeometry width="50" height="50" relative="1" as="geometry">
            <mxPoint x="1219.94" y="389.33000000000004" as="sourcePoint" />
            <mxPoint x="1220.94" y="435.19000000000005" as="targetPoint" />
            <Array as="points" />
          </mxGeometry>
        </mxCell>
        <mxCell id="NNhpY-dIR3qiy-xcSVZ_-37" value="" style="endArrow=blockThin;html=1;rounded=0;entryX=0.5;entryY=1;entryDx=0;entryDy=0;strokeColor=#cc00dc;strokeWidth=1.5;endFill=1;endSize=4;startSize=4;" parent="1" target="NNhpY-dIR3qiy-xcSVZ_-23" edge="1">
          <mxGeometry width="50" height="50" relative="1" as="geometry">
            <mxPoint x="1108.44" y="409" as="sourcePoint" />
            <mxPoint x="1108.69" y="392.69000000000005" as="targetPoint" />
          </mxGeometry>
        </mxCell>
        <mxCell id="NNhpY-dIR3qiy-xcSVZ_-42" value="" style="endArrow=none;html=1;strokeColor=#475e75;bendable=1;rounded=0;endFill=0;startArrow=none;startFill=0;jumpStyle=none;jumpSize=0;targetPerimeterSpacing=15;strokeWidth=1.5;" parent="1" edge="1">
          <mxGeometry width="50" height="50" relative="1" as="geometry">
            <mxPoint x="619.44" y="366" as="sourcePoint" />
            <mxPoint x="619.44" y="434" as="targetPoint" />
          </mxGeometry>
        </mxCell>
        <mxCell id="NNhpY-dIR3qiy-xcSVZ_-50" value="" style="endArrow=blockThin;html=1;strokeColor=#475e75;bendable=1;rounded=0;endFill=1;endSize=4;strokeWidth=1.5;startSize=4;startArrow=none;startFill=0;entryX=0.5;entryY=0;entryDx=0;entryDy=0;exitX=0.5;exitY=1.133;exitDx=0;exitDy=0;exitPerimeter=0;" parent="1" source="h3HDSwAOCUgEGLx8BBcW-14" target="NNhpY-dIR3qiy-xcSVZ_-6" edge="1">
          <mxGeometry width="50" height="50" relative="1" as="geometry">
            <mxPoint x="1120.1100000000001" y="227" as="sourcePoint" />
            <mxPoint x="1120.3100000000002" y="256.93399999999997" as="targetPoint" />
            <Array as="points" />
          </mxGeometry>
        </mxCell>
        <mxCell id="lZODZxnkbnghFLNg79PO-38" value="" style="group" parent="1" vertex="1" connectable="0">
          <mxGeometry x="408.44" y="81" width="221" height="360" as="geometry" />
        </mxCell>
        <mxCell id="lZODZxnkbnghFLNg79PO-11" value="" style="rounded=1;whiteSpace=wrap;html=1;strokeColor=#475E75;fillColor=#F5F6F7;arcSize=24;absoluteArcSize=1;imageWidth=64;imageHeight=64;strokeWidth=1.5;" parent="lZODZxnkbnghFLNg79PO-38" vertex="1">
          <mxGeometry width="220" height="360" as="geometry" />
        </mxCell>
        <mxCell id="lZODZxnkbnghFLNg79PO-12" value="" style="rounded=1;whiteSpace=wrap;html=1;strokeColor=#475E75;fillColor=#ffffff;arcSize=24;absoluteArcSize=1;imageWidth=64;imageHeight=64;strokeWidth=1.5;" parent="lZODZxnkbnghFLNg79PO-38" vertex="1">
          <mxGeometry x="20" y="45" width="180" height="145" as="geometry" />
        </mxCell>
        <mxCell id="lZODZxnkbnghFLNg79PO-13" value="&lt;font face=&quot;arial&quot; style=&quot;font-size: 16px;&quot;&gt;&lt;b style=&quot;font-size: 16px;&quot;&gt;Event Producer Systems&lt;/b&gt;&lt;/font&gt;" style="text;html=1;align=left;verticalAlign=middle;resizable=0;points=[];autosize=1;strokeColor=none;fillColor=none;fontSize=12;fontColor=#1d2d3e;fontFamily=Helvetica;" parent="lZODZxnkbnghFLNg79PO-38" vertex="1">
          <mxGeometry x="11" y="6" width="210" height="30" as="geometry" />
        </mxCell>
        <mxCell id="lZODZxnkbnghFLNg79PO-16" value="&lt;font color=&quot;#1d2d3e&quot; size=&quot;1&quot; face=&quot;arial&quot; style=&quot;&quot;&gt;&lt;span style=&quot;font-size: 14px;&quot;&gt;IoT Platforms&lt;/span&gt;&lt;/font&gt;&lt;div&gt;&lt;font color=&quot;#1d2d3e&quot; size=&quot;1&quot; face=&quot;arial&quot; style=&quot;&quot;&gt;&lt;b style=&quot;font-size: 14px;&quot;&gt;&lt;br&gt;&lt;/b&gt;&lt;/font&gt;&lt;/div&gt;" style="text;html=1;align=left;verticalAlign=middle;resizable=0;points=[];autosize=1;strokeColor=none;fillColor=none;fontSize=12;fontColor=default;fontFamily=Helvetica;" parent="lZODZxnkbnghFLNg79PO-38" vertex="1">
          <mxGeometry x="30" y="50" width="110" height="50" as="geometry" />
        </mxCell>
        <mxCell id="lZODZxnkbnghFLNg79PO-22" value="Other IoT Plaforms" style="rounded=1;whiteSpace=wrap;html=1;strokeColor=#475E75;fillColor=#F5F6F7;arcSize=24;absoluteArcSize=1;imageWidth=64;imageHeight=64;strokeWidth=1.5;" parent="lZODZxnkbnghFLNg79PO-38" vertex="1">
          <mxGeometry x="30" y="140" width="160" height="34" as="geometry" />
        </mxCell>
        <mxCell id="lZODZxnkbnghFLNg79PO-23" value="" style="rounded=1;whiteSpace=wrap;html=1;strokeColor=#475E75;fillColor=#ffffff;arcSize=24;absoluteArcSize=1;imageWidth=64;imageHeight=64;strokeWidth=1.5;" parent="lZODZxnkbnghFLNg79PO-38" vertex="1">
          <mxGeometry x="20" y="200" width="180" height="150" as="geometry" />
        </mxCell>
        <mxCell id="lZODZxnkbnghFLNg79PO-24" value="&lt;font color=&quot;#1d2d3e&quot; size=&quot;1&quot; face=&quot;arial&quot; style=&quot;&quot;&gt;&lt;span style=&quot;font-size: 14px;&quot;&gt;3rd Party Platforms&lt;/span&gt;&lt;/font&gt;" style="text;html=1;align=left;verticalAlign=middle;resizable=0;points=[];autosize=1;strokeColor=none;fillColor=none;fontSize=12;fontColor=default;fontFamily=Helvetica;" parent="lZODZxnkbnghFLNg79PO-38" vertex="1">
          <mxGeometry x="25" y="200" width="140" height="30" as="geometry" />
        </mxCell>
        <mxCell id="lZODZxnkbnghFLNg79PO-35" value="3rd Party Applications" style="rounded=1;whiteSpace=wrap;html=1;strokeColor=#475E75;fillColor=#F5F6F7;arcSize=24;absoluteArcSize=1;imageWidth=64;imageHeight=64;strokeWidth=1.5;" parent="lZODZxnkbnghFLNg79PO-38" vertex="1">
          <mxGeometry x="30" y="230" width="160" height="30" as="geometry" />
        </mxCell>
        <mxCell id="lZODZxnkbnghFLNg79PO-36" value="3rd Party Enterprise Apps" style="rounded=1;whiteSpace=wrap;html=1;strokeColor=#475E75;fillColor=#F5F6F7;arcSize=24;absoluteArcSize=1;imageWidth=64;imageHeight=64;strokeWidth=1.5;" parent="lZODZxnkbnghFLNg79PO-38" vertex="1">
          <mxGeometry x="30" y="270" width="160" height="30" as="geometry" />
        </mxCell>
        <mxCell id="lZODZxnkbnghFLNg79PO-37" value="Productivity Tools" style="rounded=1;whiteSpace=wrap;html=1;strokeColor=#475E75;fillColor=#F5F6F7;arcSize=24;absoluteArcSize=1;imageWidth=64;imageHeight=64;strokeWidth=1.5;" parent="lZODZxnkbnghFLNg79PO-38" vertex="1">
          <mxGeometry x="30" y="310" width="160" height="30" as="geometry" />
        </mxCell>
        <mxCell id="LHxhHbAAdALZvwne7CDH-17" value="&lt;font style=&quot;text-wrap: nowrap; color: rgb(29, 45, 62);&quot; face=&quot;arial&quot; size=&quot;1&quot;&gt;&lt;span style=&quot;font-size: 12px;&quot;&gt;Hyperscaler IoT Platforms&amp;nbsp;&lt;/span&gt;&lt;/font&gt;&lt;div style=&quot;text-wrap: nowrap; color: rgb(29, 45, 62);&quot;&gt;&lt;font face=&quot;arial&quot; size=&quot;1&quot;&gt;&lt;span style=&quot;font-size: 12px;&quot;&gt;Microsoft Azure/ AWS&lt;/span&gt;&lt;/font&gt;&lt;/div&gt;" style="rounded=1;whiteSpace=wrap;html=1;strokeColor=#475E75;fillColor=#F5F6F7;arcSize=24;absoluteArcSize=1;imageWidth=64;imageHeight=64;strokeWidth=1.5;align=center;" parent="lZODZxnkbnghFLNg79PO-38" vertex="1">
          <mxGeometry x="30" y="97" width="160" height="34" as="geometry" />
        </mxCell>
        <mxCell id="lZODZxnkbnghFLNg79PO-41" value="" style="group" parent="1" vertex="1" connectable="0">
          <mxGeometry x="49" y="153" width="300" height="160" as="geometry" />
        </mxCell>
        <mxCell id="lZODZxnkbnghFLNg79PO-2" value="" style="rounded=1;whiteSpace=wrap;html=1;strokeColor=#475E75;fillColor=#F5F6F7;arcSize=24;absoluteArcSize=1;imageWidth=64;imageHeight=64;strokeWidth=1.5;" parent="lZODZxnkbnghFLNg79PO-41" vertex="1">
          <mxGeometry width="300" height="160" as="geometry" />
        </mxCell>
        <mxCell id="lZODZxnkbnghFLNg79PO-3" value="" style="rounded=1;whiteSpace=wrap;html=1;strokeColor=#475E75;fillColor=#ffffff;arcSize=24;absoluteArcSize=1;imageWidth=64;imageHeight=64;strokeWidth=1.5;" parent="lZODZxnkbnghFLNg79PO-41" vertex="1">
          <mxGeometry x="20" y="49" width="260" height="81.5" as="geometry" />
        </mxCell>
        <mxCell id="lZODZxnkbnghFLNg79PO-4" value="&lt;font face=&quot;arial&quot; style=&quot;font-size: 16px;&quot;&gt;&lt;b style=&quot;font-size: 16px;&quot;&gt;Event Sources&lt;/b&gt;&lt;/font&gt;" style="text;html=1;align=left;verticalAlign=middle;resizable=0;points=[];autosize=1;strokeColor=none;fillColor=none;fontSize=12;fontColor=#1d2d3e;fontFamily=Helvetica;" parent="lZODZxnkbnghFLNg79PO-41" vertex="1">
          <mxGeometry x="20" y="9" width="130" height="30" as="geometry" />
        </mxCell>
        <mxCell id="lZODZxnkbnghFLNg79PO-5" value="&lt;font color=&quot;#1d2d3e&quot; size=&quot;1&quot; face=&quot;arial&quot; style=&quot;&quot;&gt;&lt;span style=&quot;font-size: 14px;&quot;&gt;Industry 4.0, Systems, Applications,&lt;/span&gt;&lt;/font&gt;&lt;div&gt;&lt;font color=&quot;#1d2d3e&quot; size=&quot;1&quot; face=&quot;arial&quot; style=&quot;&quot;&gt;&lt;span style=&quot;font-size: 14px;&quot;&gt;Warehouses, Logistics, Plants&lt;/span&gt;&lt;/font&gt;&lt;/div&gt;" style="text;html=1;align=left;verticalAlign=middle;resizable=0;points=[];autosize=1;strokeColor=none;fillColor=none;fontSize=12;fontColor=default;fontFamily=Helvetica;" parent="lZODZxnkbnghFLNg79PO-41" vertex="1">
          <mxGeometry x="30" y="46" width="240" height="50" as="geometry" />
        </mxCell>
        <mxCell id="lZODZxnkbnghFLNg79PO-6" value="" style="group" parent="lZODZxnkbnghFLNg79PO-41" vertex="1" connectable="0">
          <mxGeometry x="50" y="97.16999999999996" width="220" height="31.66" as="geometry" />
        </mxCell>
        <mxCell id="i5Ugfd166CEYFusr1dS5-10" value="" style="shape=image;verticalLabelPosition=bottom;verticalAlign=top;imageAspect=0;aspect=fixed;image=data:image/svg+xml,PHN2ZyB4bWxucz0iaHR0cDovL3d3dy53My5vcmcvMjAwMC9zdmciIGZpbGw9Im5vbmUiIHZpZXdCb3g9IjAgMCAyOSAyOCIgaGVpZ2h0PSIyOCIgd2lkdGg9IjI5Ij4mI3hhOzxnIGNsaXAtcGF0aD0idXJsKCNjbGlwMF84NzBfMzAyKSI+JiN4YTs8cGF0aCBmaWxsPSJ1cmwoI3BhaW50MF9saW5lYXJfODcwXzMwMikiIGQ9Ik0yNC43NTQ3IDE0LjY4NDlDMjUuMTU2NiAxNC42ODQ5IDI1LjQ2NzEgMTQuODEyOCAyNS42ODYzIDE1LjA2ODVDMjUuOTQyIDE1LjI4NzcgMjYuMDY5OCAxNS41OTgyIDI2LjA2OTggMTZWMjYuNjg0OUMyNi4wNjk4IDI3LjU2MTcgMjUuNjMxNCAyOCAyNC43NTQ3IDI4SDMuNDM5N0MyLjUyNjQ1IDI4IDIuMDY5ODIgMjcuNTYxNyAyLjA2OTgyIDI2LjY4NDlWMTAuNjg0OUMyLjA2OTgyIDEwLjI4MzEgMi4xOTc2OCA5Ljk3MjYxIDIuNDUzNCA5Ljc1MzQzQzIuNzA5MTEgOS40OTc3MyAzLjAzNzg3IDkuMzY5ODcgMy40Mzk3IDkuMzY5ODdIOC42NDUxN1Y2LjY4NDk0QzguNjQ1MTcgNi4zMTk2NSA4LjgwOTU3IDUuOTcyNjEgOS4xMzgzMyA1LjY0Mzg0TDEyLjc1NDggMy4zNDI0N1YxLjM2OTg3QzEyLjc1NDggMC45NjgwNDQgMTIuODY0NCAwLjYzOTI3NiAxMy4wODM1IDAuMzgzNTY5QzEzLjMzOTIgMC4xMjc4NjIgMTMuNjY4IDcuNjI5MzllLTA2IDE0LjA2OTggNy42MjkzOWUtMDZDMTQuOTgzMSA3LjYyOTM5ZS0wNiAxNS40Mzk3IDAuNDU2NjI5IDE1LjQzOTcgMS4zNjk4N1YzLjM0MjQ3TDE4LjcyNzMgNS42NDM4NEMxOS4wOTI3IDUuODYzMDIgMTkuMjc1MyA2LjIxMDA2IDE5LjI3NTMgNi42ODQ5NFYxNC42ODQ5SDI0Ljc1NDdaTTE5LjI3NTMgMTcuMzY5OVYyMEgyMy40Mzk3VjE3LjM2OTlIMTkuMjc1M1pNMTYuNjQ1MiAxNy4zNjk5SDExLjI3NTNWMjBIMTYuNjQ1MlYxNy4zNjk5Wk0xNi42NDUyIDE0LjY4NDlWMTJIMTEuMjc1M1YxNC42ODQ5SDE2LjY0NTJaTTExLjI3NTMgOS4zNjk4N0gxNi42NDUyVjcuMzQyNDdMMTMuOTYwMyA1LjY0Mzg0TDExLjI3NTMgNy4zNDI0N1Y5LjM2OTg3Wk00Ljc1NDc3IDE0LjY4NDlIOC42NDUxN1YxMkg0Ljc1NDc3VjE0LjY4NDlaTTQuNzU0NzcgMTcuMzY5OVYyMEg4LjY0NTE3VjE3LjM2OTlINC43NTQ3N1pNOC42NDUxNyAyNS4zNjk5VjIyLjY4NUg0Ljc1NDc3VjI1LjM2OTlIOC42NDUxN1pNMTYuNjQ1MiAyNS4zNjk5VjIyLjY4NUgxMS4yNzUzVjI1LjM2OTlIMTYuNjQ1MlpNMjMuNDM5NyAyNS4zNjk5VjIyLjY4NUgxOS4yNzUzVjI1LjM2OTlIMjMuNDM5N1oiLz4mI3hhOzwvZz4mI3hhOzxkZWZzPiYjeGE7PGxpbmVhckdyYWRpZW50IGdyYWRpZW50VW5pdHM9InVzZXJTcGFjZU9uVXNlIiB5Mj0iMjgiIHgyPSIxNC4wNjk4IiB5MT0iNy42MjkzOWUtMDYiIHgxPSIxNC4wNjk4IiBpZD0icGFpbnQwX2xpbmVhcl84NzBfMzAyIj4mI3hhOzxzdG9wIHN0b3AtY29sb3I9IiM1QjczOEIiLz4mI3hhOzxzdG9wIHN0b3AtY29sb3I9IiMyMjM1NDgiIG9mZnNldD0iMSIvPiYjeGE7PC9saW5lYXJHcmFkaWVudD4mI3hhOzxjbGlwUGF0aCBpZD0iY2xpcDBfODcwXzMwMiI+JiN4YTs8cmVjdCB0cmFuc2Zvcm09InRyYW5zbGF0ZSgwLjA2OTgyNDIpIiBmaWxsPSJ3aGl0ZSIgaGVpZ2h0PSIyOCIgd2lkdGg9IjI4Ii8+JiN4YTs8L2NsaXBQYXRoPiYjeGE7PC9kZWZzPiYjeGE7PC9zdmc+" parent="lZODZxnkbnghFLNg79PO-6" vertex="1">
          <mxGeometry x="59.496855345911946" width="22.000000000000025" height="21.24137931034485" as="geometry" />
        </mxCell>
        <mxCell id="i5Ugfd166CEYFusr1dS5-11" value="" style="shape=image;verticalLabelPosition=bottom;verticalAlign=top;imageAspect=0;aspect=fixed;image=data:image/svg+xml,PHN2ZyB4bWxucz0iaHR0cDovL3d3dy53My5vcmcvMjAwMC9zdmciIGZpbGw9Im5vbmUiIHZpZXdCb3g9IjAgMCAyOSAyOCIgaGVpZ2h0PSIyOCIgd2lkdGg9IjI5Ij4mI3hhOzxnIGNsaXAtcGF0aD0idXJsKCNjbGlwMF84NzBfMzA2KSI+JiN4YTs8bWFzayBoZWlnaHQ9IjI4IiB3aWR0aD0iMjkiIHk9IjAiIHg9IjAiIG1hc2tVbml0cz0idXNlclNwYWNlT25Vc2UiIHN0eWxlPSJtYXNrLXR5cGU6bHVtaW5hbmNlIiBpZD0ibWFzazBfODcwXzMwNiI+JiN4YTs8cGF0aCBmaWxsPSJ3aGl0ZSIgZD0iTTI4LjQxNDYgMEgwLjQxNDU1MVYyOEgyOC40MTQ2VjBaIi8+JiN4YTs8L21hc2s+JiN4YTs8ZyBtYXNrPSJ1cmwoI21hc2swXzg3MF8zMDYpIj4mI3hhOzxwYXRoIGZpbGw9InVybCgjcGFpbnQwX2xpbmVhcl84NzBfMzA2KSIgZD0iTTI3LjkxMDYgMTIuOTIyTDIxLjI2MDYgNy40MDZDMjAuODQwNiA3LjA1NiAyMC4yNjY2IDYuOTg2IDE5Ljc3NjYgNy4yMUMxOS4yODY2IDcuNDM0IDE4Ljk3ODYgNy45MzggMTguOTc4NiA4LjQ4NFYxMS4wMThMMTQuNjI0NiA3LjQwNkMxNC4yMDQ2IDcuMDU2IDEzLjYzMDYgNi45ODYgMTMuMTQwNiA3LjIxQzEyLjY1MDYgNy40MzQgMTIuMzQyNiA3LjkzOCAxMi4zNDI2IDguNDg0VjEyLjZIOS41MDA1NVYxLjRDOS41MDA1NSAwLjYzIDguODcwNTUgMCA4LjEwMDU1IDBIMS44MTQ1NUMxLjA0NDU1IDAgMC40MTQ1NTEgMC42MyAwLjQxNDU1MSAxLjRWMjYuNkMwLjQxNDU1MSAyNy4zNyAxLjA0NDU1IDI4IDEuODE0NTUgMjhIMjcuMDE0NkMyNy43ODQ2IDI4IDI4LjQxNDYgMjcuMzcgMjguNDE0NiAyNi42VjE0QzI4LjQxNDYgMTMuNTggMjguMjMyNiAxMy4xODggMjcuOTEwNiAxMi45MjJaTTYuNjcyNTUgMjUuMkgzLjIxNDU1VjIxLjdINi42NzI1NVYyNS4yWk02LjY3MjU1IDE4LjlIMy4yMTQ1NVYxNS40SDYuNjcyNTVWMTguOVpNNi42NzI1NSAxMi42SDMuMjE0NTVWOS4zMjRINi42NzI1NVYxMi42Wk02LjY3MjU1IDYuNTI0SDMuMjE0NTVWMi44SDYuNjcyNTVWNi41MjRaTTI1LjYwMDYgMjUuMkg5LjQ3MjU1VjIxLjdIMTEuMzIwNkMxMi4wOTA2IDIxLjcgMTIuNzIwNiAyMS4wNyAxMi43MjA2IDIwLjNDMTIuNzIwNiAxOS41MyAxMi4wOTA2IDE4LjkgMTEuMzIwNiAxOC45SDkuNDcyNTVWMTUuNEgxMy43MTQ2QzE0LjQ4NDYgMTUuNCAxNS4xMTQ2IDE0Ljc3IDE1LjExNDYgMTRWMTEuNDY2TDE5LjQ2ODUgMTUuMDc4QzE5Ljg4ODUgMTUuNDI4IDIwLjQ2MjYgMTUuNDk4IDIwLjk1MjYgMTUuMjc0QzIxLjQ0MjYgMTUuMDUgMjEuNzUwNiAxNC41NDYgMjEuNzUwNiAxNFYxMS40NjZMMjUuNjAwNiAxNC42NThWMjUuMlpNMTYuMjM0NiAyMi4wNUMxNy4yMDExIDIyLjA1IDE3Ljk4NDYgMjEuMjY2NSAxNy45ODQ2IDIwLjNDMTcuOTg0NiAxOS4zMzM1IDE3LjIwMTEgMTguNTUgMTYuMjM0NiAxOC41NUMxNS4yNjgxIDE4LjU1IDE0LjQ4NDYgMTkuMzMzNSAxNC40ODQ2IDIwLjNDMTQuNDg0NiAyMS4yNjY1IDE1LjI2ODEgMjIuMDUgMTYuMjM0NiAyMi4wNVpNMjMuMTY0NiAyMC4zQzIzLjE2NDYgMjEuMjY2NSAyMi4zODExIDIyLjA1IDIxLjQxNDYgMjIuMDVDMjAuNDQ4IDIyLjA1IDE5LjY2NDYgMjEuMjY2NSAxOS42NjQ2IDIwLjNDMTkuNjY0NiAxOS4zMzM1IDIwLjQ0OCAxOC41NSAyMS40MTQ2IDE4LjU1QzIyLjM4MTEgMTguNTUgMjMuMTY0NiAxOS4zMzM1IDIzLjE2NDYgMjAuM1oiIGNsaXAtcnVsZT0iZXZlbm9kZCIgZmlsbC1ydWxlPSJldmVub2RkIi8+JiN4YTs8L2c+JiN4YTs8L2c+JiN4YTs8ZGVmcz4mI3hhOzxsaW5lYXJHcmFkaWVudCBncmFkaWVudFVuaXRzPSJ1c2VyU3BhY2VPblVzZSIgeTI9IjI4IiB4Mj0iMTQuNDE0NiIgeTE9IjAiIHgxPSIxNC40MTQ2IiBpZD0icGFpbnQwX2xpbmVhcl84NzBfMzA2Ij4mI3hhOzxzdG9wIHN0b3AtY29sb3I9IiM1QjczOEIiLz4mI3hhOzxzdG9wIHN0b3AtY29sb3I9IiMyMjM1NDgiIG9mZnNldD0iMSIvPiYjeGE7PC9saW5lYXJHcmFkaWVudD4mI3hhOzxjbGlwUGF0aCBpZD0iY2xpcDBfODcwXzMwNiI+JiN4YTs8cmVjdCB0cmFuc2Zvcm09InRyYW5zbGF0ZSgwLjQxNDU1MSkiIGZpbGw9IndoaXRlIiBoZWlnaHQ9IjI4IiB3aWR0aD0iMjgiLz4mI3hhOzwvY2xpcFBhdGg+JiN4YTs8L2RlZnM+JiN4YTs8L3N2Zz4=" parent="lZODZxnkbnghFLNg79PO-6" vertex="1">
          <mxGeometry y="1.000000000000001" width="22.000000000000025" height="21.24137931034485" as="geometry" />
        </mxCell>
        <mxCell id="i5Ugfd166CEYFusr1dS5-12" value="" style="shape=image;verticalLabelPosition=bottom;verticalAlign=top;imageAspect=0;aspect=fixed;image=data:image/svg+xml,PHN2ZyB4bWxucz0iaHR0cDovL3d3dy53My5vcmcvMjAwMC9zdmciIGZpbGw9Im5vbmUiIHZpZXdCb3g9IjAgMCAyOSAyOCIgaGVpZ2h0PSIyOCIgd2lkdGg9IjI5Ij4mI3hhOzxnIGNsaXAtcGF0aD0idXJsKCNjbGlwMF84NzBfMzA0KSI+JiN4YTs8cGF0aCBmaWxsPSJ1cmwoI3BhaW50MF9saW5lYXJfODcwXzMwNCkiIGQ9Ik0yMS4yMjg1IDUuOTQ1MjRWNi42MDI3N0wyNC41MTYyIDguOTA0MTVMMjUuOTk1NyA3Ljg2MzA1QzI2LjI1MTMgNy42ODAzOSAyNi41MjUyIDcuNTg5MDggMjYuODE3NSA3LjU4OTA4QzI3LjI1NTkgNy41ODkwOCAyNy42MDI5IDcuNzM1MTkgMjcuODU4NSA4LjAyNzQzQzI4LjExNDQgOC4zMTk2NiAyOC4yNDIyIDguNjMwMTcgMjguMjQyMiA4Ljk1ODk0QzI4LjI0MjIgOS4zOTcyOSAyOC4wNTk1IDkuNzQ0MzEgMjcuNjk0MiAxMEwyNS4zMzgyIDExLjY0MzlDMjUuMDgyMyAxMS44MjY1IDI0LjgwODUgMTEuOTE3OCAyNC41MTYyIDExLjkxNzhDMjQuMjIzOSAxMS45MTc4IDIzLjkzMTcgMTEuODI2NSAyMy42Mzk0IDExLjY0MzlMMjEuMDA5MyA5Ljc4MDg2QzIwLjc5MDEgMTAuMjU1NyAyMC40MDY1IDEwLjQ5MzIgMTkuODU4NyAxMC40OTMyQzE5LjQ5MzMgMTAuNDkzMiAxOS4xODI4IDEwLjM4MzYgMTguOTI3MSAxMC4xNjQ0QzE4LjY3MTUgOS45MDg3IDE4LjUyNTIgOS41OTgyIDE4LjQ4ODggOS4yMzI5MUw5LjgzMTIzIDEwLjIxOTJMMTUuMzEwNyAxOC44NzY3SDIxLjIyODVDMjIuMzk3NSAxOC44NzY3IDIzLjM4MzggMTkuMjk2OCAyNC4xODc0IDIwLjEzNzFDMjUuMDI3NiAyMC45NDA3IDI1LjQ0NzYgMjEuOTI3IDI1LjQ0NzYgMjMuMDk2QzI1LjQ0NzYgMjQuMjY0OCAyNS4wMjc2IDI1LjI1MTEgMjQuMTg3NCAyNi4wNTQ5QzIzLjM4MzggMjYuODk0OSAyMi4zOTc1IDI3LjMxNTEgMjEuMjI4NSAyNy4zMTUxSDQuNDYxMzdDMy4yOTI0MSAyNy4zMTUxIDIuMjg3ODYgMjYuODk0OSAxLjQ0NzY3IDI2LjA1NDlDMC42NDQwMTUgMjUuMjUxMSAwLjI0MjE4OCAyNC4yNjQ4IDAuMjQyMTg4IDIzLjA5NkMwLjI0MjE4OCAyMi4xODI2IDAuNDk3ODk1IDIxLjM3OSAxLjAwOTMxIDIwLjY4NUMxLjUyMDczIDE5Ljk1NDQgMi4xOTY1MiAxOS40NDI5IDMuMDM2NzEgMTkuMTUwOFYxMS4wOTU5QzIuMTk2NTIgMTAuNjIxIDEuNTIwNzMgOS45NjM0OSAxLjAwOTMxIDkuMTIzMzJDMC40OTc4OTUgOC4yODMxMyAwLjI0MjE4OCA3LjMzMzM2IDAuMjQyMTg4IDYuMjc0MDFDMC4yNDIxODggNS41MDY4OCAwLjM4ODMwNiA0Ljc5NDU2IDAuNjgwNTQ0IDQuMTM3MDJDMC45NzI3ODIgMy40NDI5NSAxLjM3NDYxIDIuODQwMjEgMS44ODYwMiAyLjMyODhDMi4zOTc0NCAxLjgxNzM4IDIuOTgxOTEgMS40MTU1NSAzLjYzOTQ1IDEuMTIzMzJDNC4zMzM1MSAwLjgzMTA3OCA1LjA2NDExIDAuNjg0OTU5IDUuODMxMjMgMC42ODQ5NTlDNi42MzQ4OCAwLjY4NDk1OSA3LjM2NTQ3IDAuODQ5MzQzIDguMDIzMDEgMS4xNzgxMkM4LjcxNzA3IDEuNDcwMzQgOS4zMTk4MSAxLjg3MjE4IDkuODMxMjMgMi4zODM2TDE4LjQ4ODggMy4zNjk5QzE4LjUyNTIgMy4wMDQ1OSAxOC42NzE1IDIuNzEyMzYgMTguOTI3MSAyLjQ5MzE5QzE5LjE4MjggMi4yMzc0NyAxOS40OTMzIDIuMTA5NjIgMTkuODU4NyAyLjEwOTYyQzIwLjQwNjUgMi4xMDk2MiAyMC43OTAxIDIuMzQ3MDYgMjEuMDA5MyAyLjgyMTk1TDIzLjYzOTQgMC45NTg5MzJDMjMuOTMxNyAwLjc3NjI4MyAyNC4yMjM5IDAuNjg0OTU5IDI0LjUxNjIgMC42ODQ5NTlDMjQuODA4NSAwLjY4NDk1OSAyNS4wODIzIDAuNzc2MjgzIDI1LjMzODIgMC45NTg5MzJMMjcuNjk0MiAyLjYwMjc3QzI4LjA1OTUgMi44NTg0OCAyOC4yNDIyIDMuMjA1NTEgMjguMjQyMiAzLjY0Mzg3QzI4LjI0MjIgMy45NzI2NCAyOC4xMTQ0IDQuMjgzMTMgMjcuODU4NSA0LjU3NTM4QzI3LjYwMjkgNC44MzEwOCAyNy4yNTU5IDQuOTU4OTQgMjYuODE3NSA0Ljk1ODk0QzI2LjQ1MjMgNC45NTg5NCAyNi4xNzgyIDQuODg1ODcgMjUuOTk1NyA0LjczOTc2TDI0LjUxNjIgMy42NDM4N0wyMS4yMjg1IDUuOTQ1MjRaTTUuODMxMjMgMy40Nzk0OUM1LjA2NDExIDMuNDc5NDkgNC40MDY1NyAzLjc1MzQ2IDMuODU4NjMgNC4zMDE0QzMuMzEwNjggNC44NDkzNSAzLjAzNjcxIDUuNTA2ODggMy4wMzY3MSA2LjI3NDAxQzMuMDM2NzEgNy4wNzc2NSAzLjMxMDY4IDcuNzUzNDYgMy44NTg2MyA4LjMwMTRDNC40MDY1NyA4LjgxMjgxIDUuMDY0MTEgOS4wNjg1MyA1LjgzMTIzIDkuMDY4NTNDNi41OTgzNSA5LjA2ODUzIDcuMjU1ODkgOC44MTI4MSA3LjgwMzgzIDguMzAxNEM4LjM1MTc4IDcuNzUzNDYgOC42MjU3NSA3LjA3NzY1IDguNjI1NzUgNi4yNzQwMUM4LjYyNTc1IDUuNTA2ODggOC4zNTE3OCA0Ljg0OTM1IDcuODAzODMgNC4zMDE0QzcuMjU1ODkgMy43NTM0NiA2LjU5ODM1IDMuNDc5NDkgNS44MzEyMyAzLjQ3OTQ5Wk00LjQ2MTM3IDIxLjY3MTNDNC4wNTk1MyAyMS42NzEzIDMuNzEyNTEgMjEuODE3NCAzLjQyMDI3IDIyLjEwOTdDMy4xNjQ1NyAyMi4zNjUzIDMuMDM2NzEgMjIuNjk0MSAzLjAzNjcxIDIzLjA5NkMzLjAzNjcxIDIzLjQ5NzcgMy4xNjQ1NyAyMy44NDQ3IDMuNDIwMjcgMjQuMTM3QzMuNzEyNTEgMjQuMzkyNiA0LjA1OTUzIDI0LjUyMDYgNC40NjEzNyAyNC41MjA2SDIxLjIyODVDMjEuNjMwNCAyNC41MjA2IDIxLjk1OTEgMjQuMzkyNiAyMi4yMTQ4IDI0LjEzN0MyMi41MDcxIDIzLjg0NDcgMjIuNjUzMSAyMy40OTc3IDIyLjY1MzEgMjMuMDk2QzIyLjY1MzEgMjIuNjk0MSAyMi41MDcxIDIyLjM2NTMgMjIuMjE0OCAyMi4xMDk3QzIxLjk1OTEgMjEuODE3NCAyMS42MzA0IDIxLjY3MTMgMjEuMjI4NSAyMS42NzEzSDQuNDYxMzdaTTExLjk2ODIgMTguODc2N0w3LjQyMDI3IDExLjY0MzlDNi44NzIzMiAxMS44MjY1IDYuMzQyNjUgMTEuOTE3OCA1LjgzMTIzIDExLjkxNzhWMTguODc2N0gxMS45NjgyWk0xOC40MzM5IDYuMjE5MjFMMTEuMzY1NSA1LjM5NzI5QzExLjQwMiA1LjU0MzQxIDExLjQyMDMgNS42ODk1MiAxMS40MjAzIDUuODM1NjVDMTEuNDIwMyA1Ljk4MTc2IDExLjQyMDMgNi4xMjc4OCAxMS40MjAzIDYuMjc0MDFDMTEuNDIwMyA2LjQ1NjY0IDExLjQyMDMgNi42MjEwMyAxMS40MjAzIDYuNzY3MTZDMTEuNDIwMyA2LjkxMzI3IDExLjQwMiA3LjA1OTM4IDExLjM2NTUgNy4yMDU1MUwxOC40MzM5IDYuMzgzNlY2LjIxOTIxWiIvPiYjeGE7PC9nPiYjeGE7PGRlZnM+JiN4YTs8bGluZWFyR3JhZGllbnQgZ3JhZGllbnRVbml0cz0idXNlclNwYWNlT25Vc2UiIHkyPSIyNy4zMTUxIiB4Mj0iMTQuMjQyMiIgeTE9IjAuNjg0OTU5IiB4MT0iMTQuMjQyMiIgaWQ9InBhaW50MF9saW5lYXJfODcwXzMwNCI+JiN4YTs8c3RvcCBzdG9wLWNvbG9yPSIjNUI3MzhCIi8+JiN4YTs8c3RvcCBzdG9wLWNvbG9yPSIjMjIzNTQ4IiBvZmZzZXQ9IjEiLz4mI3hhOzwvbGluZWFyR3JhZGllbnQ+JiN4YTs8Y2xpcFBhdGggaWQ9ImNsaXAwXzg3MF8zMDQiPiYjeGE7PHJlY3QgdHJhbnNmb3JtPSJ0cmFuc2xhdGUoMC4yNDIxODgpIiBmaWxsPSJ3aGl0ZSIgaGVpZ2h0PSIyOCIgd2lkdGg9IjI4Ii8+JiN4YTs8L2NsaXBQYXRoPiYjeGE7PC9kZWZzPiYjeGE7PC9zdmc+" parent="lZODZxnkbnghFLNg79PO-6" vertex="1">
          <mxGeometry x="116.22641509433963" y="1.8099999999999474" width="22.000000000000025" height="21.24137931034485" as="geometry" />
        </mxCell>
        <mxCell id="i5Ugfd166CEYFusr1dS5-13" value="" style="shape=image;verticalLabelPosition=bottom;verticalAlign=top;imageAspect=0;aspect=fixed;image=data:image/svg+xml,PHN2ZyB4bWxucz0iaHR0cDovL3d3dy53My5vcmcvMjAwMC9zdmciIGZpbGw9Im5vbmUiIHZpZXdCb3g9IjAgMCAyOSAyOCIgaGVpZ2h0PSIyOCIgd2lkdGg9IjI5Ij4mI3hhOzxnIGNsaXAtcGF0aD0idXJsKCNjbGlwMF84NzBfMjk0KSI+JiN4YTs8cGF0aCBmaWxsPSJ1cmwoI3BhaW50MF9saW5lYXJfODcwXzI5NCkiIGQ9Ik0yNC4xNzE3IDAuNzMxNjU0QzI0LjcyNjEgMC43MjE2NjYgMjUuMjc2NyAwLjgyNTM5MyAyNS43ODk1IDEuMDM2NDRDMjYuMzAyMyAxLjI0NzQ4IDI2Ljc2NjUgMS41NjEzNiAyNy4xNTMzIDEuOTU4NzFDMjcuOTcwNyAyLjc3NjEyIDI4LjM4MDMgMy43NTA2NiAyOC4zODAzIDQuODgwNDVWNy42ODYyMkMyOC4zODAzIDguMTE2NDQgMjguMjQzOCA4LjQ2NjIyIDI3Ljk3MDcgOC43MzkzMkMyNy42OTQgOC45NzQyNCAyNy4zNDAzIDkuMDk4NzkgMjYuOTc3NCA5LjA4OTFDMjYuNjE0NiA5LjA5ODc5IDI2LjI2MDkgOC45NzQyNCAyNS45ODQyIDguNzM5MzJDMjUuODQ3NiA4LjYwMTA0IDI1Ljc0MDggOC40MzYyNyAyNS42NzA0IDguMjU1MTZDMjUuNTk5OSA4LjA3NDA0IDI1LjU2NzMgNy44ODA0MiAyNS41NzQ1IDcuNjg2MjJWNC44ODA0NUMyNS41ODE1IDQuNzAzNzMgMjUuNTQ4MiA0LjUyNzc0IDI1LjQ3NzIgNC4zNjU3NEMyNS40MDYzIDQuMjAzNzQgMjUuMjk5NSA0LjA1OTk1IDI1LjE2NDkgMy45NDUxOUMyNS4wMzYgMy44MTMwMiAyNC44ODEzIDMuNzA4NjUgMjQuNzEwNSAzLjYzODUyQzI0LjUzOTcgMy41NjgzOCAyNC4zNTYzIDMuNTMzOTggMjQuMTcxNyAzLjUzNzQySDQuNTg5MjdDNC40MDQ2NCAzLjUzMzk4IDQuMjIxMjcgMy41NjgzOCA0LjA1MDQ1IDMuNjM4NTJDMy44Nzk2MiAzLjcwODY1IDMuNzI0OTcgMy44MTMwMiAzLjU5NjAzIDMuOTQ1MTlDMy40NjE0NSA0LjA1OTk1IDMuMzU0NjYgNC4yMDM3NCAzLjI4MzcxIDQuMzY1NzRDMy4yMTI3NSA0LjUyNzc0IDMuMTc5NDcgNC43MDM3MyAzLjE4NjM4IDQuODgwNDVWNi4yODMzM0gxMC4yMDA4QzEwLjU5MTcgNi4yODMzMyAxMC45MjI4IDYuNDE5ODggMTEuMTk1OSA2LjY5Mjk4QzExLjMyODEgNi44MjE5MiAxMS40MzI1IDYuOTc2NTggMTEuNTAyNiA3LjE0NzRDMTEuNTcyNyA3LjMxODIyIDExLjYwNzEgNy41MDE1OSAxMS42MDM3IDcuNjg2MjJDMTEuNjAzNyA4LjExNjQ0IDExLjQ2NzEgOC40NjYyMiAxMS4xOTU5IDguNzM5MzJDMTAuOTE4NiA4Ljk3NDUyIDEwLjU2NDMgOS4wOTkwNyAxMC4yMDA4IDkuMDg5MUgzLjE4NjM4VjIxLjcxNTFDMy4xODYzOCAyMi4xMDYgMy4zMjI5MyAyMi40MzcxIDMuNTk2MDMgMjIuNzEwMkMzLjcyNDk3IDIyLjg0MjQgMy44Nzk2MiAyMi45NDY3IDQuMDUwNDUgMjMuMDE2OUM0LjIyMTI3IDIzLjA4NyA0LjQwNDY0IDIzLjEyMTQgNC41ODkyNyAyMy4xMTc5SDguMDk2NDhDOC40ODc0MiAyMy4xMTc5IDguODE4NSAyMy4yNTQ1IDkuMDkxNTkgMjMuNTI3NkM5LjM2MjgyIDIzLjc2MTQgOS40OTkzNiAyNC4wOTI1IDkuNDk5MzYgMjQuNTIwOEM5LjUwMzA2IDI0LjcwNTggOS40Njg3OCAyNC44ODk1IDkuMzk4NjQgMjUuMDYwN0M5LjMyODUxIDI1LjIzMTggOS4yMjQgMjUuMzg2OCA5LjA5MTU5IDI1LjUxNTlDOC44MTQzIDI1Ljc1MTEgOC40NTk5NSAyNS44NzU3IDguMDk2NDggMjUuODY1N0g0LjU4OTI3QzMuNDU5NDggMjUuODY1NyAyLjQ2NjI0IDI1LjQ1NjEgMS42MDc2NyAyNC42Mzg3QzEuMjE0MjggMjQuMjYxIDAuOTAyNDQ4IDIzLjgwNjggMC42OTE0MDYgMjMuMzAzOUMwLjQ4MDM2NSAyMi44MDExIDAuMzc0NTkyIDIyLjI2MDQgMC4zODA2MTUgMjEuNzE1MVY0Ljg4MDQ1QzAuMzgwNjE1IDMuNzUwNjYgMC43OTAyNTcgMi43NzYxMiAxLjYwNzY3IDEuOTU4NzFDMi40NjYyNCAxLjEzOTQzIDMuNDU5NDggMC43MzE2NTQgNC41ODkyNyAwLjczMTY1NEgyNC4xNzE3Wk0xOC42NzYxIDcuNjg2MjJDMjAuMDQxNiA3LjY4NjIyIDIxLjMwNzkgNy45NTkzMSAyMi40NzcgOC41MDU1QzIzLjY0NiA5LjAxMDU0IDI0LjY1OCA5LjcxMzg1IDI1LjUxNjYgMTAuNjA5OEMyNi40MTI1IDExLjUwNTggMjcuMTE0IDEyLjUzODMgMjcuNjIwOSAxMy43MDc0QzI4LjEyNTkgMTQuODc2NSAyOC4zODAzIDE2LjE0MjggMjguMzgwMyAxNy41MDY0QzI4LjM4NDcgMTguODExNSAyOC4xMjY1IDIwLjEwNDEgMjcuNjIwOSAyMS4zMDczQzI3LjEyMjQgMjIuNDY0IDI2LjQwODIgMjMuNTE1MiAyNS41MTY2IDI0LjQwNDlDMjQuNjEyMSAyNS4zMDY0IDIzLjUzOTMgMjYuMDIxNCAyMi4zNTkxIDI2LjUwOTJDMjEuMTU4OCAyNy4wMjE5IDE5Ljg2NTMgMjcuMjgwNSAxOC41NjAxIDI3LjI2ODZDMTcuMjU1NyAyNy4yNzI4IDE1Ljk2MzcgMjcuMDE0NSAxNC43NjExIDI2LjUwOTJDMTMuNjA0NCAyNi4wMTA3IDEyLjU1MzIgMjUuMjk2NSAxMS42NjM1IDI0LjQwNDlDMTAuNzcxOCAyMy41MTUzIDEwLjA1NzYgMjIuNDY0MSA5LjU1OTIyIDIxLjMwNzNDOS4wNTMwMSAyMC4xMDQyIDguNzk0MSAxOC44MTE2IDguNzk3OTIgMTcuNTA2NEM4Ljc5NzkyIDE2LjE0MjggOS4wNTIzMSAxNC44NzY1IDkuNTU5MjIgMTMuNzA3NEMxMC4wMzA4IDEyLjU1MTIgMTAuNzI0OCAxMS40OTg3IDExLjYwMTggMTAuNjA5OEMxMi40OTE5IDkuNzE3ODkgMTMuNTQzOCA5LjAwMzcxIDE0LjcwMTMgOC41MDU1QzE1Ljg5MzUgNy45NjMxNCAxNy4xODg2IDcuNjgzNzIgMTguNDk4NCA3LjY4NjIySDE4LjY3NjFaTTI0LjE3MTcgMTMuMjk3OEMyMy40MzA5IDEyLjM2MjUgMjIuNTc0MiAxMS42ODE2IDIxLjU5OTcgMTEuMjUzM0MyMS43OTQyIDExLjU2MzggMjEuOTUxNCAxMS44OTQ5IDIyLjA2NzMgMTIuMjQ0N0MyMi4yMjI2IDEyLjU1NyAyMi4zNzk3IDEyLjkwODcgMjIuNTM1IDEzLjI5NzhIMjQuMTcxN1pNMTguNTYwMSAxMS41NDUxQzE4LjI4NyAxMi4wMTI3IDE3Ljk5NTIgMTIuNTk2MyAxNy42ODI5IDEzLjI5NzhIMTkuNDk1NEMxOS4xODMgMTIuNTE5NiAxOC44NzI1IDExLjkzNDIgMTguNTYwMSAxMS41NDUxWk0xMS42MDM3IDE3LjUwNjRWMTguMjA3OUwxMS43MjE1IDE4LjkwOTNIMTMuOTk5OEMxMy45NjE4IDE4LjY3NzQgMTMuOTQzIDE4LjQ0MjggMTMuOTQzNyAxOC4yMDc5VjE3LjUwNjRWMTYuODA1QzEzLjk0MzcgMTYuNTcxMiAxMy45NjI0IDE2LjMzNzMgMTMuOTk5OCAxNi4xMDM1SDExLjcyMzRMMTEuNjA1NiAxNi44MDVMMTEuNjAzNyAxNy41MDY0Wk0xMy4wMDY2IDIxLjcxNTFDMTMuNzQ3MyAyMi42NTAzIDE0LjYwNCAyMy4zMzMxIDE1LjU3ODUgMjMuNzYxNEMxNS4zODg2IDIzLjQ1ODEgMTUuMjEzMiAyMy4xNDYgMTUuMDUyOSAyMi44MjYxQzE0LjkyNzMgMjIuNDUxOSAxNC43OTA3IDIyLjA4MTMgMTQuNjQzMyAyMS43MTUxSDEzLjAwNjZaTTE0LjY0MzMgMTMuMjk3OEMxNC44MDA0IDEyLjkwODcgMTQuOTM1MSAxMi41NTcgMTUuMDUyOSAxMi4yNDY1QzE1LjIwNDYgMTEuOTAzNSAxNS4zODAzIDExLjU3MTYgMTUuNTc4NSAxMS4yNTMzQzE0LjYwNTkgMTEuNjgxNiAxMy43NDczIDEyLjM2MjUgMTMuMDA2NiAxMy4yOTc4SDE0LjY0MzNaTTE4LjU2MDEgMjMuNDY5NkMxOC43NTQ3IDIzLjE5NjUgMTguOTExOCAyMi45MjM0IDE5LjAyNzggMjIuNjUwM0wxOS40OTU0IDIxLjcxNTFIMTcuNjgyOUwxOC41NjAxIDIzLjQ2OTZaTTIwLjMxNDcgMTguOTA5M0MyMC4zOTE0IDE4LjY3NTUgMjAuNDMwNiAxOC40NDE3IDIwLjQzMDYgMTguMjA3OVYxNy41MDY0VjE2LjgwNUMyMC40MzA2IDE2LjU3MTIgMjAuMzkzMiAxNi4zMzczIDIwLjMxMjggMTYuMTAzNUgxNi44NjczQzE2Ljc5MDQgMTYuMzI5NCAxNi43NTA2IDE2LjU2NjMgMTYuNzQ5NSAxNi44MDVWMTguMjA3OUMxNi43NDk1IDE4LjQ0MTcgMTYuNzg4OCAxOC42NzU1IDE2Ljg2NzMgMTguOTA5M0gyMC4zMTY1SDIwLjMxNDdaTTIxLjU5OTcgMjMuNzYxNEMyMi41NzI0IDIzLjMzMTIgMjMuNDMyOCAyMi42NTAzIDI0LjE3MTcgMjEuNzE1MUgyMi41MzVDMjIuMzg2MSAyMi4wODgzIDIyLjIzMDIgMjIuNDU4OCAyMi4wNjczIDIyLjgyNjFDMjEuOTQzMSAyMy4xNTI3IDIxLjc4NjQgMjMuNDY2IDIxLjU5OTcgMjMuNzYxNFpNMjUuNDU4NiAxOC45MDkzQzI1LjQ5NiAxOC42NzU1IDI1LjUxNDcgMTguNDQxNyAyNS41MTQ3IDE4LjIwNzlDMjUuNTkyMSAxNy43NDM0IDI1LjU5MjEgMTcuMjY5NCAyNS41MTQ3IDE2LjgwNUMyNS41MTQ3IDE2LjU3MTIgMjUuNDk2IDE2LjMzNzMgMjUuNDU4NiAxNi4xMDM1SDIzLjE3NjZDMjMuMjE3NyAxNi4zMzczIDIzLjIzNjQgMTYuNTcxMiAyMy4yMzY0IDE2LjgwNVYxOC4yMDc5QzIzLjIzNjQgMTguNDQxNyAyMy4yMTc3IDE4LjY3NTUgMjMuMTc4NCAxOC45MDkzSDI1LjQ1ODZaIi8+JiN4YTs8L2c+JiN4YTs8ZGVmcz4mI3hhOzxsaW5lYXJHcmFkaWVudCBncmFkaWVudFVuaXRzPSJ1c2VyU3BhY2VPblVzZSIgeTI9IjI3LjI2OSIgeDI9IjE0LjM4MDQiIHkxPSIwLjczMDk5NSIgeDE9IjE0LjM4MDQiIGlkPSJwYWludDBfbGluZWFyXzg3MF8yOTQiPiYjeGE7PHN0b3Agc3RvcC1jb2xvcj0iIzVCNzM4QiIvPiYjeGE7PHN0b3Agc3RvcC1jb2xvcj0iIzIyMzU0OCIgb2Zmc2V0PSIxIi8+JiN4YTs8L2xpbmVhckdyYWRpZW50PiYjeGE7PGNsaXBQYXRoIGlkPSJjbGlwMF84NzBfMjk0Ij4mI3hhOzxyZWN0IHRyYW5zZm9ybT0idHJhbnNsYXRlKDAuMzgwMzcxKSIgZmlsbD0id2hpdGUiIGhlaWdodD0iMjgiIHdpZHRoPSIyOCIvPiYjeGE7PC9jbGlwUGF0aD4mI3hhOzwvZGVmcz4mI3hhOzwvc3ZnPg==" parent="lZODZxnkbnghFLNg79PO-6" vertex="1">
          <mxGeometry x="175.874213836478" y="0.6599999999999722" width="22.000000000000025" height="21.24137931034485" as="geometry" />
        </mxCell>
        <mxCell id="lZODZxnkbnghFLNg79PO-44" style="edgeStyle=orthogonalEdgeStyle;rounded=0;orthogonalLoop=1;jettySize=auto;html=1;fontSize=18;strokeColor=#475E75;fontFamily=Helvetica;fontColor=default;targetPerimeterSpacing=15;endSize=4;startSize=4;endArrow=blockThin;endFill=1;strokeWidth=1.5;startArrow=none;startFill=0;exitX=0.999;exitY=0.297;exitDx=0;exitDy=0;exitPerimeter=0;" parent="1" source="lZODZxnkbnghFLNg79PO-11" edge="1">
          <mxGeometry relative="1" as="geometry">
            <mxPoint x="768.44" y="286" as="targetPoint" />
            <mxPoint x="638.44" y="189" as="sourcePoint" />
            <Array as="points">
              <mxPoint x="674.44" y="188" />
              <mxPoint x="674.44" y="286" />
            </Array>
          </mxGeometry>
        </mxCell>
        <mxCell id="lZODZxnkbnghFLNg79PO-45" value="&lt;p style=&quot;line-height: 100%;&quot;&gt;&lt;b&gt;&lt;font face=&quot;arial black&quot; style=&quot;font-size: 16px;&quot; color=&quot;#ffffff&quot;&gt;3&lt;/font&gt;&lt;/b&gt;&lt;/p&gt;" style="ellipse;whiteSpace=wrap;html=1;aspect=fixed;rotation=0;gradientColor=#0057D2;strokeColor=none;gradientDirection=east;fillColor=#2395FF;rounded=0;pointerEvents=0;fontFamily=Helvetica;fontSize=12;fontColor=default;spacingTop=4;spacingBottom=4;spacingLeft=4;spacingRight=4;" parent="1" vertex="1">
          <mxGeometry x="634.94" y="152.62" width="30" height="30" as="geometry" />
        </mxCell>
        <mxCell id="lZODZxnkbnghFLNg79PO-46" value="&lt;font style=&quot;font-weight: normal;&quot; color=&quot;#1d2d3e&quot;&gt;Processor Srv&lt;/font&gt;" style="rounded=1;whiteSpace=wrap;html=1;fillColor=#FFEAF4;strokeColor=none;strokeWidth=1.5;arcSize=16;fontStyle=1;spacingTop=0;spacingLeft=0;spacing=8;imageWidth=64;imageHeight=64;absoluteArcSize=1;fontFamily=Helvetica;align=center;verticalAlign=middle;fontSize=12;" parent="1" vertex="1">
          <mxGeometry x="1113.44" y="326" width="107.0864" height="20" as="geometry" />
        </mxCell>
        <mxCell id="lZODZxnkbnghFLNg79PO-47" value="&lt;font color=&quot;#1d2d3e&quot;&gt;&lt;span style=&quot;font-weight: 400;&quot;&gt;Monitoring App&lt;/span&gt;&lt;/font&gt;" style="rounded=1;whiteSpace=wrap;html=1;fillColor=#FFEAF4;strokeColor=none;strokeWidth=1.5;arcSize=16;fontStyle=1;spacingTop=0;spacingLeft=0;spacing=8;imageWidth=64;imageHeight=64;absoluteArcSize=1;fontFamily=Helvetica;align=center;verticalAlign=middle;fontSize=12;" parent="1" vertex="1">
          <mxGeometry x="1054.8968" y="352" width="107.0864" height="20" as="geometry" />
        </mxCell>
        <mxCell id="lZODZxnkbnghFLNg79PO-49" value="&lt;font style=&quot;&quot; face=&quot;arial&quot; size=&quot;1&quot; color=&quot;#1d2d3e&quot;&gt;&lt;span style=&quot;font-size: 12px;&quot;&gt;3rd party identity provider/ identity management&amp;nbsp;&lt;br&gt;&lt;/span&gt;&lt;/font&gt;" style="text;html=1;align=left;verticalAlign=top;resizable=1;points=[[0,0.5,0,0,0],[0.21,1,0,0,0],[0.5,1,0,0,0],[0.85,1,0,0,0],[1,0.5,0,0,0]];autosize=0;strokeColor=none;fillColor=none;fontSize=12;fontColor=default;fontFamily=Helvetica;fixedWidth=1;imageWidth=24;whiteSpace=wrap;labelBackgroundColor=none;" parent="1" vertex="1">
          <mxGeometry x="916.44" y="790.25" width="180" height="32.5" as="geometry" />
        </mxCell>
        <mxCell id="LHxhHbAAdALZvwne7CDH-1" value="SAP Integration Suite,&#xa;advance event mesh" style="shape=image;verticalLabelPosition=bottom;labelBackgroundColor=default;verticalAlign=top;aspect=fixed;imageAspect=0;image=data:image/svg+xml,PHN2ZyB4bWxucz0iaHR0cDovL3d3dy53My5vcmcvMjAwMC9zdmciIGZpbGw9Im5vbmUiIHZpZXdCb3g9IjAgMCAxNiAxNiIgaGVpZ2h0PSIxNiIgd2lkdGg9IjE2Ij4mI3hhOzxjaXJjbGUgc3Ryb2tlLXdpZHRoPSIwLjI4NTcwOCIgc3Ryb2tlPSIjRDVEQUREIiBmaWxsPSJ1cmwoI3BhaW50MF9saW5lYXJfMzUxNF80MDI2NikiIHI9IjcuODU2OTYiIGN5PSI3Ljk5NzYyIiBjeD0iNy45OTkzMyIvPiYjeGE7PGcgY2xpcC1wYXRoPSJ1cmwoI2NsaXAwXzM1MTRfNDAyNjYpIj4mI3hhOzxwYXRoIGZpbGw9InVybCgjcGFpbnQxX2xpbmVhcl8zNTE0XzQwMjY2KSIgZD0iTTQuNjk0OSA1LjgwNTk4QzQuODUxODQgNC42Nzc4IDUuNzkzODYgMy41OTcxNyA3LjExOTcxIDMuNTk3MTdDOC4xNzQ0OSAzLjU5NzE3IDguOTY0MTkgNC4xODk2IDkuMzg5NjEgNS4wNzA0M0M5Ljk1NTYyIDUuMTIzOTcgMTAuNDcwNSA1LjQxODkyIDEwLjgyNzggNS44Njk5MUMxMC42OTA4IDYuMDMyOTEgMTAuNjA4MiA2LjI0MzI3IDEwLjYwODIgNi40NzI5MVY2LjUzNTU4SDEwLjU0NTZDMTAuMDI3OCA2LjUzNTU4IDkuNjA4MTIgNi45NTUzMSA5LjYwODEyIDcuNDczMDdDOS42MDgxMiA3LjYyMDA1IDkuNjQxOTQgNy43NTkxMyA5LjcwMjIzIDcuODgyOTVDOS42OTY3OCA3Ljg4Mjg3IDkuNjkxMzIgNy44ODI4NCA5LjY4NTg1IDcuODgyODRDOS4xNTk3MiA3Ljg4Mjg0IDguNjk4NDcgOC4yMjQ4MSA4LjUzOTMxIDguNzIyMDZMOC41MTU3MyA4Ljc5NTc0TDguNDkwMTkgOC43MTc2NUM4LjMyODE2IDguMjIyMzQgNy44NjcwNiA3Ljg4Mjg0IDcuMzQxOTYgNy44ODI4NEM2LjY2OTM1IDcuODgyODQgNi4xMzMzOCA4LjQzMTMgNi4xMzMzOCA5LjA5NjM2VjkuNjM1MTJINC45NjI1N0M0LjM2ODc4IDkuNjM1MTIgMy44NjQ0OCA5LjQ1MDI0IDMuNTA5MjYgOS4wODUyNkMzLjE1NjQzIDguNzIyNzMgMi45OTkyNyA4LjIzMjM5IDIuOTk5MjcgNy43MTM2NEMyLjk5OTI3IDcuMTU1NDQgMy4yMDM2NCA2LjYyNjEyIDMuNTk5MzIgNi4yNjE0NUMzLjg5MTgxIDUuOTkxODkgNC4yNjg0IDUuODMxNCA0LjY5NDkgNS44MDU5OFoiLz4mI3hhOzxwYXRoIGZpbGw9InVybCgjcGFpbnQyX2xpbmVhcl8zNTE0XzQwMjY2KSIgZD0iTTExLjIzMzIgNi42NTU4NkMxMS4yOTc1IDYuODc0NiAxMS4zMzI0IDcuMTA5MSAxMS4zMzI0IDcuMzU0OTNDMTEuMzMyNCA3LjYwODE5IDExLjI5NzQgNy44NDQyOCAxMS4yMzMyIDguMDYxMTZWNy43ODU1NkgxMC41NDU2QzEwLjM3MyA3Ljc4NTU2IDEwLjIzMzEgNy42NDU2NiAxMC4yMzMxIDcuNDczMDdDMTAuMjMzMSA3LjMwMDQ4IDEwLjM3MyA3LjE2MDU3IDEwLjU0NTYgNy4xNjA1N0gxMS4yMzMyVjYuNjU1ODZaIi8+JiN4YTs8cGF0aCBmaWxsPSJ1cmwoI3BhaW50M19saW5lYXJfMzUxNF80MDI2NikiIGQ9Ik0xMS40Mjk2IDEyLjI2NDNDMTEuMjgzMSAxMi40MTMzIDExLjEzODQgMTIuNjQ0MyAxMS4yODQ5IDEyLjc5MzNDMTEuNDMxNCAxMi45NDIzIDExLjU5NzYgMTIuOTUyNyAxMS43NDQxIDEyLjgwMzdMMTIuODY4OSAxMS42NTk3QzEzLjAxNTQgMTEuNTEwNyAxMy4wMTU0IDExLjI2OTMgMTIuODY4OSAxMS4xMjAzTDExLjc0NDEgOS45NzYyNEMxMS41OTc2IDkuODI3MjMgMTEuNDI1NSA5Ljc2NTE5IDExLjI3OSA5LjkxNDJDMTEuMDk1OCAxMC4wNTczIDExLjM1MDggMTAuMzY2NiAxMS40OTczIDEwLjUxNTdMMTEuOTE3MyAxMS4wMTdMOS42MDQ5MSAxMS4wMTkzTDkuNjA0NzYgMTEuMzE2QzkuNjA0NjIgMTEuNTIwNyA5Ljc2OTE4IDExLjY4NjUgOS45NzIwNyAxMS42ODYzTDExLjk1ODYgMTEuNjg0MkwxMS40Mjk2IDEyLjI2NDNaIi8+JiN4YTs8cGF0aCBmaWxsPSJ1cmwoI3BhaW50NF9saW5lYXJfMzUxNF80MDI2NikiIGQ9Ik02Ljc1OTUyIDkuMDQ3NDRDNi43NTk1MiA4LjczMDEzIDcuMDE0NTUgOC40NzI5IDcuMzI5MTUgOC40NzI5QzcuNTc0OTggOC40NzI5IDcuNzkzMDcgOC42MzE5NiA3Ljg3MDEgOC44Njc0Mkw4LjMzNzI5IDEwLjI5NTZDOC4zNjMyOCAxMC4zNzQyIDguMzkzODYgMTAuNDg0NSA4LjQyOTAyIDEwLjYyNjNDOC40NjQxOCAxMC43NjgyIDguNDg3MTIgMTAuODYyMyA4LjQ5NzgyIDEwLjkwODVDOC41MTAwNSAxMC44NjIzIDguNTM0NTEgMTAuNzY5NyA4LjU3MTIgMTAuNjMxQzguNjA5NDIgMTAuNDkwNiA4LjY0MTUzIDEwLjM4MjcgOC42Njc1MiAxMC4zMDcxTDkuMTI4MTYgOC44Njc5NUM5LjIwMzUyIDguNjMyNDggOS40MjA4NSA4LjQ3MjkgOS42NjYxNyA4LjQ3MjlDOS45Nzg0MSA4LjQ3MjkgMTAuMjMxNSA4LjcyODIgMTAuMjMxNSA5LjA0MzEzVjExLjAxODdMOS42MDQ5MSAxMS4wMTkzTDkuNjA1NDcgOS43NTY2M0M5LjYwNTQ3IDkuNTkwMDkgOS42MDkyOSA5LjQzMjgxIDkuNjE2OTMgOS4yODQ3N0M5LjYyNjExIDkuMTM2NzQgOS42MjIzNCA5LjA3Nzg4IDkuNjMwNjkgOS4wNTExNkM5LjYyOTE2IDkuMDUyNyA5LjYxMzg4IDkuMTA2NjcgOS41ODQ4MyA5LjIxMzA3QzkuNTY5NTQgOS4yNjM5NiA5LjUzNzQzIDkuMzczNDQgOS40ODg1MSA5LjU0MTUyQzkuNDQxMTIgOS43MDk2IDkuNDAzNjYgOS44MzM3MyA5LjM3NjE0IDkuOTEzOTJMOC44NTgzNCAxMS40Njg4QzguODA1OTkgMTEuNjI2IDguNjU5OTQgMTEuNzMyIDguNDk1NTMgMTEuNzMyQzguMzMxMTEgMTEuNzMyIDguMTg1MDYgMTEuNjI2IDguMTMyNzEgMTEuNDY4OEw3LjYxNDkxIDkuOTEzOTJDNy41ODI4IDkuODE5ODUgNy41MzY5NCA5LjY3MjU5IDcuNDc3MzEgOS40NzIxM0M3LjQxOTIyIDkuMjcwMTIgNy4zNzg3IDkuMTI5OCA3LjM1NTc3IDkuMDUxMTZMNy4zNjAzNiA5LjExODIzQzcuMzYxODkgOS4xNDI5MSA3LjM2NjQ3IDkuMjMwMDMgNy4zNzQxMiA5LjM3OTYxQzcuMzgxNzYgOS41Mjc2NCA3LjM4NTU4IDkuNjUzMzEgNy4zODU1OCA5Ljc1NjYzVjExLjQxNjJDNy4zODU1OCAxMS41OTA2IDcuMjQ1NDMgMTEuNzMyIDcuMDcyNTUgMTEuNzMyQzYuODk5NjcgMTEuNzMyIDYuNzU5NTIgMTEuNTkwNiA2Ljc1OTUyIDExLjQxNjJWOS4wNDc0NFoiLz4mI3hhOzxwYXRoIGZpbGw9InVybCgjcGFpbnQ1X2xpbmVhcl8zNTE0XzQwMjY2KSIgZD0iTTExLjg1ODIgNi40NzMxNEMxMS44NTgyIDYuMzAwNTUgMTEuNzE4MyA2LjE2MDY0IDExLjU0NTcgNi4xNjA2NEMxMS4zNzMxIDYuMTYwNjQgMTEuMjMzMiA2LjMwMDU1IDExLjIzMzIgNi40NzMxNFY3LjE2MDgxSDEwLjU0NTdDMTAuMzczMSA3LjE2MDgxIDEwLjIzMzIgNy4zMDA3MiAxMC4yMzMyIDcuNDczM0MxMC4yMzMyIDcuNjQ1ODkgMTAuMzczMSA3Ljc4NTggMTAuNTQ1NyA3Ljc4NThIMTEuMjMzMlY4LjQ3MzE0QzExLjIzMzIgOC42NDU3MyAxMS4zNzMxIDguNzg1NjQgMTEuNTQ1NyA4Ljc4NTY0QzExLjcxODMgOC43ODU2NCAxMS44NTgyIDguNjQ1NzMgMTEuODU4MiA4LjQ3MzE0VjcuNzg1OEgxMi41NDU2QzEyLjcxODIgNy43ODU4IDEyLjg1ODEgNy42NDU4OSAxMi44NTgxIDcuNDczM0MxMi44NTgxIDcuMzAwNzIgMTIuNzE4MiA3LjE2MDgxIDEyLjU0NTYgNy4xNjA4MUgxMS44NTgyVjYuNDczMTRaIi8+JiN4YTs8L2c+JiN4YTs8ZGVmcz4mI3hhOzxsaW5lYXJHcmFkaWVudCBncmFkaWVudFVuaXRzPSJ1c2VyU3BhY2VPblVzZSIgeTI9IjE0Ljc0NTYiIHgyPSIxMy42ODc0IiB5MT0iMi4yNjg3IiB4MT0iMS40NTA0MyIgaWQ9InBhaW50MF9saW5lYXJfMzUxNF80MDI2NiI+JiN4YTs8c3RvcCBzdG9wLWNvbG9yPSJ3aGl0ZSIvPiYjeGE7PHN0b3Agc3RvcC1jb2xvcj0iI0VBRUNFRSIgb2Zmc2V0PSIxIi8+JiN4YTs8L2xpbmVhckdyYWRpZW50PiYjeGE7PGxpbmVhckdyYWRpZW50IGdyYWRpZW50VW5pdHM9InVzZXJTcGFjZU9uVXNlIiB5Mj0iMTAuMDQ2IiB4Mj0iOC4yNjU0NCIgeTE9IjQuNTAwMTEiIHgxPSI0LjI0ODQ0IiBpZD0icGFpbnQxX2xpbmVhcl8zNTE0XzQwMjY2Ij4mI3hhOzxzdG9wIHN0b3AtY29sb3I9IiMwMTk1RkYiLz4mI3hhOzxzdG9wIHN0b3AtY29sb3I9IiMxMTQ3RTkiIG9mZnNldD0iMC45OTEwMjgiLz4mI3hhOzwvbGluZWFyR3JhZGllbnQ+JiN4YTs8bGluZWFyR3JhZGllbnQgZ3JhZGllbnRVbml0cz0idXNlclNwYWNlT25Vc2UiIHkyPSIxMC4wNDYiIHgyPSI4LjI2NTQ0IiB5MT0iNC41MDAxMSIgeDE9IjQuMjQ4NDQiIGlkPSJwYWludDJfbGluZWFyXzM1MTRfNDAyNjYiPiYjeGE7PHN0b3Agc3RvcC1jb2xvcj0iIzAxOTVGRiIvPiYjeGE7PHN0b3Agc3RvcC1jb2xvcj0iIzExNDdFOSIgb2Zmc2V0PSIwLjk5MTAyOCIvPiYjeGE7PC9saW5lYXJHcmFkaWVudD4mI3hhOzxsaW5lYXJHcmFkaWVudCBncmFkaWVudFVuaXRzPSJ1c2VyU3BhY2VPblVzZSIgeTI9IjEzLjI1MzUiIHgyPSIxMC42MTE2IiB5MT0iOS4xMjU3NSIgeDE9IjcuNjc5IiBpZD0icGFpbnQzX2xpbmVhcl8zNTE0XzQwMjY2Ij4mI3hhOzxzdG9wIHN0b3AtY29sb3I9IiMxMzQ4RkYiLz4mI3hhOzxzdG9wIHN0b3AtY29sb3I9IiMwNjIzOEQiIG9mZnNldD0iMSIvPiYjeGE7PC9saW5lYXJHcmFkaWVudD4mI3hhOzxsaW5lYXJHcmFkaWVudCBncmFkaWVudFVuaXRzPSJ1c2VyU3BhY2VPblVzZSIgeTI9IjEzLjI1MzUiIHgyPSIxMC42MTE2IiB5MT0iOS4xMjU3NSIgeDE9IjcuNjc5IiBpZD0icGFpbnQ0X2xpbmVhcl8zNTE0XzQwMjY2Ij4mI3hhOzxzdG9wIHN0b3AtY29sb3I9IiMxMzQ4RkYiLz4mI3hhOzxzdG9wIHN0b3AtY29sb3I9IiMwNjIzOEQiIG9mZnNldD0iMSIvPiYjeGE7PC9saW5lYXJHcmFkaWVudD4mI3hhOzxsaW5lYXJHcmFkaWVudCBncmFkaWVudFVuaXRzPSJ1c2VyU3BhY2VPblVzZSIgeTI9IjguMzkxMTciIHgyPSIxMi40NjQiIHkxPSI2LjU1NDQ4IiB4MT0iMTAuNjI2IiBpZD0icGFpbnQ1X2xpbmVhcl8zNTE0XzQwMjY2Ij4mI3hhOzxzdG9wIHN0b3AtY29sb3I9IiMwMEJCRkYiLz4mI3hhOzxzdG9wIHN0b3AtY29sb3I9IiMwMDhCRkYiIG9mZnNldD0iMSIvPiYjeGE7PC9saW5lYXJHcmFkaWVudD4mI3hhOzxjbGlwUGF0aCBpZD0iY2xpcDBfMzUxNF80MDI2NiI+JiN4YTs8cmVjdCB0cmFuc2Zvcm09InRyYW5zbGF0ZSgyLjk5OTUxIDMuNTk3OSkiIGZpbGw9IndoaXRlIiBoZWlnaHQ9IjEwIiB3aWR0aD0iOS45OTk3NyIvPiYjeGE7PC9jbGlwUGF0aD4mI3hhOzwvZGVmcz4mI3hhOzwvc3ZnPg==;points=[[0,0,0,0,0],[0,0.25,0,0,0],[0,0.5,0,0,0],[0,0.75,0,0,0],[0.25,0,0,0,0],[0.5,0,0,0,0],[0.75,0,0,0,0],[1,0,0,0,0],[1,0.25,0,0,0],[1,0.5,0,0,0],[1,0.75,0,0,0]];" parent="1" vertex="1">
          <mxGeometry x="769.44" y="269.0000000000002" width="32" height="32" as="geometry" />
        </mxCell>
        <mxCell id="aZ0MxrTqLQG-AXpiNajb-166" value="SAP Build Work Zone,&#xa;advanced edition" style="shape=image;verticalLabelPosition=bottom;labelBackgroundColor=default;verticalAlign=top;aspect=fixed;imageAspect=0;image=data:image/svg+xml,PHN2ZyB4bWxucz0iaHR0cDovL3d3dy53My5vcmcvMjAwMC9zdmciIGZpbGw9Im5vbmUiIHZpZXdCb3g9IjAgMCAxNiAxNiIgaGVpZ2h0PSIxNiIgd2lkdGg9IjE2Ij4mI3hhOzxnIGNsaXAtcGF0aD0idXJsKCNjbGlwMF8zMTA2XzI3MTAxKSI+JiN4YTs8Y2lyY2xlIHN0cm9rZS13aWR0aD0iMC4yNzM4MDkiIHN0cm9rZT0iI0Q1REFERCIgZmlsbD0idXJsKCNwYWludDBfbGluZWFyXzMxMDZfMjcxMDEpIiByPSI3LjUyOTc0IiBjeT0iNy45OTk4OSIgY3g9IjcuOTk4OTIiLz4mI3hhOzxnIGNsaXAtcGF0aD0idXJsKCNjbGlwMV8zMTA2XzI3MTAxKSI+JiN4YTs8bWFzayBoZWlnaHQ9IjEzIiB3aWR0aD0iMTIiIHk9IjIiIHg9IjIiIG1hc2tVbml0cz0idXNlclNwYWNlT25Vc2UiIHN0eWxlPSJtYXNrLXR5cGU6YWxwaGEiIGlkPSJtYXNrMF8zMTA2XzI3MTAxIj4mI3hhOzxwYXRoIGZpbGw9ImJsYWNrIiBkPSJNOC40MjExOCAxMC43MzMzQzguNjQxMDYgMTEuMzUyNCA5LjI4Njc1IDExLjcwNDcgMTAuMDEwNSAxMS43MDQ3QzEwLjczNDIgMTEuNzA0NyAxMS4zNDY4IDExLjE3OTEgMTEuNTE5NyAxMC43MDdMMTIuODg3NyA2LjkzODQ5QzEzLjE2MDEgNi4xODgwNCAxMi43NzQyIDUuMzU4MjQgMTIuMDI1OCA1LjA4NTFDMTEuMzM3NCA0LjgzMzg5IDEwLjU4MjIgNS4xNDEgMTAuMjUzNCA1Ljc3NTcyQzEwLjIwMTEgNS44OTQwOSAxMC4xNDc1IDYuMDcyMTYgMTAuMjExNiA2LjI2MTc3TDEwLjg5OTYgOC4xNjUzMUMxMC45MzQxIDguMjYwNzUgMTAuODg5NSA4LjM2NjczIDEwLjc5NzIgOC40MDg0NUMxMC42ODMzIDguNDU5OTMgMTAuNTQ2OCA4LjM5MjYzIDEwLjUxNjggOC4yNzEwNkMxMC4yOTc0IDcuMzgyODcgOS41NjI3OCA2LjgxNjE3IDguNjU0NiA3LjE1MDYzQzcuNzQ2NDIgNy40ODUxIDcuNTU1MjEgOC4zNDc3MiA3LjgyNzYzIDkuMDk4MThMOC40MjExOCAxMC43MzMzWiIvPiYjeGE7PHBhdGggZmlsbD0iYmxhY2siIGQ9Ik0zLjQ3MjEzIDYuOTMyNDVDMy4xOTk3MiA2LjE4MTk5IDMuNTg1NjIgNS4zNTIyIDQuMzM0MDYgNS4wNzkwNkM1LjA4MjUxIDQuODA1OTEgNS45MTAwOCA1LjE5Mjg1IDYuMTgyNSA1Ljk0MzMxTDcuNTQ5NzQgOS43MDk4MkM3LjgyMjE1IDEwLjQ2MDMgNy40MzYyNiAxMS4yOTAxIDYuNjg3ODEgMTEuNTYzMkM1LjkzOTM2IDExLjgzNjQgNS4xMTE3OSAxMS40NDk0IDQuODM5MzcgMTAuNjk5TDMuNDcyMTMgNi45MzI0NVoiLz4mI3hhOzwvbWFzaz4mI3hhOzxnIG1hc2s9InVybCgjbWFzazBfMzEwNl8yNzEwMSkiPiYjeGE7PGcgZmlsdGVyPSJ1cmwoI2ZpbHRlcjBfZF8zMTA2XzI3MTAxKSI+JiN4YTs8cGF0aCBmaWxsPSJ1cmwoI3BhaW50MV9yYWRpYWxfMzEwNl8yNzEwMSkiIGQ9Ik02LjYzNDM0IDAuODcxOTU0QzguNjcyNDkgMC4yOTI4MzUgMTEuMDgyMyAxLjI5MTgzIDEyLjU1MTQgMy45Mzg4NEMxNi4zMzM1IDkuMDE5NDkgMTkuNzUzNyAxNC45MTk2IDExLjk2MDkgMTcuNjc2OEM0LjE2ODEzIDIwLjQzNCA0LjM1MDY3IDE0Ljc3ODIgMS43NTIyNSAxMC4wOTY0Qy0wLjg0NjE2NyA1LjQxNDU1IDQuNTk2MTkgMS40NTEwNyA2LjYzNDM0IDAuODcxOTU0WiIvPiYjeGE7PC9nPiYjeGE7PGcgZmlsdGVyPSJ1cmwoI2ZpbHRlcjFfZF8zMTA2XzI3MTAxKSI+JiN4YTs8cGF0aCBmaWxsPSJ1cmwoI3BhaW50Ml9yYWRpYWxfMzEwNl8yNzEwMSkiIGQ9Ik0xMi42NTQyIDEwLjI3OThDMTEuODQ2MiAxMi4wMTA3IDkuNTMyOTggMTQuMDk2MSA3Ljk2MzgxIDE0LjIzNTdDNC43NDYwMyAxNC45MzE0IC0wLjI2MjI1NSAxMS43NDczIDAuMTY2MTEgOS41ODQ4MUMwLjU5NDQ3NSA3LjQyMjM3IDQuNjY1NjUgNi4zNjU5OSA3LjQ1MjY5IDYuMzg5OTNDMTAuMjM5NyA2LjQxMzg4IDEzLjQ2MjEgOC41NDg5NSAxMi42NTQyIDEwLjI3OThaIi8+JiN4YTs8L2c+JiN4YTs8ZyBmaWx0ZXI9InVybCgjZmlsdGVyMl9kXzMxMDZfMjcxMDEpIj4mI3hhOzxwYXRoIGZpbGw9InVybCgjcGFpbnQzX3JhZGlhbF8zMTA2XzI3MTAxKSIgZD0iTTMuMzUzNjEgOC4zOTkzNkM2Ljk2MjAxIDcuNDQ1NTcgMTAuMTEwOSA3LjMwNjg2IDEwLjQ4NjcgMTAuNjg5NkMxMC43OTE3IDEzLjQzNDkgNi45NTY4IDE1LjY1NzggNC4yMTE0NyAxNS45NjI4QzEuNDY2MTQgMTYuMjY3OCAtMC4xMDIyOTYgOS4zMTI4NCAzLjM1MzYxIDguMzk5MzZaIi8+JiN4YTs8L2c+JiN4YTs8L2c+JiN4YTs8L2c+JiN4YTs8L2c+JiN4YTs8ZGVmcz4mI3hhOzxmaWx0ZXIgY29sb3ItaW50ZXJwb2xhdGlvbi1maWx0ZXJzPSJzUkdCIiBmaWx0ZXJVbml0cz0idXNlclNwYWNlT25Vc2UiIGhlaWdodD0iMTkuMDM1MiIgd2lkdGg9IjE2Ljk0MTQiIHk9IjAuMDg1MTI1NCIgeD0iMC42MTQ4MjkiIGlkPSJmaWx0ZXIwX2RfMzEwNl8yNzEwMSI+JiN4YTs8ZmVGbG9vZCByZXN1bHQ9IkJhY2tncm91bmRJbWFnZUZpeCIgZmxvb2Qtb3BhY2l0eT0iMCIvPiYjeGE7PGZlQ29sb3JNYXRyaXggcmVzdWx0PSJoYXJkQWxwaGEiIHZhbHVlcz0iMCAwIDAgMCAwIDAgMCAwIDAgMCAwIDAgMCAwIDAgMCAwIDAgMTI3IDAiIHR5cGU9Im1hdHJpeCIgaW49IlNvdXJjZUFscGhhIi8+JiN4YTs8ZmVPZmZzZXQgZHk9IjAuMDQ0ODQwNCIgZHg9IjAuMjI0MjAyIi8+JiN4YTs8ZmVHYXVzc2lhbkJsdXIgc3RkRGV2aWF0aW9uPSIwLjMzNjMwMyIvPiYjeGE7PGZlQ29tcG9zaXRlIG9wZXJhdG9yPSJvdXQiIGluMj0iaGFyZEFscGhhIi8+JiN4YTs8ZmVDb2xvck1hdHJpeCB2YWx1ZXM9IjAgMCAwIDAgMCAwIDAgMCAwIDAgMCAwIDAgMCAwIDAgMCAwIDAuNCAwIiB0eXBlPSJtYXRyaXgiLz4mI3hhOzxmZUJsZW5kIHJlc3VsdD0iZWZmZWN0MV9kcm9wU2hhZG93XzMxMDZfMjcxMDEiIGluMj0iQmFja2dyb3VuZEltYWdlRml4IiBtb2RlPSJub3JtYWwiLz4mI3hhOzxmZUJsZW5kIHJlc3VsdD0ic2hhcGUiIGluMj0iZWZmZWN0MV9kcm9wU2hhZG93XzMxMDZfMjcxMDEiIGluPSJTb3VyY2VHcmFwaGljIiBtb2RlPSJub3JtYWwiLz4mI3hhOzwvZmlsdGVyPiYjeGE7PGZpbHRlciBjb2xvci1pbnRlcnBvbGF0aW9uLWZpbHRlcnM9InNSR0IiIGZpbHRlclVuaXRzPSJ1c2VyU3BhY2VPblVzZSIgaGVpZ2h0PSI5LjI4ODU3IiB3aWR0aD0iMTMuOTg1MyIgeT0iNS43NjE4OCIgeD0iLTAuMzA4MDIzIiBpZD0iZmlsdGVyMV9kXzMxMDZfMjcxMDEiPiYjeGE7PGZlRmxvb2QgcmVzdWx0PSJCYWNrZ3JvdW5kSW1hZ2VGaXgiIGZsb29kLW9wYWNpdHk9IjAiLz4mI3hhOzxmZUNvbG9yTWF0cml4IHJlc3VsdD0iaGFyZEFscGhhIiB2YWx1ZXM9IjAgMCAwIDAgMCAwIDAgMCAwIDAgMCAwIDAgMCAwIDAgMCAwIDEyNyAwIiB0eXBlPSJtYXRyaXgiIGluPSJTb3VyY2VBbHBoYSIvPiYjeGE7PGZlT2Zmc2V0IGR5PSIwLjA0NDg0MDQiIGR4PSIwLjIyNDIwMiIvPiYjeGE7PGZlR2F1c3NpYW5CbHVyIHN0ZERldmlhdGlvbj0iMC4zMzYzMDMiLz4mI3hhOzxmZUNvbXBvc2l0ZSBvcGVyYXRvcj0ib3V0IiBpbjI9ImhhcmRBbHBoYSIvPiYjeGE7PGZlQ29sb3JNYXRyaXggdmFsdWVzPSIwIDAgMCAwIDAgMCAwIDAgMCAwIDAgMCAwIDAgMCAwIDAgMCAwLjQgMCIgdHlwZT0ibWF0cml4Ii8+JiN4YTs8ZmVCbGVuZCByZXN1bHQ9ImVmZmVjdDFfZHJvcFNoYWRvd18zMTA2XzI3MTAxIiBpbjI9IkJhY2tncm91bmRJbWFnZUZpeCIgbW9kZT0ibm9ybWFsIi8+JiN4YTs8ZmVCbGVuZCByZXN1bHQ9InNoYXBlIiBpbjI9ImVmZmVjdDFfZHJvcFNoYWRvd18zMTA2XzI3MTAxIiBpbj0iU291cmNlR3JhcGhpYyIgbW9kZT0ibm9ybWFsIi8+JiN4YTs8L2ZpbHRlcj4mI3hhOzxmaWx0ZXIgY29sb3ItaW50ZXJwb2xhdGlvbi1maWx0ZXJzPSJzUkdCIiBmaWx0ZXJVbml0cz0idXNlclNwYWNlT25Vc2UiIGhlaWdodD0iOS41MDUzNyIgd2lkdGg9IjEwLjQ3NzgiIHk9IjcuMTg0NDkiIHg9IjAuOTIyOTM0IiBpZD0iZmlsdGVyMl9kXzMxMDZfMjcxMDEiPiYjeGE7PGZlRmxvb2QgcmVzdWx0PSJCYWNrZ3JvdW5kSW1hZ2VGaXgiIGZsb29kLW9wYWNpdHk9IjAiLz4mI3hhOzxmZUNvbG9yTWF0cml4IHJlc3VsdD0iaGFyZEFscGhhIiB2YWx1ZXM9IjAgMCAwIDAgMCAwIDAgMCAwIDAgMCAwIDAgMCAwIDAgMCAwIDEyNyAwIiB0eXBlPSJtYXRyaXgiIGluPSJTb3VyY2VBbHBoYSIvPiYjeGE7PGZlT2Zmc2V0IGR5PSIwLjA0NDg0MDQiIGR4PSIwLjIyNDIwMiIvPiYjeGE7PGZlR2F1c3NpYW5CbHVyIHN0ZERldmlhdGlvbj0iMC4zMzYzMDMiLz4mI3hhOzxmZUNvbXBvc2l0ZSBvcGVyYXRvcj0ib3V0IiBpbjI9ImhhcmRBbHBoYSIvPiYjeGE7PGZlQ29sb3JNYXRyaXggdmFsdWVzPSIwIDAgMCAwIDAgMCAwIDAgMCAwIDAgMCAwIDAgMCAwIDAgMCAwLjQgMCIgdHlwZT0ibWF0cml4Ii8+JiN4YTs8ZmVCbGVuZCByZXN1bHQ9ImVmZmVjdDFfZHJvcFNoYWRvd18zMTA2XzI3MTAxIiBpbjI9IkJhY2tncm91bmRJbWFnZUZpeCIgbW9kZT0ibm9ybWFsIi8+JiN4YTs8ZmVCbGVuZCByZXN1bHQ9InNoYXBlIiBpbjI9ImVmZmVjdDFfZHJvcFNoYWRvd18zMTA2XzI3MTAxIiBpbj0iU291cmNlR3JhcGhpYyIgbW9kZT0ibm9ybWFsIi8+JiN4YTs8L2ZpbHRlcj4mI3hhOzxsaW5lYXJHcmFkaWVudCBncmFkaWVudFVuaXRzPSJ1c2VyU3BhY2VPblVzZSIgeTI9IjE0LjQ2NjgiIHgyPSIxMy40NTAxIiB5MT0iMi41MDk1NyIgeDE9IjEuNzIyNzciIGlkPSJwYWludDBfbGluZWFyXzMxMDZfMjcxMDEiPiYjeGE7PHN0b3Agc3RvcC1jb2xvcj0id2hpdGUiLz4mI3hhOzxzdG9wIHN0b3AtY29sb3I9IiNFQUVDRUUiIG9mZnNldD0iMSIvPiYjeGE7PC9saW5lYXJHcmFkaWVudD4mI3hhOzxyYWRpYWxHcmFkaWVudCBncmFkaWVudFRyYW5zZm9ybT0idHJhbnNsYXRlKDcuMTQyMiAxMC41MTEzKSByb3RhdGUoLTc1LjY1MTMpIHNjYWxlKDE1Ljk3MDUgMTUuNzQ5OCkiIGdyYWRpZW50VW5pdHM9InVzZXJTcGFjZU9uVXNlIiByPSIxIiBjeT0iMCIgY3g9IjAiIGlkPSJwYWludDFfcmFkaWFsXzMxMDZfMjcxMDEiPiYjeGE7PHN0b3Agc3RvcC1jb2xvcj0iIzEzNDhGRiIvPiYjeGE7PHN0b3Agc3RvcC1jb2xvcj0iIzA2MjM4RCIgb2Zmc2V0PSIxIi8+JiN4YTs8L3JhZGlhbEdyYWRpZW50PiYjeGE7PHJhZGlhbEdyYWRpZW50IGdyYWRpZW50VHJhbnNmb3JtPSJ0cmFuc2xhdGUoMy4xOTI5OSA3LjMwMjE1KSByb3RhdGUoMzEuOTgpIHNjYWxlKDE1LjI2ODUgMjcuNTc2KSIgZ3JhZGllbnRVbml0cz0idXNlclNwYWNlT25Vc2UiIHI9IjEiIGN5PSIwIiBjeD0iMCIgaWQ9InBhaW50Ml9yYWRpYWxfMzEwNl8yNzEwMSI+JiN4YTs8c3RvcCBzdG9wLWNvbG9yPSIjMDE5NUZGIi8+JiN4YTs8c3RvcCBzdG9wLWNvbG9yPSIjMTE0N0U5IiBvZmZzZXQ9IjEiLz4mI3hhOzwvcmFkaWFsR3JhZGllbnQ+JiN4YTs8cmFkaWFsR3JhZGllbnQgZ3JhZGllbnRUcmFuc2Zvcm09InRyYW5zbGF0ZSgzLjg2NDM3IDE1LjI1NDIpIHJvdGF0ZSgtNDYuOTU3OSkgc2NhbGUoMTEuNzY0NCAxNi4xODIpIiBncmFkaWVudFVuaXRzPSJ1c2VyU3BhY2VPblVzZSIgcj0iMSIgY3k9IjAiIGN4PSIwIiBpZD0icGFpbnQzX3JhZGlhbF8zMTA2XzI3MTAxIj4mI3hhOzxzdG9wIHN0b3AtY29sb3I9IiMwMEJCRkYiLz4mI3hhOzxzdG9wIHN0b3AtY29sb3I9IiMwMDhCRkYiIG9mZnNldD0iMSIvPiYjeGE7PC9yYWRpYWxHcmFkaWVudD4mI3hhOzxjbGlwUGF0aCBpZD0iY2xpcDBfMzEwNl8yNzEwMSI+JiN4YTs8cmVjdCB0cmFuc2Zvcm09InRyYW5zbGF0ZSgtMC4wMDA5NzY1NjIpIiBmaWxsPSJ3aGl0ZSIgaGVpZ2h0PSIxNS45OTk5IiB3aWR0aD0iMTUuOTk5OSIvPiYjeGE7PC9jbGlwUGF0aD4mI3hhOzxjbGlwUGF0aCBpZD0iY2xpcDFfMzEwNl8yNzEwMSI+JiN4YTs8cmVjdCB0cmFuc2Zvcm09InRyYW5zbGF0ZSgzLjMzMjI4IDMuNSkiIGZpbGw9IndoaXRlIiBoZWlnaHQ9IjkuNjY2NjQiIHdpZHRoPSI5LjY2NjY0Ii8+JiN4YTs8L2NsaXBQYXRoPiYjeGE7PC9kZWZzPiYjeGE7PC9zdmc+;points=[[0,0,0,0,0],[0,0.25,0,0,0],[0,0.5,0,0,0],[0,0.75,0,0,0],[0.25,0,0,0,0],[0.5,0,0,0,0],[0.75,0,0,0,0],[1,0,0,0,0],[1,0.25,0,0,0],[1,0.5,0,0,0],[1,0.75,0,0,0]];" parent="1" vertex="1">
          <mxGeometry x="767.44" y="350" width="32" height="32" as="geometry" />
        </mxCell>
        <mxCell id="wX9Vt87GlmlP2Sd1hl1M-2" value="HTML5 App&#xa;Repository" style="shape=image;verticalLabelPosition=bottom;verticalAlign=top;imageAspect=0;aspect=fixed;image=data:image/svg+xml,PHN2ZyB4bWxucz0iaHR0cDovL3d3dy53My5vcmcvMjAwMC9zdmciIGZpbGw9Im5vbmUiIHZpZXdCb3g9IjAgMCA0OSA0OSIgaGVpZ2h0PSI0OSIgd2lkdGg9IjQ5Ij4mI3hhOzxnIGNsaXAtcGF0aD0idXJsKCNjbGlwMF8yNjIyXzM2NTQpIj4mI3hhOzxjaXJjbGUgc3Ryb2tlLXdpZHRoPSIwLjg1NzE0MyIgc3Ryb2tlPSIjRDVEQUREIiBmaWxsPSJ1cmwoI3BhaW50MF9saW5lYXJfMjYyMl8zNjU0KSIgcj0iMjMuNTcxNCIgY3k9IjI0LjAzNDkiIGN4PSIyNC41Ii8+JiN4YTs8ZyBjbGlwLXBhdGg9InVybCgjY2xpcDFfMjYyMl8zNjU0KSI+JiN4YTs8cGF0aCBmaWxsPSJ1cmwoI3BhaW50MV9yYWRpYWxfMjYyMl8zNjU0KSIgZD0iTTIzLjU5OTUgMTMuOTg0OUMyMC41MTU1IDEzLjk4NDkgMTguMjA3MSAxNi45NzU4IDE4LjQyMDQgMTkuODA4OUMxOC40NTE2IDIwLjIyNCAxOC4yODk2IDIwLjYzMDMgMTcuOTgxMyAyMC45MUMxNy42NzMgMjEuMTg5NyAxNy4yNTMgMjEuMzExNiAxNi44NDI4IDIxLjI0MDJDMTUuNTU2NyAyMS4wMTY2IDE0LjYyMjQgMjEuMzYxMyAxNC4wMDU2IDIxLjkyOUMxMy4zNjc3IDIyLjUxNjEgMTIuOTUgMjMuNDU0MSAxMi45NSAyNC42MDQ0QzEyLjk1IDI1Ljc0MDUgMTMuMjg4MSAyNi41NzY3IDEzLjgyMDYgMjcuMTIzMUMxNC4zNDU4IDI3LjY2MjEgMTUuMjA3NCAyOC4wNzA0IDE2LjU2MDQgMjguMDcwNEgxOS43NTg0QzIwLjUwNCAyOC4wNzA0IDIxLjEwODQgMjguNjc0OCAyMS4xMDg0IDI5LjQyMDRDMjEuMTA4NCAzMC4xNjYgMjAuNTA0IDMwLjc3MDQgMTkuNzU4NCAzMC43NzA0SDE2LjU2MDRDMTQuNjQyOSAzMC43NzA0IDEzLjAyNDIgMzAuMTc0NSAxMS44ODY5IDI5LjAwNzRDMTAuNzU2OCAyNy44NDc4IDEwLjI1IDI2LjI3NiAxMC4yNSAyNC42MDQ0QzEwLjI1IDIyLjgwODIgMTAuOTA4MyAyMS4xMTAyIDEyLjE3NyAxOS45NDI0QzEzLjEzMTkgMTkuMDYzNiAxNC4zNjc5IDE4LjU0NTMgMTUuNzcxNSAxOC40NzkxQzE2LjI0NDIgMTQuODE1MiAxOS4yOTc4IDExLjI4NDkgMjMuNTk5NSAxMS4yODQ5QzI2Ljk4OSAxMS4yODQ5IDI5LjUzMSAxMy4xNzg2IDMwLjkwODIgMTYuMDA3OEMzMy40MTY0IDE2LjAyODMgMzUuNzU0OSAxNy40OTUgMzYuNTQ2NCAyMC4zMzE0QzM2Ljc0NjggMjEuMDQ5NiAzNi4zMjcxIDIxLjc5NDIgMzUuNjA5IDIxLjk5NDZDMzQuODkwOSAyMi4xOTUxIDM0LjE0NjIgMjEuNzc1NCAzMy45NDU4IDIxLjA1NzJDMzMuNDU1OSAxOS4zMDE3IDMxLjk2MTcgMTguNDkxIDMwLjI1MDggMTguNzU0M0MyOS42MTc5IDE4Ljg1MTcgMjkuMDAzNyAxOC40OTEgMjguNzgwMyAxNy44OTA5QzI3Ljg1OCAxNS40MTM0IDI2LjAzMjYgMTMuOTg0OSAyMy41OTk1IDEzLjk4NDlaIiBjbGlwLXJ1bGU9ImV2ZW5vZGQiIGZpbGwtcnVsZT0iZXZlbm9kZCIvPiYjeGE7PHBhdGggZmlsbD0idXJsKCNwYWludDJfcmFkaWFsXzI2MjJfMzY1NCkiIGQ9Ik0yNS40OTk1IDI0LjA3MjdIMjYuMTUwMlYyNC43ODQ5SDI2Ljg2MDlWMjIuNjU4MkgyNi4xNTAyVjIzLjM2MDVIMjUuNDk5NVYyMi42NTgySDI0Ljc4ODlWMjQuNzg0OUgyNS40OTk1VjI0LjA3MjdaTTI3Ljc5NiAyNC43ODQ5SDI4LjUwNzJWMjMuMzYzNkgyOS4xMzMyVjIyLjY1ODJIMjcuMTdWMjMuMzYzNkgyNy43OTZWMjQuNzg0OVpNMzAuNjI5NiAyNC40ODY5TDMwLjE0MDIgMjMuNzMwNVYyNC43ODQ5SDI5LjQ0NDhWMjIuNjU4MkgzMC4xODZMMzAuNjQyMiAyMy40MDUxTDMxLjA5NzQgMjIuNjU4MkgzMS44MzkxVjI0Ljc4NDlIMzEuMTMxMVYyMy43MzA1TDMwLjY0MjIgMjQuNDg2OUgzMC42Mjk2Wk0zMy44NTg5IDI0LjA4MTZIMzIuODU5MVYyMi42NTgySDMyLjE0NzlWMjQuNzg0OUgzMy44NTg5VjI0LjA4MTZaTTI0Ljc2NTcgMzcuMDE4MUwyMy43NDkxIDI1LjYxNzJIMzQuOTI0TDMzLjkwNTkgMzcuMDE2NkwyOS4zMjk4IDM4LjI4NDlMMjQuNzY1NyAzNy4wMTgxWk0yNi42MDI2IDI5LjAxNjNMMjYuODczMyAzMi4wNTI4SDI5LjMzMjJIMjkuMzM5NUgzMC42ODk0TDMwLjU2MTYgMzMuNDgxNUwyOS4zMzIyIDMzLjgxMzJMMjguMTAzOCAzMy40ODI1TDI4LjAyNDkgMzIuNjAzN0gyNy40Mjg5SDI2LjkxODVMMjcuMDczIDM0LjMzMzVMMjkuMzMxMSAzNC45NjAxTDI5LjMzNTkgMzQuOTU4NUwzMS41OTE5IDM0LjMzMzVMMzEuNjA4MiAzNC4xNDc1TDMxLjg2NzMgMzEuMjQ3TDMxLjg5NDEgMzAuOTUxMUgzMS41OTcxSDI5LjMzOTVIMjkuMzMyMkgyNy44ODE0TDI3Ljc4MDUgMjkuODIyNkgyOS4zMzU5SDI5LjMzOTVIMzEuOTk0NUgzMS45OTgyTDMyLjAyMDMgMjkuNTc1TDMyLjA3MDcgMjkuMDE2M0wzMi4wOTcgMjguNzIwOUgyOS4zMzk1SDI5LjMzNTlIMjYuNTc2M0wyNi42MDI2IDI5LjAxNjNaIiBjbGlwLXJ1bGU9ImV2ZW5vZGQiIGZpbGwtcnVsZT0iZXZlbm9kZCIvPiYjeGE7PC9nPiYjeGE7PC9nPiYjeGE7PGRlZnM+JiN4YTs8bGluZWFyR3JhZGllbnQgZ3JhZGllbnRVbml0cz0idXNlclNwYWNlT25Vc2UiIHkyPSI0NC4yNzkyIiB4Mj0iNDEuNTY0NSIgeTE9IjYuODQ3NzUiIHgxPSI0Ljg1Mjg3IiBpZD0icGFpbnQwX2xpbmVhcl8yNjIyXzM2NTQiPiYjeGE7PHN0b3Agc3RvcC1jb2xvcj0id2hpdGUiLz4mI3hhOzxzdG9wIHN0b3AtY29sb3I9IiNFQUVDRUUiIG9mZnNldD0iMSIvPiYjeGE7PC9saW5lYXJHcmFkaWVudD4mI3hhOzxyYWRpYWxHcmFkaWVudCBncmFkaWVudFRyYW5zZm9ybT0idHJhbnNsYXRlKDE0LjMzNTYgMTQuMTQ2KSByb3RhdGUoMzYuNzkwNykgc2NhbGUoMjIuNzc3NSA0MS4yODQpIiBncmFkaWVudFVuaXRzPSJ1c2VyU3BhY2VPblVzZSIgcj0iMSIgY3k9IjAiIGN4PSIwIiBpZD0icGFpbnQxX3JhZGlhbF8yNjIyXzM2NTQiPiYjeGE7PHN0b3Agc3RvcC1jb2xvcj0iIzAxOTVGRiIvPiYjeGE7PHN0b3Agc3RvcC1jb2xvcj0iIzExNDdFOSIgb2Zmc2V0PSIxIi8+JiN4YTs8L3JhZGlhbEdyYWRpZW50PiYjeGE7PHJhZGlhbEdyYWRpZW50IGdyYWRpZW50VHJhbnNmb3JtPSJ0cmFuc2xhdGUoMjUuNDc5NiAyNS4wMDkpIHJvdGF0ZSg1NC40MzA5KSBzY2FsZSgxMy4zODIxIDExLjUzOTcpIiBncmFkaWVudFVuaXRzPSJ1c2VyU3BhY2VPblVzZSIgcj0iMSIgY3k9IjAiIGN4PSIwIiBpZD0icGFpbnQyX3JhZGlhbF8yNjIyXzM2NTQiPiYjeGE7PHN0b3Agc3RvcC1jb2xvcj0iIzEzNDhGRiIvPiYjeGE7PHN0b3Agc3RvcC1jb2xvcj0iIzA2MjM4RCIgb2Zmc2V0PSIxIi8+JiN4YTs8L3JhZGlhbEdyYWRpZW50PiYjeGE7PGNsaXBQYXRoIGlkPSJjbGlwMF8yNjIyXzM2NTQiPiYjeGE7PHJlY3QgdHJhbnNmb3JtPSJ0cmFuc2xhdGUoMC41IDAuMDM0OTEyMSkiIGZpbGw9IndoaXRlIiBoZWlnaHQ9IjQ4IiB3aWR0aD0iNDgiLz4mI3hhOzwvY2xpcFBhdGg+JiN4YTs8Y2xpcFBhdGggaWQ9ImNsaXAxXzI2MjJfMzY1NCI+JiN4YTs8cmVjdCB0cmFuc2Zvcm09InRyYW5zbGF0ZSgxMC4yNSAxMS4yODQ5KSIgZmlsbD0id2hpdGUiIGhlaWdodD0iMjciIHdpZHRoPSIyNyIvPiYjeGE7PC9jbGlwUGF0aD4mI3hhOzwvZGVmcz4mI3hhOzwvc3ZnPg==;points=[[0,0,0,0,0],[0,0.25,0,0,0],[0,0.5,0,0,0],[0,0.75,0,0,0],[0.25,0,0,0,0],[0.5,0,0,0,0],[0.75,0,0,0,0],[1,0,0,0,0],[1,0.25,0,0,0],[1,0.5,0,0,0],[1,0.75,0,0,0]];" parent="1" vertex="1">
          <mxGeometry x="869.4399999999998" y="351.9999999999998" width="32" height="32" as="geometry" />
        </mxCell>
        <mxCell id="NNhpY-dIR3qiy-xcSVZ_-43" value="" style="endArrow=blockThin;html=1;strokeColor=#475e75;bendable=1;rounded=0;endFill=1;endSize=4;strokeWidth=1.5;startSize=4;startArrow=none;startFill=0;" parent="1" edge="1">
          <mxGeometry width="50" height="50" relative="1" as="geometry">
            <mxPoint x="901.44" y="367.31999999999994" as="sourcePoint" />
            <mxPoint x="971.94" y="367" as="targetPoint" />
            <Array as="points" />
          </mxGeometry>
        </mxCell>
        <mxCell id="NNhpY-dIR3qiy-xcSVZ_-26" value="SAP HANA Cloud" style="shape=image;verticalLabelPosition=bottom;labelBackgroundColor=default;verticalAlign=top;aspect=fixed;imageAspect=0;image=data:image/svg+xml,PHN2ZyB4bWxucz0iaHR0cDovL3d3dy53My5vcmcvMjAwMC9zdmciIGZpbGw9Im5vbmUiIHZpZXdCb3g9IjAgMCAxNiAxNiIgaGVpZ2h0PSIxNiIgd2lkdGg9IjE2Ij4mI3hhOzxjaXJjbGUgc3Ryb2tlLXdpZHRoPSIwLjI4NTcwOCIgc3Ryb2tlPSIjRDVEQUREIiBmaWxsPSJ1cmwoI3BhaW50MF9saW5lYXJfMzUxNF80MDIwNikiIHI9IjcuODU2OTYiIGN5PSI3Ljk5OTA4IiBjeD0iNy45OTc4NiIvPiYjeGE7PGcgY2xpcC1wYXRoPSJ1cmwoI2NsaXAwXzM1MTRfNDAyMDYpIj4mI3hhOzxwYXRoIGZpbGw9InVybCgjcGFpbnQxX2xpbmVhcl8zNTE0XzQwMjA2KSIgZD0iTTUuMjUwMjggNi4xOTMzOUM1LjE0MjI1IDQuNzU4MTQgNi4yOTI0MSAzLjE5OTQ2IDcuOTM1NTcgMy4xOTk0NkM5LjIwODQyIDMuMTk5NDYgMTAuMTQyNCAzLjk3MTA4IDEwLjU4ODIgNS4xNjg2MUMxMS44MjQ2IDUuMDgyMjQgMTIuOTk3NSA2LjEzMzk0IDEyLjk5NzUgNy42NDQwNkMxMi45OTc1IDguNjA0NTQgMTIuNTQxMSA5LjMzNCAxMS44ODE1IDkuNzQyNTRWOC40NjQ3NUMxMS44ODE1IDguNDE5MzggMTEuODc3MiA4LjM4MzM4IDExLjg3NiA4LjM3MzAyQzExLjg3NDEgOC4zNTY5OSAxMS44NzIxIDguMzQzNDMgMTEuODcwNiA4LjMzNDM2QzExLjg2NzYgOC4zMTU5MyAxMS44NjQzIDguMjk4OTYgMTEuODYxNyA4LjI4NTgxQzExLjg1NjIgOC4yNTg5OSAxMS44NDkzIDguMjI5MTIgMTEuODQxOCA4LjIwMDA3QzExLjgzNTcgOC4xNzY2OSAxMS44MjMyIDguMTMwMTkgMTEuODA0OCA4LjA4MTE1TDExLjgwNDIgOC4wNzk2OUMxMS44MDA5IDguMDcxMDIgMTEuNzkxOSA4LjA0NzAzIDExLjc3NjYgOC4wMTUwOUMxMS41NjQyIDcuNDYwMTcgMTEuMDYzMiA3LjA5Nzc3IDEwLjU2NzYgNi44ODE4NEMxMC4wMjE5IDYuNjQ0MSA5LjM0ODE5IDYuNTE5OTggOC42MjkyNSA2LjUxOTk4QzcuOTEwOTQgNi41MTk5OCA3LjIzNzQxIDYuNjQzMTYgNi42OTEyOSA2Ljg4MDQxQzYuMTgyMzIgNy4xMDE1NCA1LjY2OTM1IDcuNDc2MSA1LjQ2NDY3IDguMDU0MDNDNS40MTk4MyA4LjE1NzMzIDUuMzc3MDUgOC4yOTc3IDUuMzc3MDUgOC40Njc3MVYxMC4xMDdINS4wMzg4NkMzLjY5Mjk3IDEwLjEwNyAyLjk5NzU2IDkuMjgwNTQgMi45OTc1NiA4LjEyNTE0QzIuOTk3NTYgNi45MTI1OSAzLjg4MzE5IDUuOTU1NjQgNS4yNTAyOCA2LjE5MzM5WiIvPiYjeGE7PHBhdGggZmlsbD0idXJsKCNwYWludDJfbGluZWFyXzM1MTRfNDAyMDYpIiBkPSJNOC42Mjk0MSA3LjI2OTc4QzkuOTA3MTkgNy4yNjk3OCAxMC45MDA0IDcuNzE0NDggMTEuMDkzMSA4LjMzMTE0QzExLjEwMjcgOC4zMjE1IDExLjEzMTYgOC40NDgyIDExLjEzMTYgOC40NjQ1NVYxMS45MTg0QzExLjEzMTYgMTIuNjQ3NyAxMC4wNTU0IDEzLjE5OTIgOC42Mjk0MSAxMy4xOTkyQzcuMjAzMzggMTMuMTk5MiA2LjEyNzIgMTIuNjQ3NyA2LjEyNzIgMTEuOTE4NFY4LjQ2NzUxQzYuMTI3MiA4LjQxNzExIDYuMTQyMDIgOC4zNzI2NCA2LjE2Mjc3IDguMzMxMTRDNi4zNTg0NCA3LjcxMTUyIDcuMzUxNjIgNy4yNjk3OCA4LjYyOTQxIDcuMjY5NzhaTTEwLjUzODcgOC41NTA1M0MxMC41Mzg3IDguMjc3NzcgOS43NzY3NCA3Ljg2MjcyIDguNjI5NDEgNy44NjI3MkM3LjQ4MjA3IDcuODYyNzIgNi43MjAxNCA4LjI3Nzc3IDYuNzIwMTQgOC41NTA1M0M2LjcyMDE0IDguODIzMjggNy40ODIwNyA5LjIzODM0IDguNjI5NDEgOS4yMzgzNEM5Ljc3Njc0IDkuMjM4MzQgMTAuNTM4NyA4LjgyMzI4IDEwLjUzODcgOC41NTA1M1pNMTAuNjEwNyAxMC4wNzQyQzEwLjYxMDcgOS44NjcwOCAxMC40NDI4IDkuNjk5MTkgMTAuMjM1NyA5LjY5OTE5QzEwLjAyODYgOS42OTkxOSA5Ljg2MDc0IDkuODY3MDggOS44NjA3NCAxMC4wNzQyVjExLjgwNzNDOS44NjA3NCAxMi4wMTQ0IDEwLjAyODYgMTIuMTgyMyAxMC4yMzU3IDEyLjE4MjNDMTAuNDQyOCAxMi4xODIzIDEwLjYxMDcgMTIuMDE0NCAxMC42MTA3IDExLjgwNzNMMTAuNjEwNyAxMC4wNzQyWiIgY2xpcC1ydWxlPSJldmVub2RkIiBmaWxsLXJ1bGU9ImV2ZW5vZGQiLz4mI3hhOzwvZz4mI3hhOzxkZWZzPiYjeGE7PGxpbmVhckdyYWRpZW50IGdyYWRpZW50VW5pdHM9InVzZXJTcGFjZU9uVXNlIiB5Mj0iMTQuNzQ3IiB4Mj0iMTMuNjg1OSIgeTE9IjIuMjcwMTYiIHgxPSIxLjQ0ODk3IiBpZD0icGFpbnQwX2xpbmVhcl8zNTE0XzQwMjA2Ij4mI3hhOzxzdG9wIHN0b3AtY29sb3I9IndoaXRlIi8+JiN4YTs8c3RvcCBzdG9wLWNvbG9yPSIjRUFFQ0VFIiBvZmZzZXQ9IjEiLz4mI3hhOzwvbGluZWFyR3JhZGllbnQ+JiN4YTs8bGluZWFyR3JhZGllbnQgZ3JhZGllbnRVbml0cz0idXNlclNwYWNlT25Vc2UiIHkyPSIxMC43ODI1IiB4Mj0iOS4wMTk1NSIgeTE9IjQuMjMyNDUiIHgxPSI0LjQ5NjU5IiBpZD0icGFpbnQxX2xpbmVhcl8zNTE0XzQwMjA2Ij4mI3hhOzxzdG9wIHN0b3AtY29sb3I9IiMwMTk1RkYiLz4mI3hhOzxzdG9wIHN0b3AtY29sb3I9IiMxMTQ3RTkiIG9mZnNldD0iMC45OTEwMjgiLz4mI3hhOzwvbGluZWFyR3JhZGllbnQ+JiN4YTs8bGluZWFyR3JhZGllbnQgZ3JhZGllbnRVbml0cz0idXNlclNwYWNlT25Vc2UiIHkyPSIxMS42MTIiIHgyPSIxMC45NjA3IiB5MT0iOC4xNDIxMiIgeDE9IjYuODY3MDciIGlkPSJwYWludDJfbGluZWFyXzM1MTRfNDAyMDYiPiYjeGE7PHN0b3Agc3RvcC1jb2xvcj0iIzEzNDhGRiIvPiYjeGE7PHN0b3Agc3RvcC1jb2xvcj0iIzA2MjM4RCIgb2Zmc2V0PSIxIi8+JiN4YTs8L2xpbmVhckdyYWRpZW50PiYjeGE7PGNsaXBQYXRoIGlkPSJjbGlwMF8zNTE0XzQwMjA2Ij4mI3hhOzxyZWN0IHRyYW5zZm9ybT0idHJhbnNsYXRlKDIuOTk3OCAzLjE5OTIyKSIgZmlsbD0id2hpdGUiIGhlaWdodD0iOS45OTk5MiIgd2lkdGg9IjkuOTk5OTEiLz4mI3hhOzwvY2xpcFBhdGg+JiN4YTs8L2RlZnM+JiN4YTs8L3N2Zz4=;points=[[0,0,0,0,0],[0,0.25,0,0,0],[0,0.5,0,0,0],[0,0.75,0,0,0],[0.25,0,0,0,0],[0.5,0,0,0,0],[0.75,0,0,0,0],[1,0,0,0,0],[1,0.25,0,0,0],[1,0.5,0,0,0],[1,0.75,0,0,0]];" parent="1" vertex="1">
          <mxGeometry x="978.44" y="457.19000000000005" width="32" height="32" as="geometry" />
        </mxCell>
        <mxCell id="NNhpY-dIR3qiy-xcSVZ_-29" value="SAP Application&#xa;Logging service&#xa;" style="shape=image;verticalLabelPosition=bottom;verticalAlign=top;imageAspect=0;aspect=fixed;image=data:image/svg+xml,PHN2ZyB4bWxucz0iaHR0cDovL3d3dy53My5vcmcvMjAwMC9zdmciIGZpbGw9Im5vbmUiIHZpZXdCb3g9IjAgMCAxNiAxNiIgaGVpZ2h0PSIxNiIgd2lkdGg9IjE2Ij4mI3hhOzxjaXJjbGUgc3Ryb2tlLXdpZHRoPSIwLjI4NTcwOCIgc3Ryb2tlPSIjRDVEQUREIiBmaWxsPSJ1cmwoI3BhaW50MF9saW5lYXJfMzUxNF80MDE5NSkiIHI9IjcuODU2OTYiIGN5PSI3Ljk5OTU3IiBjeD0iNy45OTYxNSIvPiYjeGE7PGcgY2xpcC1wYXRoPSJ1cmwoI2NsaXAwXzM1MTRfNDAxOTUpIj4mI3hhOzxwYXRoIGZpbGw9InVybCgjcGFpbnQxX2xpbmVhcl8zNTE0XzQwMTk1KSIgZD0iTTQuMjM5MjcgNC4xNDA0NkMzLjk5MzYxIDQuMzY2MTcgMy44MDE3NCA0LjY3OTk3IDMuNzk2MzkgNS4wNzMyMUMzLjc5NjM5IDUuMDczMjEgMy44MDg2MiAxMC4xMzgyIDMuODA4NjIgMTAuMTM2OUwzLjgwODYyIDEwLjEzNzZDMy44MDkwMiAxMS4wMjA3IDQuNTMxMjYgMTEuNDk3OCA1LjE3Mjk1IDExLjczNDJDNS4zNzEwNyAxMS44MDcyIDUuNTg0ODQgMTEuODY3MyA1LjgwODY5IDExLjkxNTdDNi4xNTQ3NSAxMS45OTA2IDYuNDY0NzEgMTEuNzEyMiA2LjQ2NDcxIDExLjM1ODFDNi40NjQ3MSAxMS4wNjIzIDYuMjQ0OTUgMTAuODE3MSA1Ljk1NzIzIDEwLjc0ODVDNS44MTY1OCAxMC43MTQ5IDUuNjg1NTUgMTAuNjc2MiA1LjU2NjM5IDEwLjYzMjNDNS4wMjY4MSAxMC40MzM1IDQuOTYyNDUgMTAuMjMxMiA0Ljk2MjQ2IDEwLjEzNjlMNC45NjE4MSA5LjQxNzZDNS4xNjkxIDkuNDgxMjkgNS4zODY2MyA5LjUzMzU4IDUuNjA2NDQgOS41NzY0QzUuNzgwNjcgOS42MTAzNCA1Ljk1NTQ1IDkuNjM3NTYgNi4xMzA5NiA5LjY1OTQyQzYuMzQ4NDUgOS42ODY1MiA2LjUzNTc3IDkuNTExNTUgNi41MzU3NyA5LjI5MjM4QzYuNTM1NzcgOS4wOTk4MyA2LjM4OTc3IDguOTM4NTkgNi4xOTg5MiA4LjkxMzA4QzYuMDczNDggOC44OTYzMSA1Ljk0ODQ2IDguODc2NTcgNS44MjM3NCA4Ljg1MjI3QzUuNDYyNSA4Ljc4MTkgNS4xNzIwMSA4LjY5MzQ0IDQuOTU5MDUgOC41OTg5Nkw0Ljk1NzcgNy43MjExNUM1LjE2NjIzIDcuNzg1NDEgNS4zODUxOCA3LjgzODExIDUuNjA2NDQgNy44ODEyMUM2LjIwNzE2IDcuOTk4MjMgNi44ODgxIDguMDU2MjMgNy41NjA1OCA4LjA1NzY3QzguMjMyODkgOC4wNTkxIDguOTEyNzYgOC4wMDQwMyA5LjUxMDk1IDcuODg3MzZDOS43MjQ5IDcuODQ1NjMgOS45MzcyMyA3Ljc5NDM5IDEwLjE0IDcuNzMxNDVDMTAuMTQgNy43NTYwMyAxMC4xMzk5IDcuNzgwNjIgMTAuMTM5OSA3LjgwNTJDMTAuMTM5NCA4LjEyNDc0IDEwLjM5ODcgOC4zODM5OCAxMC43MTgyIDguMzgzOThDMTEuMDM3NSA4LjM4Mzk4IDExLjI5NjMgOC4xMjUxNSAxMS4yOTYzIDcuODA1ODdMMTEuMjk2MiA1LjA4MTMyQzExLjI5NjIgNC42ODIwNSAxMS4xMDA5IDQuMzY0ODYgMTAuODUzMyA0LjEzOTA2QzEwLjYxMzUgMy45MjAyNiAxMC4zMDE0IDMuNzYyMjcgOS45NzM1NSAzLjY0NjIzQzkuMzE0NTEgMy40MTI5NyA4LjQ0OTExIDMuMjk5OCA3LjUzNzUxIDMuMjk5OEM2LjYyNTkzIDMuMjk5OCA1Ljc2NjY5IDMuNDEyOTYgNS4xMTI0MiAzLjY0NjgzQzQuNzg2NjMgMy43NjMyOCA0LjQ3NzQxIDMuOTIxNjUgNC4yMzkyNyA0LjE0MDQ2Wk00Ljk1MzM1IDYuMDEwODdMNC45NTQ5NiA2LjkzNzExQzUuMTY4MjggNy4wMzIyNyA1LjQ2MDE4IDcuMTIxNDIgNS44MjM3NCA3LjE5MjI0QzYuMzQxNDQgNy4yOTMwOSA2Ljk0OTA1IDcuMzQ2NDIgNy41NjMwMSA3LjM0NzczQzguMTc3MTQgNy4zNDkwNCA4Ljc4MTYgNy4yOTgyNiA5LjI5MzM4IDcuMTk4NDRDOS42NTMxMyA3LjEyODI3IDkuOTM3NjEgNy4wMzkzOCAxMC4xNDI1IDYuOTQ0OTlWNi4wMDQ4MkMxMC4wODY5IDYuMDI3NTYgMTAuMDMwNiA2LjA0ODk0IDkuOTczNzIgNi4wNjkwNkM5LjMxNDY5IDYuMzAyMzIgOC40NDkyOCA2LjQxNTQ5IDcuNTM3NjkgNi40MTU0OUM2LjYzMzY0IDYuNDE1NDkgNS43NzY2MyA2LjMwNDE5IDUuMTIyNSA2LjA3NDdDNS4wNjU1MyA2LjA1NDcxIDUuMDA5MDUgNi4wMzM0NyA0Ljk1MzM1IDYuMDEwODdaIiBjbGlwLXJ1bGU9ImV2ZW5vZGQiIGZpbGwtcnVsZT0iZXZlbm9kZCIvPiYjeGE7PHBhdGggZmlsbD0idXJsKCNwYWludDJfbGluZWFyXzM1MTRfNDAxOTUpIiBkPSJNOC4yOTExNSA5LjE0NkM3LjY5OTQyIDkuMTQ2IDcuMjE5NzMgOS42MjU2OSA3LjIxOTczIDEwLjIxNzRWMTEuODY1N0M3LjIxOTczIDEyLjQ1NzUgNy42OTk0MiAxMi45MzcyIDguMjkxMTUgMTIuOTM3MkgxMi4wOTk5QzEyLjY5MTYgMTIuOTM3MiAxMy4xNzEzIDEyLjQ1NzUgMTMuMTcxMyAxMS44NjU3VjEwLjIxNzRDMTMuMTcxMyA5LjYyNTY5IDEyLjY5MTYgOS4xNDYgMTIuMDk5OSA5LjE0Nkg4LjI5MTE1Wk0xMS4zNTQ2IDEyLjExM0MxMS4yODcgMTIuMTEzIDExLjIxOTMgMTIuMDg2OCAxMS4xNjY4IDEyLjAzNTdDMTEuMDYzMiAxMS45MzIxIDExLjA2MzIgMTEuNzYzNiAxMS4xNjY4IDExLjY1OTlMMTEuNzg0MyAxMS4wNDI1TDExLjE2NjggMTAuNDIzNkMxMS4wNjMyIDEwLjMyIDExLjA2MzIgMTAuMTUxNSAxMS4xNjY4IDEwLjA0NzlDMTEuMjcwNCA5Ljk0NDI4IDExLjQzODkgOS45NDQyOCAxMS41NDI1IDEwLjA0NzlMMTIuMzQ3OCAxMC44NTMyQzEyLjM5NzYgMTAuOTAzIDEyLjQyNTIgMTAuOTcwNiAxMi40MjUyIDExLjA0MTFDMTIuNDI1MiAxMS4xMTE1IDEyLjM5NzYgMTEuMTc5MiAxMi4zNDc4IDExLjIyOUwxMS41NDI1IDEyLjAzNDNDMTEuNDkgMTIuMDg2OCAxMS40MjIzIDEyLjExMyAxMS4zNTQ2IDEyLjExM1pNOS4wMzY3MSAxMi4xMTNDOC45NjkwMiAxMi4xMTMgOC45MDEzNCAxMi4wODY4IDguODQ4ODUgMTIuMDM1N0w4LjA0MzUxIDExLjIzMDNDNy45Mzk5MSAxMS4xMjY3IDcuOTM5OTEgMTAuOTU4MiA4LjA0MzUxIDEwLjg1NDZMOC44NDg4NSAxMC4wNDkzQzguOTUyNDUgOS45NDU2NiA5LjEyMDk3IDkuOTQ1NjYgOS4yMjQ1OCAxMC4wNDkzQzkuMzI4MTggMTAuMTUyOSA5LjMyODE4IDEwLjMyMTQgOS4yMjQ1OCAxMC40MjVMOC42MDU3MiAxMS4wNDI1TDkuMjIzMiAxMS42NTk5QzkuMzI2OCAxMS43NjM2IDkuMzI2OCAxMS45MzIxIDkuMjIzMiAxMi4wMzU3QzkuMTcyMDkgMTIuMDg2OCA5LjEwNDQgMTIuMTEzIDkuMDM2NzEgMTIuMTEzWk05Ljc0MjU5IDEyLjA2NjFDOS43Nzg1MSAxMi4wODEzIDkuODE0NDIgMTIuMDg4MiA5Ljg1MDM0IDEyLjA4ODJDOS45NTI1NiAxMi4wODgyIDEwLjA0OTMgMTIuMDI4OCAxMC4wOTIxIDExLjkzMDdMMTAuNzgyOCAxMC4zNjk3QzEwLjg0MjIgMTAuMjM1OCAxMC43ODE0IDEwLjA3OTcgMTAuNjQ3NCAxMC4wMjAzQzEwLjUxMzQgOS45NjA4NiAxMC4zNTczIDEwLjAyMTYgMTAuMjk3OSAxMC4xNTU2TDkuNjA3MjIgMTEuNzE2NkM5LjU0NzgyIDExLjg1MDYgOS42MDg2IDEyLjAwNjcgOS43NDI1OSAxMi4wNjYxWiIgY2xpcC1ydWxlPSJldmVub2RkIiBmaWxsLXJ1bGU9ImV2ZW5vZGQiLz4mI3hhOzwvZz4mI3hhOzxkZWZzPiYjeGE7PGxpbmVhckdyYWRpZW50IGdyYWRpZW50VW5pdHM9InVzZXJTcGFjZU9uVXNlIiB5Mj0iMTQuNzQ3NSIgeDI9IjEzLjY4NDIiIHkxPSIyLjI3MDY1IiB4MT0iMS40NDcyNiIgaWQ9InBhaW50MF9saW5lYXJfMzUxNF80MDE5NSI+JiN4YTs8c3RvcCBzdG9wLWNvbG9yPSJ3aGl0ZSIvPiYjeGE7PHN0b3Agc3RvcC1jb2xvcj0iI0VBRUNFRSIgb2Zmc2V0PSIxIi8+JiN4YTs8L2xpbmVhckdyYWRpZW50PiYjeGE7PGxpbmVhckdyYWRpZW50IGdyYWRpZW50VW5pdHM9InVzZXJTcGFjZU9uVXNlIiB5Mj0iOS43OTI0MSIgeDI9IjEwLjkwMzUiIHkxPSI0LjU5MDEiIHgxPSI0LjkyMDY1IiBpZD0icGFpbnQxX2xpbmVhcl8zNTE0XzQwMTk1Ij4mI3hhOzxzdG9wIHN0b3AtY29sb3I9IiMwMTk1RkYiLz4mI3hhOzxzdG9wIHN0b3AtY29sb3I9IiMxMTQ3RTkiIG9mZnNldD0iMC45OTEwMjgiLz4mI3hhOzwvbGluZWFyR3JhZGllbnQ+JiN4YTs8bGluZWFyR3JhZGllbnQgZ3JhZGllbnRVbml0cz0idXNlclNwYWNlT25Vc2UiIHkyPSIxMy40ODc5IiB4Mj0iMTAuNDk5OCIgeTE9IjkuNzAzNzYiIHgxPSI4LjA5OTYzIiBpZD0icGFpbnQyX2xpbmVhcl8zNTE0XzQwMTk1Ij4mI3hhOzxzdG9wIHN0b3AtY29sb3I9IiMxMzQ4RkYiLz4mI3hhOzxzdG9wIHN0b3AtY29sb3I9IiMwNjIzOEQiIG9mZnNldD0iMSIvPiYjeGE7PC9saW5lYXJHcmFkaWVudD4mI3hhOzxjbGlwUGF0aCBpZD0iY2xpcDBfMzUxNF80MDE5NSI+JiN4YTs8cmVjdCB0cmFuc2Zvcm09InRyYW5zbGF0ZSgzLjc5NjM5IDMuMjk5OCkiIGZpbGw9IndoaXRlIiBoZWlnaHQ9IjEwIiB3aWR0aD0iMTAiLz4mI3hhOzwvY2xpcFBhdGg+JiN4YTs8L2RlZnM+JiN4YTs8L3N2Zz4=;points=[[0,0,0,0,0],[0,0.25,0,0,0],[0,0.5,0,0,0],[0,0.75,0,0,0],[0.25,0,0,0,0],[0.5,0,0,0,0],[0.75,0,0,0,0],[1,0,0,0,0],[1,0.25,0,0,0],[1,0.5,0,0,0],[1,0.75,0,0,0]];" parent="1" vertex="1">
          <mxGeometry x="1204.44" y="457.19000000000005" width="32" height="32" as="geometry" />
        </mxCell>
        <mxCell id="NNhpY-dIR3qiy-xcSVZ_-35" value="SAP Authorization&#xa;and Trust Management&#xa;service" style="shape=image;verticalLabelPosition=bottom;verticalAlign=top;imageAspect=0;aspect=fixed;image=data:image/svg+xml,PHN2ZyB4bWxucz0iaHR0cDovL3d3dy53My5vcmcvMjAwMC9zdmciIGZpbGw9Im5vbmUiIHZpZXdCb3g9IjAgMCAxNiAxNiIgaGVpZ2h0PSIxNiIgd2lkdGg9IjE2Ij4mI3hhOzxjaXJjbGUgc3Ryb2tlLXdpZHRoPSIwLjI4NTcwOCIgc3Ryb2tlPSIjRDVEQUREIiBmaWxsPSJ1cmwoI3BhaW50MF9saW5lYXJfMzUxNF80MDIxOCkiIHI9IjcuODU2OTYiIGN5PSI3Ljk5ODg0IiBjeD0iNy45OTkzMyIvPiYjeGE7PHBhdGggZmlsbD0idXJsKCNwYWludDFfbGluZWFyXzM1MTRfNDAyMTgpIiBkPSJNNS45MDM5NyA0LjU4OTg4QzYuNTI5MjYgNC4zMTE0NyA3LjIwNjkxIDQuMTcwMTcgNy44OTEzNiA0LjE3NTQ3SDcuODkwMjZDOC41NzQ2NSA0LjE4MDggOS4yNDk5NyA0LjMzMjU4IDkuODcwODEgNC42MjA2MkMxMC40OTE3IDQuOTA4NjYgMTEuMDQzNiA1LjMyNjI4IDExLjQ4OTcgNS44NDU0MUMxMS41MjY5IDUuODg5OTEgMTEuNTcyNSA1LjkyNjU5IDExLjYyNCA1Ljk1MzNDMTEuNjc1NSA1Ljk4MDAyIDExLjczMTggNS45OTYyNCAxMS43ODk2IDYuMDAxMDNDMTEuODQ3NCA2LjAwNTgyIDExLjkwNTYgNS45OTkwNyAxMS45NjA3IDUuOTgxMkMxMi4wMTU5IDUuOTYzMzIgMTIuMDY3IDUuOTM0NjYgMTIuMTExIDUuODk2ODhDMTIuMTU1IDUuODU5MSAxMi4xOTExIDUuODEyOTYgMTIuMjE3MSA1Ljc2MTEyQzEyLjI0MzIgNS43MDkyOSAxMi4yNTg3IDUuNjUyOCAxMi4yNjI3IDUuNTk0OTRDMTIuMjY2NyA1LjUzNzA4IDEyLjI1OTIgNS40Nzg5OSAxMi4yNDA2IDUuNDI0MDVDMTIuMjIyIDUuMzY5MTEgMTIuMTkyNyA1LjMxODQxIDEyLjE1NDMgNS4yNzQ4OUMxMS42MjY5IDQuNjYwNzcgMTAuOTc0MSA0LjE2NjcxIDEwLjIzOTggMy44MjU5NEM5LjUwNTQ5IDMuNDg1MTYgOC43MDY3MyAzLjMwNTU3IDcuODk3MjMgMy4yOTkyNUM3LjA4Nzc0IDMuMjkyOTIgNi4yODYyNyAzLjQ2IDUuNTQ2NzMgMy43ODkyNUM0LjgwNzE5IDQuMTE4NTEgNC4xNDY3MyA0LjYwMjMgMy42MDk3NiA1LjIwODA5QzMuNTMyNjUgNS4yOTUxNSAzLjQ5MzI4IDUuNDA5MjcgMy41MDAzMiA1LjUyNTM1QzMuNTA3MzUgNS42NDE0MyAzLjU2MDIxIDUuNzQ5OTYgMy42NDcyNiA1LjgyNzA2QzMuNzM0MzEgNS45MDQxNyAzLjg0ODQzIDUuOTQzNTQgMy45NjQ1MSA1LjkzNjVDNC4wODA1OSA1LjkyOTQ3IDQuMTg5MTIgNS44NzY2MSA0LjI2NjIzIDUuNzg5NTZDNC43MjAyNiA1LjI3NzM1IDUuMjc4NjkgNC44NjgyOSA1LjkwMzk3IDQuNTg5ODhaIi8+JiN4YTs8cGF0aCBmaWxsPSJ1cmwoI3BhaW50Ml9saW5lYXJfMzUxNF80MDIxOCkiIGQ9Ik02Ljk5MTQ3IDYuMDM1MDRDNy41NDA2NCA1Ljg3MzY4IDguMTI0MDYgNS44Njk2MyA4LjY3NTQxIDYuMDIzMzVDOS4zMTcxNyA2LjIwMjI1IDkuODgyOTcgNi41ODU4MSAxMC4yODY4IDcuMTE1NzNDMTAuNjkwNiA3LjY0NTY0IDEwLjkxMDMgOC4yOTI5MiAxMC45MTI2IDguOTU5MTVDMTAuOTEzOCA5LjAxNDQxIDEwLjkwNCA5LjA2OTM2IDEwLjg4NCA5LjEyMDg2QzEwLjg2NCA5LjE3MjM2IDEwLjgzNCA5LjIxOTQyIDEwLjc5NTcgOS4yNTkzM0MxMC43NTc1IDkuMjk5MjQgMTAuNzExOCA5LjMzMTIzIDEwLjY2MTIgOS4zNTM0N0MxMC42MTA2IDkuMzc1NzEgMTAuNTU2MSA5LjM4Nzc3IDEwLjUwMDggOS4zODg5NUMxMC40NDU2IDkuMzkwMTQgMTAuMzkwNiA5LjM4MDQzIDEwLjMzOTEgOS4zNjAzOEMxMC4yODc2IDkuMzQwMzMgMTAuMjQwNiA5LjMxMDMzIDEwLjIwMDcgOS4yNzIxQzEwLjE2MDggOS4yMzM4NyAxMC4xMjg4IDkuMTg4MTUgMTAuMTA2NSA5LjEzNzU1QzEwLjA4NDMgOS4wODY5NiAxMC4wNzIyIDkuMDMyNDggMTAuMDcxIDguOTc3MjJDMTAuMDcxNSA4LjY4NjAyIDEwLjAxNDYgOC4zOTc1OCA5LjkwMzYgOC4xMjgzN0M5Ljc5MjYgNy44NTkxNSA5LjYyOTY1IDcuNjE0NDQgOS40MjQwNyA3LjQwODJDOS4yMTg0OSA3LjIwMTk2IDguOTc0MzEgNy4wMzgyMyA4LjcwNTQ1IDYuOTI2MzZDOC40MzY2IDYuODE0NDkgOC4xNDgzNCA2Ljc1NjY3IDcuODU3MTQgNi43NTYyMUM3LjU2NTk0IDYuNzU1NzQgNy4yNzc1IDYuODEyNjMgNy4wMDgyOCA2LjkyMzY0QzYuNzM5MDcgNy4wMzQ2NCA2LjQ5NDM2IDcuMTk3NTkgNi4yODgxMiA3LjQwMzE3QzYuMDgxODggNy42MDg3NSA1LjkxODE1IDcuODUyOTMgNS44MDYyOCA4LjEyMTc5QzUuNjk0NDEgOC4zOTA2NCA1LjYzNjU5IDguNjc4OSA1LjYzNjEzIDguOTcwMUM1LjY0MDA1IDkuNDY3MzQgNS43MTMzOSA5Ljk2MTYgNS44NTQwNCAxMC40Mzg1QzYuMDA3MzQgMTAuOTU0OSA2LjI2MTM5IDExLjQ5OCA2LjY2NjU2IDExLjkwMzJDNi43NDg3NSAxMS45ODUzIDYuODYwMTkgMTIuMDMxNCA2Ljk3NjM3IDEyLjAzMTNDNy4wOTI1NiAxMi4wMzEzIDcuMjAzOTYgMTEuOTg1MSA3LjI4NjA4IDExLjkwMjlDNy4zNjgxOSAxMS44MjA3IDcuNDE0MyAxMS43MDkzIDcuNDE0MjUgMTEuNTkzMUM3LjQxNDE5IDExLjQ3NjkgNy4zNjc5OSAxMS4zNjU1IDcuMjg1OCAxMS4yODM0QzcuMDIxMzUgMTEuMDE4OSA2LjgyMzcgMTAuNjI3NCA2LjY5MzkzIDEwLjE4OTRDNi41NjQ3MiA5Ljc1NDcgNi41MTIxNiA5LjMwODQ3IDYuNTEyMTYgOC45NzAxQzYuNTExMjEgOC42MTQzMyA2LjY1MTY0IDguMjcyNzYgNi45MDI1MyA4LjAyMDUzQzcuMTUzNDMgNy43NjgzIDcuNDk0MjUgNy42MjYwNiA3Ljg1MDAyIDcuNjI1MTJDOC4yMDU3OSA3LjYyNDE4IDguNTQ3MzYgNy43NjQ2IDguNzk5NTkgOC4wMTU1QzkuMDUxODMgOC4yNjY0IDkuMTk0MDYgOC42MDcyMiA5LjE5NSA4Ljk2Mjk4VjguOTc5OTZDOS4xOTUgOS4wMDUxNCA5LjE5MzkxIDkuMDMwODggOS4xOTIyNyA5LjA1NjYxQzkuMTg3ODQgOS4xMjU2IDkuMTk5ODUgOS4xOTQ2NSA5LjIyNzMxIDkuMjU4MUM5LjI5MjY1IDkuNTQyMzkgOS40NTE4NyA5Ljc5NjM3IDkuNjc5MjcgOS45NzkwNUM5LjkwNjY4IDEwLjE2MTcgMTAuMTg5IDEwLjI2MjUgMTAuNDgwNyAxMC4yNjVDMTAuNzcyNCAxMC4yNjc1IDExLjA1NjQgMTAuMTcxNyAxMS4yODcgOS45OTNDMTEuNTE3NSA5LjgxNDI5IDExLjY4MTEgOS41NjMxMSAxMS43NTE0IDkuMjhDMTEuNzcxOSA5LjIzMTIgMTEuNzgzNCA5LjE3OTA2IDExLjc4NTMgOS4xMjYxNEMxMS44MDkgOC41Mzg3NiAxMS43MDA3IDcuOTUzNTQgMTEuNDY4NCA3LjQxMzQ5QzExLjIzNjIgNi44NzM0NCAxMC44ODU5IDYuMzkyMjggMTAuNDQzNCA2LjAwNTM3QzEwLjAwMDggNS42MTg0NiA5LjQ3NzEyIDUuMzM1NjMgOC45MTA4OCA1LjE3NzY3QzguMzQ0NjQgNS4wMTk3IDcuNzUwMiA0Ljk5MDYxIDcuMTcxMjQgNS4wOTI1M0M2LjU5MjI4IDUuMTk0NDUgNi4wNDM1MSA1LjQyNDc5IDUuNTY1MjYgNS43NjY2M0M1LjA4NzAxIDYuMTA4NDggNC42OTE0MiA2LjU1MzEzIDQuNDA3NTcgNy4wNjc5MkM0LjEyMzcyIDcuNTgyNzEgMy45NTg4MiA4LjE1NDU2IDMuOTI0OTggOC43NDE0NUMzLjg5MTE0IDkuMzI4MzQgMy45ODkyMiA5LjkxNTM1IDQuMjEyMDMgMTAuNDU5NEM0LjI1ODM2IDEwLjU2MzQgNC4zNDMzNyAxMC42NDUzIDQuNDQ5MDQgMTAuNjg3N0M0LjU1NDcyIDEwLjczMDEgNC42NzI3NSAxMC43Mjk2IDQuNzc4MTIgMTAuNjg2NUM0Ljg4MzUgMTAuNjQzMyA0Ljk2NzkzIDEwLjU2MDkgNS4wMTM1MiAxMC40NTY1QzUuMDU5MTEgMTAuMzUyMiA1LjA2MjI4IDEwLjIzNDIgNS4wMjIzNiAxMC4xMjc2QzQuODA1NzUgOS41OTc3NSA0Ljc0MjE0IDkuMDE3NzkgNC44Mzg3NiA4LjQ1MzYyQzQuOTM1MzcgNy44ODk0NSA1LjE4ODMzIDcuMzYzNzEgNS41Njg4OCA2LjkzNjE2QzUuOTQ5NDMgNi41MDg2MSA2LjQ0MjMxIDYuMTk2NDEgNi45OTE0NyA2LjAzNTA0WiIvPiYjeGE7PHBhdGggZmlsbD0idXJsKCNwYWludDNfbGluZWFyXzM1MTRfNDAyMTgpIiBkPSJNOC4zODMxNiA4Ljk3MDAxQzguMzgzMTUgOC43MjgzOCA4LjE4NzI3IDguNTMyNTEgNy45NDU2NSA4LjUzMjUyQzcuNzA0MDMgOC41MzI1MyA3LjUwODE2IDguNzI4NDEgNy41MDgxNiA4Ljk3MDAzQzcuNTA4MTggOS42MTQ3NSA3LjYzNDQ0IDEwLjAwNTcgNy44ODgxMyAxMC40MTE4QzguMDE2MTUgMTAuNjE2NyA4LjI4NjA1IDEwLjY3OSA4LjQ5MDk3IDEwLjU1MUM4LjY5NTkgMTAuNDIzIDguNzU4MjQgMTAuMTUzMSA4LjYzMDIyIDkuOTQ4MTdDOC40Njk0OSA5LjY5MDg4IDguMzgzMTcgOS40NjI3MiA4LjM4MzE2IDguOTcwMDFaIi8+JiN4YTs8cGF0aCBmaWxsPSJ1cmwoI3BhaW50NF9saW5lYXJfMzUxNF80MDIxOCkiIGQ9Ik0xMi41ODg0IDEwLjEwMjNDMTIuNDQ3MiAxMC4xMDIzIDEyLjMyMDIgMTAuMTU4OCAxMi4yMDczIDEwLjI3MTdMMTAuNDUwMSAxMi4wMjg5TDkuNzUxNDMgMTEuMzMwMkM5LjY1MjYzIDExLjIxNzMgOS41MzI2NiAxMS4xNjA5IDkuMzkxNTIgMTEuMTYwOUM5LjI1MDM4IDExLjE2MDkgOS4xMjMzNSAxMS4yMTczIDkuMDEwNDQgMTEuMzMwMkM4Ljg5NzUyIDExLjQ0MzEgOC44NDEwNiAxMS41NzAyIDguODQxMDYgMTEuNzExM0M4Ljg0MTA2IDExLjg1MjUgOC44OTc1MiAxMS45Nzk1IDkuMDEwNDQgMTIuMDkyNEwxMC4wNjkgMTMuMTUxQzEwLjE2NzggMTMuMjQ5OCAxMC4yOTQ4IDEzLjI5OTIgMTAuNDUwMSAxMy4yOTkyQzEwLjYwNTMgMTMuMjk5MiAxMC43MzI0IDEzLjI0OTggMTAuODMxMiAxMy4xNTFMMTIuOTY5NSAxMS4wMTI3QzEzLjA2ODMgMTAuODk5NyAxMy4xMTc3IDEwLjc3MjcgMTMuMTE3NyAxMC42MzE2QzEzLjExNzcgMTAuNDkwNCAxMy4wNjgzIDEwLjM3MDUgMTIuOTY5NSAxMC4yNzE3QzEyLjg1NjYgMTAuMTU4OCAxMi43Mjk1IDEwLjEwMjMgMTIuNTg4NCAxMC4xMDIzWiIvPiYjeGE7PGRlZnM+JiN4YTs8bGluZWFyR3JhZGllbnQgZ3JhZGllbnRVbml0cz0idXNlclNwYWNlT25Vc2UiIHkyPSIxNC43NDY4IiB4Mj0iMTMuNjg3NCIgeTE9IjIuMjY5OTIiIHgxPSIxLjQ1MDQzIiBpZD0icGFpbnQwX2xpbmVhcl8zNTE0XzQwMjE4Ij4mI3hhOzxzdG9wIHN0b3AtY29sb3I9IndoaXRlIi8+JiN4YTs8c3RvcCBzdG9wLWNvbG9yPSIjRUFFQ0VFIiBvZmZzZXQ9IjEiLz4mI3hhOzwvbGluZWFyR3JhZGllbnQ+JiN4YTs8bGluZWFyR3JhZGllbnQgZ3JhZGllbnRVbml0cz0idXNlclNwYWNlT25Vc2UiIHkyPSIxMC43NDM3IiB4Mj0iMTAuOTI3NiIgeTE9IjQuNjA0OTMiIHgxPSI0LjgxMzMxIiBpZD0icGFpbnQxX2xpbmVhcl8zNTE0XzQwMjE4Ij4mI3hhOzxzdG9wIHN0b3AtY29sb3I9IiMwMTk1RkYiLz4mI3hhOzxzdG9wIHN0b3AtY29sb3I9IiMxMTQ3RTkiIG9mZnNldD0iMC45OTEwMjgiLz4mI3hhOzwvbGluZWFyR3JhZGllbnQ+JiN4YTs8bGluZWFyR3JhZGllbnQgZ3JhZGllbnRVbml0cz0idXNlclNwYWNlT25Vc2UiIHkyPSIxMC43NDM3IiB4Mj0iMTAuOTI3NiIgeTE9IjQuNjA0OTMiIHgxPSI0LjgxMzMxIiBpZD0icGFpbnQyX2xpbmVhcl8zNTE0XzQwMjE4Ij4mI3hhOzxzdG9wIHN0b3AtY29sb3I9IiMwMTk1RkYiLz4mI3hhOzxzdG9wIHN0b3AtY29sb3I9IiMxMTQ3RTkiIG9mZnNldD0iMC45OTEwMjgiLz4mI3hhOzwvbGluZWFyR3JhZGllbnQ+JiN4YTs8bGluZWFyR3JhZGllbnQgZ3JhZGllbnRVbml0cz0idXNlclNwYWNlT25Vc2UiIHkyPSIxMC43NDM3IiB4Mj0iMTAuOTI3NiIgeTE9IjQuNjA0OTMiIHgxPSI0LjgxMzMxIiBpZD0icGFpbnQzX2xpbmVhcl8zNTE0XzQwMjE4Ij4mI3hhOzxzdG9wIHN0b3AtY29sb3I9IiMwMTk1RkYiLz4mI3hhOzxzdG9wIHN0b3AtY29sb3I9IiMxMTQ3RTkiIG9mZnNldD0iMC45OTEwMjgiLz4mI3hhOzwvbGluZWFyR3JhZGllbnQ+JiN4YTs8bGluZWFyR3JhZGllbnQgZ3JhZGllbnRVbml0cz0idXNlclNwYWNlT25Vc2UiIHkyPSIxMy40NTIxIiB4Mj0iMTEuNjE2NSIgeTE9IjEwLjU3MjYiIHgxPSI5LjQ3MzMzIiBpZD0icGFpbnQ0X2xpbmVhcl8zNTE0XzQwMjE4Ij4mI3hhOzxzdG9wIHN0b3AtY29sb3I9IiMxMzQ4RkYiLz4mI3hhOzxzdG9wIHN0b3AtY29sb3I9IiMwNjIzOEQiIG9mZnNldD0iMSIvPiYjeGE7PC9saW5lYXJHcmFkaWVudD4mI3hhOzwvZGVmcz4mI3hhOzwvc3ZnPg==;points=[[0,0,0,0,0],[0,0.25,0,0,0],[0,0.5,0,0,0],[0,0.75,0,0,0],[0.25,0,0,0,0],[0.5,0,0,0,0],[0.75,0,0,0,0],[1,0,0,0,0],[1,0.25,0,0,0],[1,0.5,0,0,0],[1,0.75,0,0,0]];" parent="1" vertex="1">
          <mxGeometry x="1092.19" y="457.19000000000005" width="32" height="32" as="geometry" />
        </mxCell>
        <mxCell id="NNhpY-dIR3qiy-xcSVZ_-49" value="" style="endArrow=blockThin;html=1;rounded=0;strokeColor=#cc00dc;strokeWidth=1.5;exitX=0.5;exitY=1;exitDx=0;exitDy=0;endFill=1;endSize=4;startSize=4;entryX=0.5;entryY=0;entryDx=0;entryDy=0;entryPerimeter=0;" parent="1" target="NNhpY-dIR3qiy-xcSVZ_-35" edge="1">
          <mxGeometry width="50" height="50" relative="1" as="geometry">
            <mxPoint x="1108.44" y="429" as="sourcePoint" />
            <mxPoint x="1108.44" y="459" as="targetPoint" />
          </mxGeometry>
        </mxCell>
        <mxCell id="h3HDSwAOCUgEGLx8BBcW-14" value="SAP Build Process Automation" style="shape=image;verticalLabelPosition=bottom;labelBackgroundColor=default;verticalAlign=top;aspect=fixed;imageAspect=0;image=data:image/svg+xml,PHN2ZyB4bWxucz0iaHR0cDovL3d3dy53My5vcmcvMjAwMC9zdmciIGZpbGw9Im5vbmUiIHZpZXdCb3g9IjAgMCAxNiAxNiIgaGVpZ2h0PSIxNiIgd2lkdGg9IjE2Ij4mI3hhOzxnIGNsaXAtcGF0aD0idXJsKCNjbGlwMF8zMTA2XzI3MDY1KSI+JiN4YTs8Y2lyY2xlIHN0cm9rZS13aWR0aD0iMC4yNzM4OTMiIHN0cm9rZT0iI0Q1REFERCIgZmlsbD0idXJsKCNwYWludDBfbGluZWFyXzMxMDZfMjcwNjUpIiByPSI3LjUzMjA1IiBjeT0iOC4wMDAwNSIgY3g9IjcuOTk5MzIiLz4mI3hhOzxnIGNsaXAtcGF0aD0idXJsKCNjbGlwMV8zMTA2XzI3MDY1KSI+JiN4YTs8bWFzayBoZWlnaHQ9IjEyIiB3aWR0aD0iMTMiIHk9IjIiIHg9IjIiIG1hc2tVbml0cz0idXNlclNwYWNlT25Vc2UiIHN0eWxlPSJtYXNrLXR5cGU6YWxwaGEiIGlkPSJtYXNrMF8zMTA2XzI3MDY1Ij4mI3hhOzxwYXRoIGZpbGw9ImJsYWNrIiBkPSJNOS41MzU2MyA5LjM1MTM1QzEwLjUxMDMgOS4wNDIyMSAxMS4yMTU0IDguMTQxNyAxMS4yMTU0IDcuMDc4OThDMTEuMjE1NCA1Ljc2MDc3IDEwLjEzMDQgNC42OTIxNCA4Ljc5MjAzIDQuNjkyMTRMNy44NzM4OCA0LjY5MjE0QzYuNTU1NjggNC42OTIxNCA1LjQ4NzA2IDUuNzYwNzYgNS40ODcwNiA3LjA3ODk3VjkuOTQzMTdDNS40ODcwNiAxMC43MzQxIDYuMTI4MjMgMTEuMzc1MyA2LjkxOTE1IDExLjM3NTNDNy43MTAwOCAxMS4zNzUzIDguMzUxMjUgMTAuNzM0MSA4LjM1MTI1IDkuOTQzMTdMOC4zNTEyNSA3LjIzNjYyQzguMzUxMjUgNy4wNTIxNiA4LjYxNTY4IDcuMDIxNzkgOC42NTc0OSA3LjIwMTQ1TDkuMDg2NTEgOS4wNDQ5MUM5LjE0ODA0IDkuMzAwNzEgOS4zMDMwOSA5LjQyNTExIDkuNTM1NjMgOS4zNTEzNVoiLz4mI3hhOzwvbWFzaz4mI3hhOzxnIG1hc2s9InVybCgjbWFzazBfMzEwNl8yNzA2NSkiPiYjeGE7PGcgZmlsdGVyPSJ1cmwoI2ZpbHRlcjBfZF8zMTA2XzI3MDY1KSI+JiN4YTs8cGF0aCBmaWxsPSJ1cmwoI3BhaW50MV9yYWRpYWxfMzEwNl8yNzA2NSkiIGQ9Ik0xMy44NTA3IDQuMjM3MUMxMi45NDE0IDUuMDg3MjMgMTEuNTk5NiA1LjQxMTcxIDExLjQzODYgOS4yNTgyNEMxMS4yNzc2IDEzLjEwNDggNi42NDA5MyAxMS45MTQyIDUuNjU3MTEgMTEuNDc3OUMzLjkxNzAxIDEwLjcwNjIgMS4zOTI5NCA1LjYxNTYxIDQuMzAxMTggNC4wMjE1MkM3LjIwOTQyIDIuNDI3NDIgOS4wMDAyOSAxLjA5OTM5IDEwLjc0MDQgMS44NzExQzEyLjQ4MDUgMi42NDI4IDE0Ljc2IDMuMzg2OTcgMTMuODUwNyA0LjIzNzFaIi8+JiN4YTs8L2c+JiN4YTs8ZyBmaWx0ZXI9InVybCgjZmlsdGVyMV9kXzMxMDZfMjcwNjUpIj4mI3hhOzxwYXRoIGZpbGw9InVybCgjcGFpbnQyX3JhZGlhbF8zMTA2XzI3MDY1KSIgZD0iTTEzLjIwNjcgNi41NDU1OEMxMi4xNDgzIDYuNzg5NCA5LjkzOTM1IDUuNzY1MTcgOC4xMzQ2NSA4LjU5ODIyQzYuMzI5OTYgMTEuNDMxMyAzLjE0NTgzIDkuMTQzOTYgMi41OTQxMiA4LjM4NDEyQzEuNjE4MzEgNy4wNDAxNyAxLjc1NjggMi43NTE5MSA0LjY0OTU5IDIuODIxMjFDNy41NDIzOSAyLjg5MDUxIDEwLjc3ODEgMy4zMTU2MiAxMS43NTM5IDQuNjU5NTZDMTIuNzI5NyA2LjAwMzUgMTQuMjY1IDYuMzAxNzUgMTMuMjA2NyA2LjU0NTU4WiIvPiYjeGE7PC9nPiYjeGE7PGcgZmlsdGVyPSJ1cmwoI2ZpbHRlcjJfZF8zMTA2XzI3MDY1KSI+JiN4YTs8cGF0aCBmaWxsPSJ1cmwoI3BhaW50M19yYWRpYWxfMzEwNl8yNzA2NSkiIGQ9Ik0zLjU3OTA1IDkuMzAyODlDMi4yOTU4OSA4LjkzODcgMS41NTA5MiA3LjYwMzI3IDEuOTE1MTEgNi4zMjAxMUMyLjI3OTI5IDUuMDM2OTYgNC44OTE3NSAyLjQ2NjA5IDYuMTc0OTEgMi44MzAyN0M3LjQ1ODA2IDMuMTk0NDYgNy45Njk5NCA1LjYwNDEgNy42MDU3NSA2Ljg4NzI1QzcuMjQxNTcgOC4xNzA0MSA1LjIzOTU4IDkuNzc0MTggMy41NzkwNSA5LjMwMjg5WiIvPiYjeGE7PC9nPiYjeGE7PC9nPiYjeGE7PC9nPiYjeGE7PC9nPiYjeGE7PGRlZnM+JiN4YTs8ZmlsdGVyIGNvbG9yLWludGVycG9sYXRpb24tZmlsdGVycz0ic1JHQiIgZmlsdGVyVW5pdHM9InVzZXJTcGFjZU9uVXNlIiBoZWlnaHQ9IjExLjY5ODciIHdpZHRoPSIxMi40Mjk0IiB5PSIxLjAxNzUiIHg9IjIuNTI0OTgiIGlkPSJmaWx0ZXIwX2RfMzEwNl8yNzA2NSI+JiN4YTs8ZmVGbG9vZCByZXN1bHQ9IkJhY2tncm91bmRJbWFnZUZpeCIgZmxvb2Qtb3BhY2l0eT0iMCIvPiYjeGE7PGZlQ29sb3JNYXRyaXggcmVzdWx0PSJoYXJkQWxwaGEiIHZhbHVlcz0iMCAwIDAgMCAwIDAgMCAwIDAgMCAwIDAgMCAwIDAgMCAwIDAgMTI3IDAiIHR5cGU9Im1hdHJpeCIgaW49IlNvdXJjZUFscGhhIi8+JiN4YTs8ZmVPZmZzZXQgZHk9IjAuMDQ0ODQwNSIgZHg9IjAuMjI0MjAyIi8+JiN4YTs8ZmVHYXVzc2lhbkJsdXIgc3RkRGV2aWF0aW9uPSIwLjMzNjMwNCIvPiYjeGE7PGZlQ29tcG9zaXRlIG9wZXJhdG9yPSJvdXQiIGluMj0iaGFyZEFscGhhIi8+JiN4YTs8ZmVDb2xvck1hdHJpeCB2YWx1ZXM9IjAgMCAwIDAgMCAwIDAgMCAwIDAgMCAwIDAgMCAwIDAgMCAwIDAuNCAwIiB0eXBlPSJtYXRyaXgiLz4mI3hhOzxmZUJsZW5kIHJlc3VsdD0iZWZmZWN0MV9kcm9wU2hhZG93XzMxMDZfMjcwNjUiIGluMj0iQmFja2dyb3VuZEltYWdlRml4IiBtb2RlPSJub3JtYWwiLz4mI3hhOzxmZUJsZW5kIHJlc3VsdD0ic2hhcGUiIGluMj0iZWZmZWN0MV9kcm9wU2hhZG93XzMxMDZfMjcwNjUiIGluPSJTb3VyY2VHcmFwaGljIiBtb2RlPSJub3JtYWwiLz4mI3hhOzwvZmlsdGVyPiYjeGE7PGZpbHRlciBjb2xvci1pbnRlcnBvbGF0aW9uLWZpbHRlcnM9InNSR0IiIGZpbHRlclVuaXRzPSJ1c2VyU3BhY2VPblVzZSIgaGVpZ2h0PSI4LjUwMjIiIHdpZHRoPSIxMi44NjAxIiB5PSIyLjE5MjU1IiB4PSIxLjYwMDkxIiBpZD0iZmlsdGVyMV9kXzMxMDZfMjcwNjUiPiYjeGE7PGZlRmxvb2QgcmVzdWx0PSJCYWNrZ3JvdW5kSW1hZ2VGaXgiIGZsb29kLW9wYWNpdHk9IjAiLz4mI3hhOzxmZUNvbG9yTWF0cml4IHJlc3VsdD0iaGFyZEFscGhhIiB2YWx1ZXM9IjAgMCAwIDAgMCAwIDAgMCAwIDAgMCAwIDAgMCAwIDAgMCAwIDEyNyAwIiB0eXBlPSJtYXRyaXgiIGluPSJTb3VyY2VBbHBoYSIvPiYjeGE7PGZlT2Zmc2V0IGR5PSIwLjA0NDg0MDUiIGR4PSIwLjIyNDIwMiIvPiYjeGE7PGZlR2F1c3NpYW5CbHVyIHN0ZERldmlhdGlvbj0iMC4zMzYzMDQiLz4mI3hhOzxmZUNvbXBvc2l0ZSBvcGVyYXRvcj0ib3V0IiBpbjI9ImhhcmRBbHBoYSIvPiYjeGE7PGZlQ29sb3JNYXRyaXggdmFsdWVzPSIwIDAgMCAwIDAgMCAwIDAgMCAwIDAgMCAwIDAgMCAwIDAgMCAwLjQgMCIgdHlwZT0ibWF0cml4Ii8+JiN4YTs8ZmVCbGVuZCByZXN1bHQ9ImVmZmVjdDFfZHJvcFNoYWRvd18zMTA2XzI3MDY1IiBpbjI9IkJhY2tncm91bmRJbWFnZUZpeCIgbW9kZT0ibm9ybWFsIi8+JiN4YTs8ZmVCbGVuZCByZXN1bHQ9InNoYXBlIiBpbjI9ImVmZmVjdDFfZHJvcFNoYWRvd18zMTA2XzI3MDY1IiBpbj0iU291cmNlR3JhcGhpYyIgbW9kZT0ibm9ybWFsIi8+JiN4YTs8L2ZpbHRlcj4mI3hhOzxmaWx0ZXIgY29sb3ItaW50ZXJwb2xhdGlvbi1maWx0ZXJzPSJzUkdCIiBmaWx0ZXJVbml0cz0idXNlclNwYWNlT25Vc2UiIGhlaWdodD0iNy45MzY3NyIgd2lkdGg9IjcuMjQyNjgiIHk9IjIuMTY3NjQiIHg9IjEuMzc0MzUiIGlkPSJmaWx0ZXIyX2RfMzEwNl8yNzA2NSI+JiN4YTs8ZmVGbG9vZCByZXN1bHQ9IkJhY2tncm91bmRJbWFnZUZpeCIgZmxvb2Qtb3BhY2l0eT0iMCIvPiYjeGE7PGZlQ29sb3JNYXRyaXggcmVzdWx0PSJoYXJkQWxwaGEiIHZhbHVlcz0iMCAwIDAgMCAwIDAgMCAwIDAgMCAwIDAgMCAwIDAgMCAwIDAgMTI3IDAiIHR5cGU9Im1hdHJpeCIgaW49IlNvdXJjZUFscGhhIi8+JiN4YTs8ZmVPZmZzZXQgZHk9IjAuMDQ0ODQwNSIgZHg9IjAuMjI0MjAyIi8+JiN4YTs8ZmVHYXVzc2lhbkJsdXIgc3RkRGV2aWF0aW9uPSIwLjMzNjMwNCIvPiYjeGE7PGZlQ29tcG9zaXRlIG9wZXJhdG9yPSJvdXQiIGluMj0iaGFyZEFscGhhIi8+JiN4YTs8ZmVDb2xvck1hdHJpeCB2YWx1ZXM9IjAgMCAwIDAgMCAwIDAgMCAwIDAgMCAwIDAgMCAwIDAgMCAwIDAuNCAwIiB0eXBlPSJtYXRyaXgiLz4mI3hhOzxmZUJsZW5kIHJlc3VsdD0iZWZmZWN0MV9kcm9wU2hhZG93XzMxMDZfMjcwNjUiIGluMj0iQmFja2dyb3VuZEltYWdlRml4IiBtb2RlPSJub3JtYWwiLz4mI3hhOzxmZUJsZW5kIHJlc3VsdD0ic2hhcGUiIGluMj0iZWZmZWN0MV9kcm9wU2hhZG93XzMxMDZfMjcwNjUiIGluPSJTb3VyY2VHcmFwaGljIiBtb2RlPSJub3JtYWwiLz4mI3hhOzwvZmlsdGVyPiYjeGE7PGxpbmVhckdyYWRpZW50IGdyYWRpZW50VW5pdHM9InVzZXJTcGFjZU9uVXNlIiB5Mj0iMTQuNDY4OSIgeDI9IjEzLjQ1MjEiIHkxPSIyLjUwODA0IiB4MT0iMS43MjEyNCIgaWQ9InBhaW50MF9saW5lYXJfMzEwNl8yNzA2NSI+JiN4YTs8c3RvcCBzdG9wLWNvbG9yPSJ3aGl0ZSIvPiYjeGE7PHN0b3Agc3RvcC1jb2xvcj0iI0VBRUNFRSIgb2Zmc2V0PSIxIi8+JiN4YTs8L2xpbmVhckdyYWRpZW50PiYjeGE7PHJhZGlhbEdyYWRpZW50IGdyYWRpZW50VHJhbnNmb3JtPSJ0cmFuc2xhdGUoOC4zMzg3IDUuMjU4NzgpIHJvdGF0ZSg3OS4wOTY3KSBzY2FsZSgxMC45MDQ0IDEwLjA5OCkiIGdyYWRpZW50VW5pdHM9InVzZXJTcGFjZU9uVXNlIiByPSIxIiBjeT0iMCIgY3g9IjAiIGlkPSJwYWludDFfcmFkaWFsXzMxMDZfMjcwNjUiPiYjeGE7PHN0b3Agc3RvcC1jb2xvcj0iIzEzNDhGRiIvPiYjeGE7PHN0b3Agc3RvcC1jb2xvcj0iIzA2MjM4RCIgb2Zmc2V0PSIxIi8+JiN4YTs8L3JhZGlhbEdyYWRpZW50PiYjeGE7PHJhZGlhbEdyYWRpZW50IGdyYWRpZW50VHJhbnNmb3JtPSJ0cmFuc2xhdGUoOS4yNTAwNSAxLjYzODAyKSByb3RhdGUoMTA4LjU0OSkgc2NhbGUoMTQuMzUxOCAyNS40NykiIGdyYWRpZW50VW5pdHM9InVzZXJTcGFjZU9uVXNlIiByPSIxIiBjeT0iMCIgY3g9IjAiIGlkPSJwYWludDJfcmFkaWFsXzMxMDZfMjcwNjUiPiYjeGE7PHN0b3Agc3RvcC1jb2xvcj0iIzAxOTVGRiIvPiYjeGE7PHN0b3Agc3RvcC1jb2xvcj0iIzExNDdFOSIgb2Zmc2V0PSIxIi8+JiN4YTs8L3JhZGlhbEdyYWRpZW50PiYjeGE7PHJhZGlhbEdyYWRpZW50IGdyYWRpZW50VHJhbnNmb3JtPSJ0cmFuc2xhdGUoNy4xNDEzNiAzLjc4NzA2KSByb3RhdGUoMTQ0Ljc0Nikgc2NhbGUoOC43MDE2NSAxMS44MzcxKSIgZ3JhZGllbnRVbml0cz0idXNlclNwYWNlT25Vc2UiIHI9IjEiIGN5PSIwIiBjeD0iMCIgaWQ9InBhaW50M19yYWRpYWxfMzEwNl8yNzA2NSI+JiN4YTs8c3RvcCBzdG9wLWNvbG9yPSIjMDBCQkZGIi8+JiN4YTs8c3RvcCBzdG9wLWNvbG9yPSIjMDA4QkZGIiBvZmZzZXQ9IjEiLz4mI3hhOzwvcmFkaWFsR3JhZGllbnQ+JiN4YTs8Y2xpcFBhdGggaWQ9ImNsaXAwXzMxMDZfMjcwNjUiPiYjeGE7PHJlY3QgdHJhbnNmb3JtPSJ0cmFuc2xhdGUoLTAuMDAwNzMyNDIyKSIgZmlsbD0id2hpdGUiIGhlaWdodD0iMTYiIHdpZHRoPSIxNiIvPiYjeGE7PC9jbGlwUGF0aD4mI3hhOzxjbGlwUGF0aCBpZD0iY2xpcDFfMzEwNl8yNzA2NSI+JiN4YTs8cmVjdCB0cmFuc2Zvcm09InRyYW5zbGF0ZSgzLjQ5OTI3IDMuMTY2NzUpIiBmaWxsPSJ3aGl0ZSIgaGVpZ2h0PSI5LjY2NjY3IiB3aWR0aD0iOS42NjY2NiIvPiYjeGE7PC9jbGlwUGF0aD4mI3hhOzwvZGVmcz4mI3hhOzwvc3ZnPg==;points=[[0,0,0,0,0],[0,0.25,0,0,0],[0,0.5,0,0,0],[0,0.75,0,0,0],[0.25,0,0,0,0],[0.5,0,0,0,0],[0.75,0,0,0,0],[1,0,0,0,0],[1,0.25,0,0,0],[1,0.5,0,0,0],[1,0.75,0,0,0]];" parent="1" vertex="1">
          <mxGeometry x="1092.44" y="156.75" width="32" height="32" as="geometry" />
        </mxCell>
        <mxCell id="NNhpY-dIR3qiy-xcSVZ_-23" value="&lt;p style=&quot;line-height: 114%;&quot;&gt;&lt;font color=&quot;#cc00dc&quot; size=&quot;1&quot;&gt;&lt;b style=&quot;&quot;&gt;Trust&lt;/b&gt;&lt;/font&gt;&lt;/p&gt;" style="rounded=1;whiteSpace=wrap;html=1;arcSize=50;strokeColor=#CC00DC;fillColor=#fff0fa;fontColor=#266f3a;strokeWidth=1.5;" parent="1" vertex="1">
          <mxGeometry x="1087.45" y="417.75" width="41.99" height="16" as="geometry" />
        </mxCell>
        <mxCell id="LHxhHbAAdALZvwne7CDH-15" value="" style="group" parent="1" vertex="1" connectable="0">
          <mxGeometry x="1200" y="849" width="323" height="114" as="geometry" />
        </mxCell>
        <mxCell id="lJIQFSLDb_arjXTgXhPW-1" value="" style="rounded=0;whiteSpace=wrap;html=1;strokeColor=#eaecee;strokeWidth=1.5;arcSize=16;fillColor=#FFFFFF;perimeterSpacing=0;imageHeight=24;absoluteArcSize=1;points=[];connectable=0;container=0;" parent="LHxhHbAAdALZvwne7CDH-15" vertex="1">
          <mxGeometry width="323" height="114" as="geometry" />
        </mxCell>
        <mxCell id="lJIQFSLDb_arjXTgXhPW-2" value="&lt;font size=&quot;1&quot; style=&quot;&quot; face=&quot;arial&quot; color=&quot;#1d2d3e&quot;&gt;&lt;b style=&quot;font-size: 12px;&quot;&gt;Legend&lt;/b&gt;&lt;/font&gt;" style="text;html=1;align=left;verticalAlign=top;resizable=0;points=[];autosize=1;strokeColor=none;fillColor=none;fontSize=12;fontColor=default;fontFamily=Helvetica;" parent="LHxhHbAAdALZvwne7CDH-15" vertex="1">
          <mxGeometry x="20.9982051282052" y="9" width="61" height="26" as="geometry" />
        </mxCell>
        <mxCell id="lJIQFSLDb_arjXTgXhPW-3" value="&lt;div style=&quot;font-size: 10px; line-height: 100%;&quot;&gt;&lt;span style=&quot;font-family: arial; font-size: 10px; background-color: initial;&quot;&gt;&lt;font style=&quot;font-size: 10px;&quot;&gt;Access&lt;/font&gt;&lt;/span&gt;&lt;/div&gt;" style="text;html=1;align=left;verticalAlign=middle;resizable=0;points=[];autosize=1;strokeColor=none;fillColor=none;fontSize=10;fontColor=#1D2D3E;fontFamily=Helvetica;labelPosition=center;verticalLabelPosition=middle;" parent="LHxhHbAAdALZvwne7CDH-15" vertex="1">
          <mxGeometry x="39.5" y="79" width="50" height="23" as="geometry" />
        </mxCell>
        <mxCell id="lJIQFSLDb_arjXTgXhPW-4" value="" style="ellipse;whiteSpace=wrap;html=1;aspect=fixed;strokeColor=none;fillColor=#475E75;fontColor=#475E75;" parent="LHxhHbAAdALZvwne7CDH-15" vertex="1">
          <mxGeometry x="21.36999999999989" y="82.5" width="16" height="16" as="geometry" />
        </mxCell>
        <mxCell id="lJIQFSLDb_arjXTgXhPW-5" value="" style="ellipse;whiteSpace=wrap;html=1;aspect=fixed;strokeColor=none;fillColor=#188918;" parent="LHxhHbAAdALZvwne7CDH-15" vertex="1">
          <mxGeometry x="21" y="60.5" width="16" height="16" as="geometry" />
        </mxCell>
        <mxCell id="lJIQFSLDb_arjXTgXhPW-6" value="&lt;div style=&quot;font-size: 10px; line-height: 100%;&quot;&gt;&lt;span style=&quot;font-family: arial; font-size: 10px; background-color: initial;&quot;&gt;&lt;font style=&quot;font-size: 10px;&quot;&gt;Authentication&lt;/font&gt;&lt;/span&gt;&lt;/div&gt;" style="text;html=1;align=left;verticalAlign=middle;resizable=0;points=[];autosize=1;strokeColor=none;fillColor=none;fontSize=10;fontColor=#1D2D3E;fontFamily=Helvetica;labelPosition=center;verticalLabelPosition=middle;" parent="LHxhHbAAdALZvwne7CDH-15" vertex="1">
          <mxGeometry x="39.5" y="57" width="81" height="23" as="geometry" />
        </mxCell>
        <mxCell id="lJIQFSLDb_arjXTgXhPW-9" value="&lt;div style=&quot;font-size: 10px; line-height: 100%;&quot;&gt;&lt;span style=&quot;font-family: arial; font-size: 10px; background-color: initial;&quot;&gt;&lt;font style=&quot;font-size: 10px;&quot;&gt;Deployment&lt;/font&gt;&lt;/span&gt;&lt;/div&gt;" style="text;html=1;align=left;verticalAlign=middle;resizable=0;points=[];autosize=1;strokeColor=none;fillColor=none;fontSize=10;fontColor=#1D2D3E;fontFamily=Helvetica;labelPosition=center;verticalLabelPosition=middle;" parent="LHxhHbAAdALZvwne7CDH-15" vertex="1">
          <mxGeometry x="138.66999999999985" y="57" width="71" height="23" as="geometry" />
        </mxCell>
        <mxCell id="lJIQFSLDb_arjXTgXhPW-10" value="" style="ellipse;whiteSpace=wrap;html=1;aspect=fixed;strokeColor=none;fillColor=#0070F2;fontColor=#0070F2;" parent="LHxhHbAAdALZvwne7CDH-15" vertex="1">
          <mxGeometry x="117.33999999999992" y="60.5" width="16" height="16" as="geometry" />
        </mxCell>
        <mxCell id="lJIQFSLDb_arjXTgXhPW-13" value="" style="shape=image;verticalLabelPosition=bottom;verticalAlign=top;imageAspect=0;aspect=fixed;image=data:image/svg+xml,PHN2ZyB4bWxucz0iaHR0cDovL3d3dy53My5vcmcvMjAwMC9zdmciIGZpbGw9Im5vbmUiIHZpZXdCb3g9IjAgMCA0OSA0OSIgaGVpZ2h0PSI0OSIgd2lkdGg9IjQ5Ij4mI3hhOzxjaXJjbGUgc3Ryb2tlLXdpZHRoPSIwLjg1NzE0MyIgc3Ryb2tlPSIjRDVEQUREIiBmaWxsPSJ1cmwoI3BhaW50MF9saW5lYXJfMjYyMl8yMDQ3NSkiIHI9IjIzLjU3MTQiIGN5PSIyNC4wMzQ5IiBjeD0iMjQuNSIvPiYjeGE7PHBhdGggZmlsbD0idXJsKCNwYWludDFfcmFkaWFsXzI2MjJfMjA0NzUpIiBkPSJNMjQuMzkzMSAxMi4yMzcxQzIwLjExMDcgMTIuMjM3MSAxNy4wNjgxIDE1LjcyMzEgMTYuNTYxMSAxOS4zNjI1QzE1LjE4MzYgMTkuNDQ0NCAxMy45NjcyIDE5Ljk2MjEgMTMuMDIyNSAyMC44MzE3QzExLjc0NDUgMjIuMDA4MSAxMS4wODQ0IDIzLjcxNTYgMTEuMDg0NCAyNS41MTYzQzExLjA4NDQgMjcuMTg5NyAxMS41OTIgMjguNzcxNSAxMi43MzE2IDI5Ljk0MDlDMTMuNTg2MSAzMC44MTc4IDE0LjcwNzcgMzEuMzcyNCAxNi4wMTcgMzEuNTk4NEMxNi4xMzc2IDMxLjM1MzUgMTYuMjczNSAzMS4xMTY4IDE2LjQyNTIgMzAuODg5MkwxNi40NDEgMzAuODY1NUwxNi40NTQ4IDMwLjg0NjFDMTYuNzA2OSAzMC40OTAxIDE2Ljk5NDggMzAuMTY2IDE3LjMxNjkgMjkuODc2MUMxNy4xODMxIDI5LjQzMTcgMTcuMTE4IDI4Ljk2NDUgMTcuMTE4IDI4LjQ4MzVDMTcuMTE4IDI3Ljg1NDkgMTcuMjM4NiAyNy4yNDEzIDE3LjQ4NDkgMjYuNjU5MkMxNy43MiAyNi4xMDMzIDE4LjA1MTMgMjUuNjAwMSAxOC40ODI0IDI1LjE2OTFDMTguOTE4IDI0LjczMzQgMTkuNDI1IDI0LjM5MTYgMTkuOTkyNiAyNC4xNTE1QzIwLjU3NDcgMjMuOTA1MiAyMS4xODgyIDIzLjc4NDYgMjEuODE2OCAyMy43ODQ2QzIyLjA3NTkgMjMuNzg0NiAyMi4zMzI0IDIzLjgwNTEgMjIuNTg1MyAyMy44NDY0QzIyLjkwNjUgMjMuNjE3OSAyMy4yNTIyIDIzLjQyNTEgMjMuNjIwNCAyMy4yNjkzQzI0LjI4NTEgMjIuOTg4MSAyNC45ODYzIDIyLjg0OTcgMjUuNzA4OSAyMi44NDk3QzI2LjQzMTYgMjIuODQ5NyAyNy4xMzI3IDIyLjk4ODEgMjcuNzk3NSAyMy4yNjkzQzI4LjQ0MzYgMjMuNTQyNyAyOS4wMTc2IDIzLjkzMjYgMjkuNTA0MyAyNC40MzY1QzMwLjAwODIgMjQuOTIzMiAzMC4zOTgxIDI1LjQ5NzIgMzAuNjcxNSAyNi4xNDMzQzMwLjk1MjcgMjYuODA4MSAzMS4wOTExIDI3LjUwOTMgMzEuMDkxMSAyOC4yMzE5QzMxLjA5MTEgMjguOTI1MiAzMC45NjM3IDI5LjU5ODggMzAuNzA1IDMwLjIzOTVDMzEuMTk2OSAzMC42Mjg4IDMxLjYzNDYgMzEuMDg3NyAzMi4wMTUyIDMxLjYxMjdDMzUuMjc5MiAzMS4wNDI2IDM3Ljk5OTkgMjguMzY4IDM3Ljk5OTkgMjQuMzU5MUMzNy45OTk5IDIwLjM3NTEgMzUuMTUyNiAxNy4zMTM1IDMxLjcyNDcgMTYuOTg5N0MzMC4zNTA3IDE0LjE0ODMgMjcuOCAxMi4yMzcxIDI0LjM5MzEgMTIuMjM3MVoiIGNsaXAtcnVsZT0iZXZlbm9kZCIgZmlsbC1ydWxlPSJldmVub2RkIi8+JiN4YTs8cGF0aCBmaWxsPSJ1cmwoI3BhaW50Ml9yYWRpYWxfMjYyMl8yMDQ3NSkiIGQ9Ik0yOC4zMzY4IDMwLjgwNzhDMjkuMzA4MiAzMS4xODk0IDMwLjA5NzQgMzEuODEzOCAzMC43MDQ1IDMyLjY4MTFDMzEuMzExNiAzMy41NDg0IDMxLjYxNTIgMzQuNTI4NSAzMS42MTUyIDM1LjYyMTNWMzcuMTA0NEMzMS42MTUyIDM3LjMxMjUgMzEuNTM3MSAzNy40ODYgMzEuMzgxIDM3LjYyNDdDMzEuMjQyMiAzNy43NjM1IDMxLjA3NzQgMzcuODMyOSAzMC44ODY2IDM3LjgzMjlIMjkuNDAzNkMyOS4xOTU0IDM3LjgzMjkgMjkuMDEzMyAzNy43NjM1IDI4Ljg1NzIgMzcuNjI0N0MyOC43MTg0IDM3LjQ4NiAyOC42NDkgMzcuMzEyNSAyOC42NDkgMzcuMTA0NEMyOC42NDkgMzYuODk2MiAyOC43MTg0IDM2LjcyMjcgMjguODU3MiAzNi41ODRDMjkuMDEzMyAzNi40Mjc5IDI5LjE5NTQgMzYuMzQ5OCAyOS40MDM2IDM2LjM0OThIMzAuMTMyMVYzNS42MjEzQzMwLjEzMjEgMzUuMTE4MiAzMC4wMzY3IDM0LjY0MTIgMjkuODQ1OSAzNC4xOTAyQzI5LjY1NTEgMzMuNzM5MiAyOS4zODYyIDMzLjM0OSAyOS4wMzkzIDMzLjAxOTRDMjguNzA5NyAzMi42NzI1IDI4LjMxOTUgMzIuNDAzNiAyNy44Njg1IDMyLjIxMjhDMjcuNDM0OCAzMi4wMjIgMjYuOTU3OCAzMS45MjY2IDI2LjQzNzUgMzEuOTI2NkgyNC45ODA0QzI0LjQ2IDMxLjkyNjYgMjMuOTc0NCAzMi4wMjIgMjMuNTIzNCAzMi4yMTI4QzIzLjA4OTcgMzIuNDAzNiAyMi42OTk0IDMyLjY3MjUgMjIuMzUyNSAzMy4wMTk0QzIyLjAyMyAzMy4zNDkgMjEuNzYyOCAzMy43MzkyIDIxLjU3MiAzNC4xOTAyQzIxLjM4MTIgMzQuNjQxMiAyMS4yODU4IDM1LjExODIgMjEuMjg1OCAzNS42MjEzVjM2LjM0OThIMjIuMDE0M0MyMi4yMjI0IDM2LjM0OTggMjIuMzk1OSAzNi40Mjc5IDIyLjUzNDcgMzYuNTg0QzIyLjY3MzQgMzYuNzIyNyAyMi43NDI4IDM2Ljg5NjIgMjIuNzQyOCAzNy4xMDQ0QzIyLjc0MjggMzcuMzEyNSAyMi42NzM0IDM3LjQ4NiAyMi41MzQ3IDM3LjYyNDdDMjIuMzk1OSAzNy43NjM1IDIyLjIyMjQgMzcuODMyOSAyMi4wMTQzIDM3LjgzMjlIMjAuNTMxMkMyMC4zNDA0IDM3LjgzMjkgMjAuMTY3IDM3Ljc2MzUgMjAuMDEwOSAzNy42MjQ3QzE5Ljg3MjEgMzcuNDg2IDE5LjgwMjcgMzcuMzEyNSAxOS44MDI3IDM3LjEwNDRMMTkuODAyNyAzNi4wNTAySDE3LjgyMzRDMTcuNjMyOCAzNi4wNTAyIDE3LjQ2MTYgMzUuOTc5NSAxNy4zMTQ2IDM1Ljg0ODhMMTcuMzA3NSAzNS44NDI1QzE3LjE2ODEgMzUuNzAzMSAxNy4wOTk4IDM1LjUyNzEgMTcuMDk5OCAzNS4zMjY1VjM0LjE4MjdDMTcuMDk5OCAzMy43MzkyIDE3LjE2MjEgMzMuMzIxIDE3LjI4ODEgMzIuOTI5MUwxNy4yODkyIDMyLjkyNTlDMTcuNDI3MiAzMi41MjU2IDE3LjYwNzEgMzIuMTU4NiAxNy44MjkzIDMxLjgyNTNMMTcuODMxOCAzMS44MjE1QzE4LjA2NzggMzEuNDg4MyAxOC4zNDU4IDMxLjE5NjQgMTguNjY1MiAzMC45NDYxQzE4LjkyNDIgMzAuNzMyNCAxOS4yMDU5IDMwLjU1NSAxOS41MTAxIDMwLjQxNEMxOS4wMzk4IDI5Ljg4ODUgMTguODA1NSAyOS4yNDE5IDE4LjgwNTUgMjguNDgzNUMxOC44MDU1IDI4LjA3NDUgMTguODgzMiAyNy42ODUxIDE5LjAzOSAyNy4zMTY3QzE5LjE5MzkgMjYuOTUwNyAxOS40MDYgMjYuNjMyIDE5LjY3NTYgMjYuMzYyM0MxOS45NTc5IDI2LjA4MDEgMjAuMjgzIDI1Ljg2MDkgMjAuNjUwMSAyNS43MDU2QzIxLjAxODQgMjUuNTQ5OCAyMS40MDc4IDI1LjQ3MjEgMjEuODE2OCAyNS40NzIxQzIyLjIyNTkgMjUuNDcyMSAyMi42MTUyIDI1LjU0OTggMjIuOTgzNiAyNS43MDU2TDIzLjAwMDggMjUuNzEzQzIzLjAyNzEgMjUuNjg0OSAyMy4wNTM4IDI1LjY1NzMgMjMuMDgxIDI1LjYzQzIzLjQyOCAyNS4yODMxIDIzLjgyNjkgMjUuMDE0MiAyNC4yNzc5IDI0LjgyMzRDMjQuNzI4OSAyNC42MzI2IDI1LjIwNTkgMjQuNTM3MiAyNS43MDg5IDI0LjUzNzJDMjYuMjEyIDI0LjUzNzIgMjYuNjg5IDI0LjYzMjYgMjcuMTQgMjQuODIzNEMyNy41OTA5IDI1LjAxNDIgMjcuOTgxMiAyNS4yODMxIDI4LjMxMDggMjUuNjNDMjguNjU3NyAyNS45NTk2IDI4LjkyNjYgMjYuMzQ5OSAyOS4xMTc0IDI2LjgwMDlDMjkuMzA4MiAyNy4yNTE5IDI5LjQwMzYgMjcuNzI4OSAyOS40MDM2IDI4LjIzMTlDMjkuNDAzNiAyOC43MzQ5IDI5LjMwODIgMjkuMjEyIDI5LjExNzQgMjkuNjYzQzI4LjkyNjYgMzAuMDk2NiAyOC42NjY0IDMwLjQ3ODIgMjguMzM2OCAzMC44MDc4Wk0yMC4wMzY5IDM0LjA2MDFDMTkuOTgyMiAzNC4yMzAxIDE5LjkzNzIgMzQuNDA0MyAxOS45MDE3IDM0LjU4MjdIMTguNTY3MlYzNC4xODI3QzE4LjU2NzIgMzMuODE1NyAxOC42MzY3IDMzLjQ2OTMgMTguNzc1MiAzMy4xNDJDMTguOTE0NiAzMi44MTI0IDE5LjEwMzkgMzIuNTI5IDE5LjM0MjYgMzIuMjkwM0MxOS41OTYyIDMyLjAzNjcgMTkuODgwMyAzMS44NDEyIDIwLjE5NTMgMzEuNzAyNEMyMC41MjE2IDMxLjU2NDUgMjAuODc0MyAzMS40OTQ5IDIxLjI1NDkgMzEuNDk0OUgyMS44NzA4QzIxLjgzMTUgMzEuNTI1NCAyMS43OTI2IDMxLjU1NjYgMjEuNzU0MSAzMS41ODg0QzIxLjM1NTEgMzEuOTAwNiAyMS4wMDgyIDMyLjI2NDggMjAuNzEzNCAzMi42ODExQzIwLjQzNTggMzMuMDk3NCAyMC4yMTAzIDMzLjU1NzEgMjAuMDM2OSAzNC4wNjAxWk0yNS43MDg5IDI2LjAyMDNDMjUuMTAxOCAyNi4wMjAzIDI0LjU4MTUgMjYuMjM3MSAyNC4xNDc4IDI2LjY3MDhDMjMuNzE0MiAyNy4xMDQ0IDIzLjQ5NzMgMjcuNjI0OCAyMy40OTczIDI4LjIzMTlDMjMuNDk3MyAyOC44MzkgMjMuNzE0MiAyOS4zNTk0IDI0LjE0NzggMjkuNzkzQzI0LjU4MTUgMzAuMjI2NyAyNS4xMDE4IDMwLjQ0MzUgMjUuNzA4OSAzMC40NDM1QzI2LjMxNiAzMC40NDM1IDI2LjgzNjQgMzAuMjI2NyAyNy4yNyAyOS43OTNDMjcuNzAzNyAyOS4zNTk0IDI3LjkyMDUgMjguODM5IDI3LjkyMDUgMjguMjMxOUMyNy45MjA1IDI3LjYyNDggMjcuNzAzNyAyNy4xMDQ0IDI3LjI3IDI2LjY3MDhDMjYuODM2NCAyNi4yMzcxIDI2LjMxNiAyNi4wMjAzIDI1LjcwODkgMjYuMDIwM1pNMjIuMDE0MyAyOC4yMzE5QzIyLjAxNDMgMjguODU5NiAyMi4xNDM2IDI5LjQyMTEgMjIuNDAyMyAyOS45MTYzQzIyLjIyMjMgMjkuOTkwNiAyMi4wMjc1IDMwLjAyNzQgMjEuODE2OCAzMC4wMjc0QzIxLjM5MiAzMC4wMjc0IDIxLjAzMTcgMjkuODc3NiAyMC43MjcyIDI5LjU3MzFDMjAuNDIyOCAyOS4yNjg3IDIwLjI3MjkgMjguOTA4MyAyMC4yNzI5IDI4LjQ4MzVDMjAuMjcyOSAyOC4wNTg3IDIwLjQyMjggMjcuNjk4MyAyMC43MjcyIDI3LjM5MzlDMjEuMDMxNyAyNy4wODk0IDIxLjM5MiAyNi45Mzk2IDIxLjgxNjggMjYuOTM5NkMyMS45NjA1IDI2LjkzOTYgMjIuMDk2OSAyNi45NTY3IDIyLjIyNjIgMjYuOTkxMkMyMi4wODQ5IDI3LjM4NTUgMjIuMDE0MyAyNy43OTkxIDIyLjAxNDMgMjguMjMxOVoiIGNsaXAtcnVsZT0iZXZlbm9kZCIgZmlsbC1ydWxlPSJldmVub2RkIi8+JiN4YTs8ZGVmcz4mI3hhOzxsaW5lYXJHcmFkaWVudCBncmFkaWVudFVuaXRzPSJ1c2VyU3BhY2VPblVzZSIgeTI9IjQ0LjI3OTIiIHgyPSI0MS41NjQ1IiB5MT0iNi44NDc3NSIgeDE9IjQuODUyODciIGlkPSJwYWludDBfbGluZWFyXzI2MjJfMjA0NzUiPiYjeGE7PHN0b3Agc3RvcC1jb2xvcj0id2hpdGUiLz4mI3hhOzxzdG9wIHN0b3AtY29sb3I9IiNFQUVDRUUiIG9mZnNldD0iMSIvPiYjeGE7PC9saW5lYXJHcmFkaWVudD4mI3hhOzxyYWRpYWxHcmFkaWVudCBncmFkaWVudFRyYW5zZm9ybT0idHJhbnNsYXRlKDE1LjI1ODMgMTUuOTk1NCkgcm90YXRlKDQzLjg3NzkpIHNjYWxlKDI1Ljg1MjQgNDguODExNykiIGdyYWRpZW50VW5pdHM9InVzZXJTcGFjZU9uVXNlIiByPSIxIiBjeT0iMCIgY3g9IjAiIGlkPSJwYWludDFfcmFkaWFsXzI2MjJfMjA0NzUiPiYjeGE7PHN0b3Agc3RvcC1jb2xvcj0iIzAxOTVGRiIvPiYjeGE7PHN0b3Agc3RvcC1jb2xvcj0iIzExNDdFOSIgb2Zmc2V0PSIxIi8+JiN4YTs8L3JhZGlhbEdyYWRpZW50PiYjeGE7PHJhZGlhbEdyYWRpZW50IGdyYWRpZW50VHJhbnNmb3JtPSJ0cmFuc2xhdGUoMTUuMjUyMiAxNi4wODc2KSByb3RhdGUoNDMuNTYwMikgc2NhbGUoMjUuODcyNyAyMy41NDcxKSIgZ3JhZGllbnRVbml0cz0idXNlclNwYWNlT25Vc2UiIHI9IjEiIGN5PSIwIiBjeD0iMCIgaWQ9InBhaW50Ml9yYWRpYWxfMjYyMl8yMDQ3NSI+JiN4YTs8c3RvcCBzdG9wLWNvbG9yPSIjMTM0OEZGIi8+JiN4YTs8c3RvcCBzdG9wLWNvbG9yPSIjMDYyMzhEIiBvZmZzZXQ9IjEiLz4mI3hhOzwvcmFkaWFsR3JhZGllbnQ+JiN4YTs8L2RlZnM+JiN4YTs8L3N2Zz4=;points=[[0,0,0,0,0],[0,0.25,0,0,0],[0,0.5,0,0,0],[0,0.75,0,0,0],[0.25,0,0,0,0],[0.5,0,0,0,0],[0.75,0,0,0,0],[1,0,0,0,0],[1,0.25,0,0,0],[1,0.5,0,0,0],[1,0.75,0,0,0]];" parent="LHxhHbAAdALZvwne7CDH-15" vertex="1">
          <mxGeometry x="117.33999999999992" y="82.5" width="16" height="16" as="geometry" />
        </mxCell>
        <mxCell id="lJIQFSLDb_arjXTgXhPW-14" value="&lt;div style=&quot;font-size: 10px; line-height: 100%;&quot;&gt;&lt;span style=&quot;font-family: arial; font-size: 10px; background-color: initial;&quot;&gt;&lt;font style=&quot;font-size: 10px;&quot;&gt;BTP Service&lt;/font&gt;&lt;/span&gt;&lt;/div&gt;" style="text;html=1;align=left;verticalAlign=middle;resizable=0;points=[];autosize=1;strokeColor=none;fillColor=none;fontSize=10;fontColor=#1D2D3E;fontFamily=Helvetica;labelPosition=center;verticalLabelPosition=middle;" parent="LHxhHbAAdALZvwne7CDH-15" vertex="1">
          <mxGeometry x="141.33999999999992" y="80.5" width="80" height="20" as="geometry" />
        </mxCell>
        <mxCell id="lJIQFSLDb_arjXTgXhPW-15" value="" style="endArrow=blockThin;html=1;strokeColor=#188918;bendable=1;rounded=0;endFill=1;endSize=4;strokeWidth=1.5;startSize=4;startArrow=blockThin;startFill=1;entryX=0.04;entryY=0.52;entryDx=0;entryDy=0;entryPerimeter=0;" parent="LHxhHbAAdALZvwne7CDH-15" edge="1">
          <mxGeometry width="50" height="50" relative="1" as="geometry">
            <mxPoint x="215" y="68.77999999999997" as="sourcePoint" />
            <mxPoint x="237" y="68.77999999999997" as="targetPoint" />
            <Array as="points" />
          </mxGeometry>
        </mxCell>
        <mxCell id="lJIQFSLDb_arjXTgXhPW-16" value="&lt;div style=&quot;font-size: 10px; line-height: 100%;&quot;&gt;&lt;span style=&quot;font-family: arial; font-size: 10px; background-color: initial;&quot;&gt;&lt;font style=&quot;font-size: 10px;&quot;&gt;Mutual Trust&lt;/font&gt;&lt;/span&gt;&lt;/div&gt;" style="text;html=1;align=left;verticalAlign=middle;resizable=0;points=[];autosize=1;strokeColor=none;fillColor=none;fontSize=10;fontColor=#1D2D3E;fontFamily=Helvetica;labelPosition=center;verticalLabelPosition=middle;" parent="LHxhHbAAdALZvwne7CDH-15" vertex="1">
          <mxGeometry x="247" y="60.5" width="73" height="23" as="geometry" />
        </mxCell>
        <mxCell id="lJIQFSLDb_arjXTgXhPW-17" value="" style="endArrow=none;html=1;strokeColor=#188918;bendable=1;rounded=0;endFill=0;endSize=3;strokeWidth=1.5;dashed=1;" parent="LHxhHbAAdALZvwne7CDH-15" edge="1">
          <mxGeometry width="50" height="50" relative="1" as="geometry">
            <mxPoint x="237.25" y="93.47000000000025" as="sourcePoint" />
            <mxPoint x="216.25" y="93.47000000000025" as="targetPoint" />
            <Array as="points" />
          </mxGeometry>
        </mxCell>
        <mxCell id="lJIQFSLDb_arjXTgXhPW-18" value="&lt;div style=&quot;font-size: 10px; line-height: 100%;&quot;&gt;&lt;span style=&quot;font-family: arial; font-size: 10px; background-color: initial;&quot;&gt;&lt;font style=&quot;font-size: 10px;&quot;&gt;Optional&lt;/font&gt;&lt;/span&gt;&lt;/div&gt;" style="text;html=1;align=left;verticalAlign=middle;resizable=0;points=[];autosize=1;strokeColor=none;fillColor=none;fontSize=10;fontColor=#1D2D3E;fontFamily=Helvetica;labelPosition=center;verticalLabelPosition=middle;" parent="LHxhHbAAdALZvwne7CDH-15" vertex="1">
          <mxGeometry x="247" y="82.5" width="55" height="23" as="geometry" />
        </mxCell>
        <mxCell id="LHxhHbAAdALZvwne7CDH-33" value="" style="group" parent="1" vertex="1" connectable="0">
          <mxGeometry x="49" y="849" width="710" height="70" as="geometry" />
        </mxCell>
        <mxCell id="LHxhHbAAdALZvwne7CDH-30" value="&lt;font face=&quot;arial&quot; color=&quot;#475e75&quot;&gt;This BTP Solution Diagram depicts the events to business framework which is an event-driven side-by-side extension application&lt;br&gt;that integrates any type of event from system/applications (providers) into the SAP ecosystem (consumer) via SAP BTP.&lt;/font&gt;" style="text;html=1;align=left;verticalAlign=middle;resizable=0;points=[];autosize=1;strokeColor=none;fillColor=none;fontSize=12;fontColor=#1D2D3E;fontFamily=Helvetica;" parent="LHxhHbAAdALZvwne7CDH-33" vertex="1">
          <mxGeometry y="30" width="710" height="40" as="geometry" />
        </mxCell>
        <mxCell id="LHxhHbAAdALZvwne7CDH-31" value="&lt;font face=&quot;arial&quot; color=&quot;#475e75&quot;&gt;&lt;b&gt;Diagram Level: 2&lt;/b&gt;&lt;/font&gt;" style="text;html=1;align=left;verticalAlign=middle;resizable=0;points=[];autosize=1;strokeColor=none;fillColor=none;fontSize=12;fontColor=#1D2D3E;fontFamily=Helvetica;" parent="LHxhHbAAdALZvwne7CDH-33" vertex="1">
          <mxGeometry width="120" height="30" as="geometry" />
        </mxCell>
        <mxCell id="LHxhHbAAdALZvwne7CDH-37" value="" style="group" parent="1" vertex="1" connectable="0">
          <mxGeometry x="1580.44" y="394.53999999999996" width="158.17000000000007" height="133.85799999999995" as="geometry" />
        </mxCell>
        <mxCell id="aZ0MxrTqLQG-AXpiNajb-62" value="" style="group" parent="LHxhHbAAdALZvwne7CDH-37" vertex="1" connectable="0">
          <mxGeometry width="158.17" height="133.858" as="geometry" />
        </mxCell>
        <mxCell id="aZ0MxrTqLQG-AXpiNajb-63" value="" style="rounded=1;whiteSpace=wrap;html=1;strokeColor=#0070F2;strokeWidth=1.5;arcSize=16;fillColor=#FFFFFF;perimeterSpacing=0;absoluteArcSize=1;" parent="aZ0MxrTqLQG-AXpiNajb-62" vertex="1">
          <mxGeometry y="13.372427572427572" width="153" height="120.48557242757244" as="geometry" />
        </mxCell>
        <mxCell id="aZ0MxrTqLQG-AXpiNajb-64" value="&lt;font face=&quot;arial&quot; style=&quot;font-size: 16px;&quot;&gt;&lt;b style=&quot;font-size: 16px;&quot;&gt;SAP Cloud &lt;br&gt;Solutions&lt;/b&gt;&lt;/font&gt;" style="text;html=1;align=left;verticalAlign=middle;resizable=0;points=[];autosize=1;strokeColor=none;fillColor=none;fontSize=12;fontColor=#1d2d3e;fontFamily=Helvetica;" parent="aZ0MxrTqLQG-AXpiNajb-62" vertex="1">
          <mxGeometry x="12.158772399933008" y="34.92931094910993" width="100" height="50" as="geometry" />
        </mxCell>
        <mxCell id="LHxhHbAAdALZvwne7CDH-36" value="" style="shape=image;verticalLabelPosition=bottom;labelBackgroundColor=default;verticalAlign=top;imageAspect=0;image=data:image/svg+xml,PHN2ZyB4bWxucz0iaHR0cDovL3d3dy53My5vcmcvMjAwMC9zdmciIGZpbGw9Im5vbmUiIHZpZXdCb3g9IjAgMCAxNyAxMiIgaGVpZ2h0PSIxMiIgd2lkdGg9IjE3Ij4mI3hhOzxwYXRoIGZpbGw9InVybCgjcGFpbnQwX2xpbmVhcl83MjRfMTQpIiBkPSJNMTIuMzQ2MSAxMS45OTc0SDMuODE0ODVDMy4zNTY1MiAxMS45OTc0IDIuOTE5MDIgMTEuOTAzNiAyLjUwMjM1IDExLjcxNjJDMi4wODU2OCAxMS41MDc4IDEuNzIxMSAxMS4yMzcgMS40MDg2IDEwLjkwMzZDMS4wOTYxIDEwLjU0OTUgMC44NDYxIDEwLjE0MzIgMC42NTg2IDkuNjg0OTFDMC40OTE5MyA5LjIyNjYxIDAuNDA4NiA4LjczNzAxIDAuNDA4NiA4LjIxNjIxQzAuNDA4NiA3LjcxNjE2IDAuNDkxOTMgNy4yMzY5OSAwLjY1ODYgNi43Nzg2NkMwLjg0NjEgNi4zMjAzMyAxLjA4NTY4IDUuOTI0NDkgMS4zNzczNSA1LjU5MTE2QzEuNjY5MDIgNS4yMzY5OSAyLjAxMjc3IDQuOTY2MTYgMi40MDg2IDQuNzc4NjZDMi44MjUyNyA0LjU3MDMzIDMuMjYyNzcgNC40NjYxNiAzLjcyMTEgNC40NjYxNkMzLjgyNTI3IDMuODQxMTYgNC4wMTI3NyAzLjI1NzgzIDQuMjgzNiAyLjcxNjE2QzQuNTU0NDMgMi4xNTM2NiA0Ljg5ODE4IDEuNjc0NDkgNS4zMTQ4NSAxLjI3ODY2QzUuNzMxNTIgMC44ODI4MzQgNi4yMDAyNyAwLjU3MDMzNCA2LjcyMTEgMC4zNDExNjRDNy4yNjI3NyAwLjExMTk5NCA3LjgyNTI3IC0wLjAwMjU4NjM2IDguNDA4NiAtMC4wMDI1ODYzNkM5LjMwNDQzIC0wLjAwMjU4NjM2IDEwLjEzNzcgMC4yNjgyNDQgMTAuOTA4NiAwLjgwOTkxNEMxMS42Nzk0IDEuMzUxNTggMTIuMjczMSAyLjA4MDc0IDEyLjY4OTggMi45OTc0MUMxMy4yMTA2IDMuMDM5MDggMTMuNzAwMiAzLjE4NDkxIDE0LjE1ODYgMy40MzQ5MUMxNC42MTY5IDMuNjg0OTEgMTUuMDEyOCA0LjAxODI0IDE1LjM0NjEgNC40MzQ5MUMxNS42Nzk1IDQuODMwNzQgMTUuOTM5OCA1LjI4OTA4IDE2LjEyNzMgNS44MDk5MUMxNi4zMTQ4IDYuMzMwNzQgMTYuNDA4NiA2Ljg5MzI0IDE2LjQwODYgNy40OTc0MUMxNi40MDg2IDguMTIyNDEgMTYuMzA0NSA4LjcxNjIxIDE2LjA5NjEgOS4yNzg2MUMxNS44ODc4IDkuODIwMzEgMTUuNTk2MSAxMC4yOTk1IDE1LjIyMTEgMTAuNzE2MkMxNC44NjcgMTEuMTEyIDE0LjQzOTggMTEuNDI0NSAxMy45Mzk4IDExLjY1MzZDMTMuNDM5OCAxMS44ODI4IDEyLjkwODcgMTEuOTk3NCAxMi4zNDYxIDExLjk5NzRaTTMuODE0ODUgNi4wNTk5MUMzLjMxNDg1IDYuMDU5OTEgMi44ODc3NyA2LjI2ODI0IDIuNTMzNiA2LjY4NDkxQzIuMTc5NDMgNy4xMDE1OCAyLjAwMjM1IDcuNjExOTkgMi4wMDIzNSA4LjIxNjIxQzIuMDAyMzUgOC44MjAzMSAyLjE3OTQzIDkuMzQxMjEgMi41MzM2IDkuNzc4NjFDMi44ODc3NyAxMC4xOTUzIDMuMzE0ODUgMTAuNDAzNiAzLjgxNDg1IDEwLjQwMzZIMTIuMzQ2MUMxMy4wMzM3IDEwLjQwMzYgMTMuNjE3IDEwLjEyMjQgMTQuMDk2MSA5LjU1OTkxQzE0LjU3NTMgOC45OTc0MSAxNC44MTQ4IDguMzA5OTEgMTQuODE0OCA3LjQ5NzQxQzE0LjgxNDggNi42NjQwOCAxNC41NzUzIDUuOTY2MTYgMTQuMDk2MSA1LjQwMzY2QzEzLjYxNyA0Ljg0MTE2IDEzLjAzMzcgNC41NTk5MSAxMi4zNDYxIDQuNTU5OTFIMTIuMTI3M0MxMS43NzMxIDQuNTU5OTEgMTEuNTIzMSA0LjM4MjgzIDExLjM3NzMgNC4wMjg2NkMxMS4xMjczIDMuMjk5NDkgMTAuNzMxNSAyLjcxNjE2IDEwLjE4OTggMi4yNzg2NkM5LjY0ODE1IDEuODIwMzMgOS4wNTQ0MyAxLjU5MTE2IDguNDA4NiAxLjU5MTE2QzcuOTcxMSAxLjU5MTE2IDcuNTY0ODUgMS42OTUzMyA3LjE4OTg1IDEuOTAzNjZDNi44MTQ4NSAyLjA5MTE2IDYuNDgxNTIgMi4zNTE1OCA2LjE4OTg1IDIuNjg0OTFDNS45MTkwMiAyLjk5NzQxIDUuNzAwMjcgMy4zODI4MyA1LjUzMzYgMy44NDExNkM1LjM2NjkzIDQuMjc4NjYgNS4yODM2IDQuNzQ3NDEgNS4yODM2IDUuMjQ3NDFDNS4yODM2IDUuNDc2NTggNS4yMDAyNyA1LjY3NDQ5IDUuMDMzNiA1Ljg0MTE2QzQuODg3NzcgNS45ODY5OSA0LjcwMDI3IDYuMDU5OTEgNC40NzExIDYuMDU5OTFIMy44MTQ4NVoiLz4mI3hhOzxkZWZzPiYjeGE7PGxpbmVhckdyYWRpZW50IGdyYWRpZW50VW5pdHM9InVzZXJTcGFjZU9uVXNlIiB5Mj0iMTAuMzM3MyIgeDI9IjE0LjI2MDIiIHkxPSIxLjEyNjIzIiB4MT0iMi40NzY0NiIgaWQ9InBhaW50MF9saW5lYXJfNzI0XzE0Ij4mI3hhOzxzdG9wIHN0b3AtY29sb3I9IiMyMzk1RkYiLz4mI3hhOzxzdG9wIHN0b3AtY29sb3I9IiMwMDU3RDIiIG9mZnNldD0iMSIvPiYjeGE7PC9saW5lYXJHcmFkaWVudD4mI3hhOzwvZGVmcz4mI3hhOzwvc3ZnPg==;strokeWidth=1.5;aspect=fixed;" parent="LHxhHbAAdALZvwne7CDH-37" vertex="1">
          <mxGeometry x="8.069999999999936" y="19.100000000000136" width="28" height="17.89" as="geometry" />
        </mxCell>
        <mxCell id="LHxhHbAAdALZvwne7CDH-38" value="" style="group" parent="1" vertex="1" connectable="0">
          <mxGeometry x="1580.44" y="159" width="154.06999999999994" height="133.858" as="geometry" />
        </mxCell>
        <mxCell id="aZ0MxrTqLQG-AXpiNajb-19" value="" style="rounded=1;whiteSpace=wrap;html=1;strokeColor=#0070F2;strokeWidth=1.5;arcSize=16;fillColor=#FFFFFF;perimeterSpacing=0;absoluteArcSize=1;" parent="LHxhHbAAdALZvwne7CDH-38" vertex="1">
          <mxGeometry width="153" height="133.858" as="geometry" />
        </mxCell>
        <mxCell id="aZ0MxrTqLQG-AXpiNajb-20" value="&lt;p style=&quot;line-height: 110%;&quot;&gt;&lt;font face=&quot;arial&quot; style=&quot;font-size: 16px;&quot;&gt;&lt;b style=&quot;font-size: 16px;&quot;&gt;SAP On-Premise &lt;br&gt;Solutions&lt;/b&gt;&lt;/font&gt;&lt;/p&gt;" style="text;html=1;align=left;verticalAlign=middle;resizable=0;points=[];autosize=1;strokeColor=none;fillColor=none;fontSize=12;fontColor=#1d2d3e;fontFamily=Helvetica;" parent="LHxhHbAAdALZvwne7CDH-38" vertex="1">
          <mxGeometry x="9.069999999999936" y="22.750000000000227" width="145" height="66" as="geometry" />
        </mxCell>
        <mxCell id="aZ0MxrTqLQG-AXpiNajb-21" value="" style="shape=image;verticalLabelPosition=bottom;labelBackgroundColor=default;verticalAlign=top;aspect=fixed;imageAspect=0;image=data:image/svg+xml,PHN2ZyB4bWxucz0iaHR0cDovL3d3dy53My5vcmcvMjAwMC9zdmciIGZpbGw9Im5vbmUiIHZpZXdCb3g9IjAgMCAxNiAxNyIgaGVpZ2h0PSIxNyIgd2lkdGg9IjE2Ij4mI3hhOzxwYXRoIGZpbGw9InVybCgjcGFpbnQwX2xpbmVhcl83MjRfMTIpIiBkPSJNMTQuMzMzNSA1LjgzNDk0QzE0LjU4MzUgNi4wODQ5NCAxNC43ODE0IDYuMzc2NjEgMTQuOTI3MiA2LjcwOTk0QzE1LjA5MzkgNy4wMjI0NCAxNS4xNzcyIDcuMzY2MTkgMTUuMTc3MiA3Ljc0MTE5VjE0LjQyODdDMTUuMTc3MiAxNS4xMzcgMTQuOTM3NiAxNS43MjA0IDE0LjQ1ODUgMTYuMTc4N0MxMy45NzkzIDE2LjY1NzkgMTMuMzg1NSAxNi44OTc1IDEyLjY3NzIgMTYuODk3NUgyLjc3MDk0QzIuMDgzNDQgMTYuODk3NSAxLjUwMDExIDE2LjY1NzkgMS4wMjA5NCAxNi4xNzg3QzAuNTQxNzY4IDE1LjcyMDQgMC4zMDIxODUgMTUuMTM3IDAuMzAyMTg1IDE0LjQyODdWNy43NDExOUMwLjMwMjE4NSA2Ljk0OTUyIDAuNTgzNDM1IDYuMzE0MTEgMS4xNDU5NCA1LjgzNDk0TDYuMDgzNDQgMS41NTM2OUM2LjU4MzQ0IDEuMTM3MDIgNy4xNDU5NCAwLjkyODY4OCA3Ljc3MDk0IDAuOTI4Njg4QzguMzk1OTQgMC45Mjg2ODggOC45Mzc2MSAxLjEzNzAyIDkuMzk1OTQgMS41NTM2OUwxNC4zMzM1IDUuODM0OTRaTTguOTg5NjkgMTAuMzAzN0g2LjQ4OTY5VjE1LjI3MjVIOC45ODk2OVYxMC4zMDM3Wk0xMy40MjcyIDcuNzQxMTlDMTMuNDI3MiA3LjQ3MDM2IDEzLjM0MzkgNy4yNTE2MSAxMy4xNzcyIDcuMDg0OTRMOC4yMzk2OSAyLjgwMzY5QzcuODg1NTIgMi41MzI4NiA3LjUyMDk0IDIuNTMyODYgNy4xNDU5NCAyLjgwMzY5TDIuMjA4NDQgNy4wODQ5NEMyLjA0MTc3IDcuMjUxNjEgMS45NTg0NCA3LjQ3MDM2IDEuOTU4NDQgNy43NDExOVYxNC40Mjg3QzEuOTU4NDQgMTQuNjc4NyAyLjAzMTM2IDE0Ljg4NyAyLjE3NzE5IDE1LjA1MzdDMi4zNDM4NiAxNS4xOTk1IDIuNTQxNzcgMTUuMjcyNSAyLjc3MDk0IDE1LjI3MjVINC44MzM0NFYxMC4zMDM3QzQuODMzNDQgOS44NDUzNiA0Ljk4OTY5IDkuNDU5OTQgNS4zMDIxOSA5LjE0NzQ0QzUuNjM1NTIgOC44MTQxMSA2LjAzMTM2IDguNjQ3NDQgNi40ODk2OSA4LjY0NzQ0SDguOTg5NjlDOS40NDgwMiA4LjY0NzQ0IDkuODMzNDkgOC44MTQxMSAxMC4xNDU5IDkuMTQ3NDRDMTAuNDU4NSA5LjQ1OTk0IDEwLjYxNDcgOS44NDUzNiAxMC42MTQ3IDEwLjMwMzdWMTUuMjcyNUgxMi42NzcyQzEyLjkyNzIgMTUuMjcyNSAxMy4xMjUxIDE1LjE5OTUgMTMuMjcwOSAxNS4wNTM3QzEzLjQzNzYgMTQuODg3IDEzLjUyMDkgMTQuNjc4NyAxMy41MjA5IDE0LjQyODdMMTMuNDI3MiA3Ljc0MTE5WiIvPiYjeGE7PGRlZnM+JiN4YTs8bGluZWFyR3JhZGllbnQgZ3JhZGllbnRVbml0cz0idXNlclNwYWNlT25Vc2UiIHkyPSI5Ljg1NDkiIHgyPSIxNS44MTkzIiB5MT0iMi40MzA4NCIgeDE9IjIuMjI0NjQiIGlkPSJwYWludDBfbGluZWFyXzcyNF8xMiI+JiN4YTs8c3RvcCBzdG9wLWNvbG9yPSIjMjM5NUZGIi8+JiN4YTs8c3RvcCBzdG9wLWNvbG9yPSIjMDA1N0QyIiBvZmZzZXQ9IjEiLz4mI3hhOzwvbGluZWFyR3JhZGllbnQ+JiN4YTs8L2RlZnM+JiN4YTs8L3N2Zz4=;strokeWidth=1.5;" parent="LHxhHbAAdALZvwne7CDH-38" vertex="1">
          <mxGeometry x="8.889999999999873" y="7.250000000000227" width="26.36" height="28" as="geometry" />
        </mxCell>
        <mxCell id="aZ0MxrTqLQG-AXpiNajb-110" value="&lt;span style=&quot;font-family: Helvetica; font-style: normal; font-variant-ligatures: normal; font-variant-caps: normal; letter-spacing: normal; orphans: 2; text-indent: 0px; text-transform: none; widows: 2; word-spacing: 0px; -webkit-text-stroke-width: 0px; text-decoration-thickness: initial; text-decoration-style: initial; text-decoration-color: initial; float: none; display: inline !important;&quot;&gt;&lt;font color=&quot;#556b82&quot; style=&quot;font-size: 11px;&quot;&gt;Cloud Connector&lt;/font&gt;&lt;/span&gt;" style="text;whiteSpace=wrap;html=1;align=left;" parent="LHxhHbAAdALZvwne7CDH-38" vertex="1">
          <mxGeometry x="38.069999999999936" y="83.96000000000004" width="96" height="24.74" as="geometry" />
        </mxCell>
        <mxCell id="aZ0MxrTqLQG-AXpiNajb-161" value="" style="shape=image;verticalLabelPosition=bottom;labelBackgroundColor=default;verticalAlign=top;aspect=fixed;imageAspect=0;image=data:image/svg+xml,PHN2ZyB4bWxucz0iaHR0cDovL3d3dy53My5vcmcvMjAwMC9zdmciIGZpbGw9Im5vbmUiIHZpZXdCb3g9IjAgMCAxNiAxNiIgaGVpZ2h0PSIxNiIgd2lkdGg9IjE2Ij4mI3hhOzxjaXJjbGUgc3Ryb2tlLXdpZHRoPSIwLjI4NTcwOCIgc3Ryb2tlPSIjRDVEQUREIiBmaWxsPSJ1cmwoI3BhaW50MF9saW5lYXJfMzg5MF8yMTUzNSkiIHI9IjcuODU2OTYiIGN5PSI3Ljk5NzM4IiBjeD0iNy45OTczOCIvPiYjeGE7PGcgY2xpcC1wYXRoPSJ1cmwoI2NsaXAwXzM4OTBfMjE1MzUpIj4mI3hhOzxwYXRoIHN0cm9rZS13aWR0aD0iMC43NSIgc3Ryb2tlPSIjRjRGNEY0IiBmaWxsPSJ1cmwoI3BhaW50MV9saW5lYXJfMzg5MF8yMTUzNSkiIGQ9Ik03LjYwNDA4IDguODk4NjRMNy43NTczMSA5LjA2NDA2TDcuOTc1MjcgOS4wMDYyOUM4LjEzMzMzIDguOTY0MzkgOC4yNjc1NiA4Ljg3ODU0IDguMzc4MjkgOC43Njc4MUM4LjU0MjcxIDguNjAzMzkgOC42NDQzNyA4LjM5NDE0IDguNjQ0MzcgOC4xNTEwOEM4LjY0NDM3IDguMTA5MzggOC42NDEzOCA4LjA2ODY4IDguNjM1NTkgOC4wMjkwMkM4LjY3NTI1IDguMDM0ODEgOC43MTU5NSA4LjAzNzgxIDguNzU3NjYgOC4wMzc4MUM5LjAwMDcxIDguMDM3ODEgOS4yMDk5NiA3LjkzNjE1IDkuMzc0MzggNy43NzE3MkM5LjUzODgxIDcuNjA3MyA5LjY0MDQ3IDcuMzk4MDUgOS42NDA0NyA3LjE1NDk5QzkuNjQwNDcgNi45MTE5NCA5LjUzODgxIDYuNzAyNjkgOS4zNzQzOCA2LjUzODI3TDkuMzc0NCA2LjUzODI1TDkuMzcxNDUgNi41MzUzN0w4Ljc0NDA0IDUuOTIxNkw4Ljg4NjEgNS43Nzk1NEw4LjY1MDQgNS41NDM4NEw4Ljg4NjEgNS43Nzk1NEM5LjA0ODM3IDUuNjE3MjcgOS4xMzI2NiA1LjQxMDg4IDkuMTMyNjYgNS4xODIzNUM5LjEzMjY2IDQuOTUxNzcgOS4wNTU3IDQuNzM1MjIgOC44ODYxIDQuNTY1NjJMOC40MzY4OCA0LjExNjRDNy45OTcyNiAzLjY3Njc4IDcuNDY4MjggMy40MzI2NCA2Ljg2MjggMy40MDE1OUM2LjM3NjY4IDMuMzc2NjcgNS45MjcwNyAzLjQ4OTYgNS41MjI0NSAzLjczNTI3TDQuNTA1ODcgMi42OTIxM0w0LjUwNTg5IDIuNjkyMTFMNC41MDI0NyAyLjY4ODY5QzQuMzM4MDQgMi41MjQyNyA0LjEyODc5IDIuNDIyNjEgMy44ODU3NCAyLjQyMjYxQzMuNjQ1MDUgMi40MjI2MSAzLjQ0Mzk4IDIuNTMzMjYgMy4yODg1NSAyLjY4ODY5QzMuMTI0MTIgMi44NTMxMiAzLjAyMjQ2IDMuMDYyMzcgMy4wMjI0NiAzLjMwNTQyQzMuMDIyNDYgMy41NDc1NCAzLjEyMzM0IDMuNzU2MTIgMy4yODY2NiAzLjkyMDI1TDQuMzE1MTYgNC45NzU2MkM0LjA4NjggNS4zNzg2NSAzLjk4MzE5IDUuODIxMjMgNC4wMDgxNyA2LjI5NThMNC4wMDgyIDYuMjk2MzNDNC4wMzk3OCA2Ljg4MDU0IDQuMjg3NTEgNy4zOTQ4NyA0LjcyMjk2IDcuODMwMzJMNC43MjI4OSA3LjgzMDM4TDQuNzI4OTEgNy44MzYxNEw1LjEgOC4xOTEwOUw1LjI1NzI4IDguMzQxNTNMNS40NjU5MiA4LjI3OTU5QzUuNjU0MzUgOC4yMjM2NiA1Ljg0OTI2IDguMTk1MTkgNi4wNDg5OCA4LjE5NTE5QzYuNDgxMzMgOC4xOTUxOSA2Ljg4MTkyIDguMzI4NjUgNy4yMzY5NCA4LjU3ODEyQzcuMzcyNTUgOC42NzM0MiA3LjQ5NDc5IDguNzgwNjYgNy42MDQwOCA4Ljg5ODY0WiIvPiYjeGE7PHBhdGggc3Ryb2tlLXdpZHRoPSIwLjc1IiBzdHJva2U9IiNGNEY0RjQiIGZpbGw9InVybCgjcGFpbnQyX2xpbmVhcl8zODkwXzIxNTM1KSIgZD0iTTkuNzYyODkgMTIuMDk4MkMxMC4yNTMgMTIuMTEwOCAxMC43MDMyIDExLjk3OSAxMS4xMDYgMTEuNzEyMkwxMi4yNjEyIDEyLjg2NzRDMTIuNDE2NyAxMy4wMjI5IDEyLjYxNzcgMTMuMTMzNSAxMi44NTg0IDEzLjEzMzVDMTMuMTAxNSAxMy4xMzM1IDEzLjMxMDcgMTMuMDMxOSAxMy40NzUyIDEyLjg2NzRDMTMuNjM5NiAxMi43MDMgMTMuNzQxMiAxMi40OTM4IDEzLjc0MTIgMTIuMjUwN0MxMy43NDEyIDEyLjAxMDUgMTMuNjMxMSAxMS44MDk4IDEzLjQ3NjEgMTEuNjU0NUwxMi4zMTMxIDEwLjQ3NTFDMTIuNTU3IDEwLjA4NjEgMTIuNjcxNCA5LjY1NDcxIDEyLjY0NzIgOS4xODg4QzEyLjYzMDIgOC41OTIxNiAxMi4zOTAxIDguMDY4NDcgMTEuOTUxNyA3LjYzMDFMMTEuNTAyNSA3LjE4MDg4QzExLjMzODEgNy4wMTY0NSAxMS4xMjg4IDYuOTE0NzkgMTAuODg1OCA2LjkxNDc5QzEwLjY0MjcgNi45MTQ3OSAxMC40MzM1IDcuMDE2NDUgMTAuMjY5MSA3LjE4MDg4TDguNDUxMTQgOC45OTg3OUw4LjE0NjM1IDkuMzAzNThMOC40OTAzOSA5LjU2MzI2QzguNjE1OCA5LjY1NzkzIDguNzI5MTYgOS43Njc5MyA4LjgyOTcyIDkuODkyMjlMOC44Mjk2OSA5Ljg5MjMyTDguODMzMiA5Ljg5NjU0QzguOTkxMiAxMC4wODYyIDkuMTExMDYgMTAuMzAxIDkuMTk1MzIgMTAuNTM1QzkuMjg0MDQgMTAuNzgxNSA5LjMyNTQ4IDExLjA0MDIgOS4zMjU0OCAxMS4zMDZDOS4zMjU0OCAxMS40MjU4IDkuMzE2ODQgMTEuNTQzOSA5LjI5OTQzIDExLjY2MDFMOS4yNDEwOSAxMi4wNDk3TDkuNjMzMDMgMTIuMDg4OEM5LjY3MjkgMTIuMDkyOCA5LjcxMjk5IDEyLjA5NTggOS43NTMzIDEyLjA5NzlMOS43NTMyOSAxMi4wOThMOS43NjI4OSAxMi4wOTgyWiIvPiYjeGE7PHBhdGggZmlsbD0idXJsKCNwYWludDNfbGluZWFyXzM4OTBfMjE1MzUpIiBkPSJNNC41MjY0NSAxMi43OTc3SDcuMzU0MTFDNy41NDA1NSAxMi43OTc3IDcuNzE2NjMgMTIuNzU5NyA3Ljg4MjM1IDEyLjY4MzdDOC4wNDgwOCAxMi42MDc4IDguMTg5NjMgMTIuNTA0MiA4LjMwNzAyIDEyLjM3M0M4LjQzMTMxIDEyLjIzNDkgOC41Mjc5OSAxMi4wNzYxIDguNTk3MDQgMTEuODk2NkM4LjY2NjA5IDExLjcxMDEgOC43MDA2MSAxMS41MTMzIDguNzAwNjEgMTEuMzA2MkM4LjcwMDYxIDExLjEwNTkgOC42Njk1NCAxMC45MTk1IDguNjA3NCAxMC43NDY4QzguNTQ1MjUgMTAuNTc0MiA4LjQ1ODkzIDEwLjQyMjMgOC4zNDg0NSAxMC4yOTExQzguMjM3OTcgMTAuMTUzIDguMTA2NzcgMTAuMDQyNSA3Ljk1NDg2IDkuOTU5NjZDNy44MDI5NSA5Ljg3NjggNy42NDA2NyA5LjgyODQ2IDcuNDY4MDUgOS44MTQ2NUM3LjMyOTk0IDkuNTEwODMgNy4xMzMxNSA5LjI2OTE1IDYuODc3NjYgOS4wODk2MUM2LjYyMjE3IDguOTEwMDggNi4zNDU5NiA4LjgyMDMxIDYuMDQ5MDQgOC44MjAzMUM1Ljg1NTY5IDguODIwMzEgNS42NjkyNSA4Ljg1ODI5IDUuNDg5NzIgOC45MzQyNUM1LjMxNzA5IDkuMDEwMiA1LjE2MTczIDkuMTEzNzggNS4wMjM2MiA5LjI0NDk4QzQuODg1NTIgOS4zNzYxOCA0Ljc3MTU5IDkuNTM1IDQuNjgxODIgOS43MjE0M0M0LjU5MjA1IDkuOTAwOTcgNC41Mjk5MSAxMC4wOTQzIDQuNDk1MzggMTAuMzAxNUM0LjM0MzQ3IDEwLjMwMTUgNC4xOTg0NiAxMC4zMzYgNC4wNjAzNiAxMC40MDVDMy45MjkxNiAxMC40NjcyIDMuODE1MjIgMTAuNTU3IDMuNzE4NTUgMTAuNjc0M0MzLjYyMTg4IDEwLjc4NDggMy41NDI0NyAxMC45MTYgMy40ODAzMiAxMS4wNjc5QzMuNDI1MDggMTEuMjE5OSAzLjM5NzQ2IDExLjM3ODcgMy4zOTc0NiAxMS41NDQ0QzMuMzk3NDYgMTEuNzE3IDMuNDI1MDggMTEuODc5MyAzLjQ4MDMyIDEyLjAzMTJDMy41NDI0NyAxMi4xODMxIDMuNjI1MzMgMTIuMzE3OCAzLjcyODkxIDEyLjQzNTJDMy44MzI0OSAxMi41NDU2IDMuOTUzMzMgMTIuNjM1NCA0LjA5MTQzIDEyLjcwNDVDNC4yMjk1MyAxMi43NjY2IDQuMzc0NTQgMTIuNzk3NyA0LjUyNjQ1IDEyLjc5NzdaIi8+JiN4YTs8L2c+JiN4YTs8ZGVmcz4mI3hhOzxsaW5lYXJHcmFkaWVudCBncmFkaWVudFVuaXRzPSJ1c2VyU3BhY2VPblVzZSIgeTI9IjE0Ljc0NTMiIHgyPSIxMy42ODU0IiB5MT0iMi4yNjg0NSIgeDE9IjEuNDQ4NDgiIGlkPSJwYWludDBfbGluZWFyXzM4OTBfMjE1MzUiPiYjeGE7PHN0b3Agc3RvcC1jb2xvcj0id2hpdGUiLz4mI3hhOzxzdG9wIHN0b3AtY29sb3I9IiNFQUVDRUUiIG9mZnNldD0iMSIvPiYjeGE7PC9saW5lYXJHcmFkaWVudD4mI3hhOzxsaW5lYXJHcmFkaWVudCBncmFkaWVudFVuaXRzPSJ1c2VyU3BhY2VPblVzZSIgeTI9IjcuNzgyMDIiIHgyPSI4LjM3MDU1IiB5MT0iMy42NzE4NyIgeDE9IjQuMjc3MSIgaWQ9InBhaW50MV9saW5lYXJfMzg5MF8yMTUzNSI+JiN4YTs8c3RvcCBzdG9wLWNvbG9yPSIjMDE5NUZGIi8+JiN4YTs8c3RvcCBzdG9wLWNvbG9yPSIjMTE0N0U5IiBvZmZzZXQ9IjAuOTkxMDI4Ii8+JiN4YTs8L2xpbmVhckdyYWRpZW50PiYjeGE7PGxpbmVhckdyYWRpZW50IGdyYWRpZW50VW5pdHM9InVzZXJTcGFjZU9uVXNlIiB5Mj0iMTEuMzIyNCIgeDI9IjEzLjE5MjkiIHkxPSI4LjEwNzYxIiB4MT0iOS40MTMzNSIgaWQ9InBhaW50Ml9saW5lYXJfMzg5MF8yMTUzNSI+JiN4YTs8c3RvcCBzdG9wLWNvbG9yPSIjMDE5NUZGIi8+JiN4YTs8c3RvcCBzdG9wLWNvbG9yPSIjMTE0N0U5IiBvZmZzZXQ9IjAuOTkxMDI4Ii8+JiN4YTs8L2xpbmVhckdyYWRpZW50PiYjeGE7PGxpbmVhckdyYWRpZW50IGdyYWRpZW50VW5pdHM9InVzZXJTcGFjZU9uVXNlIiB5Mj0iMTIuOTc5NCIgeDI9IjYuODUwNDgiIHkxPSI5LjQwNTQ3IiB4MT0iNC4xODE1IiBpZD0icGFpbnQzX2xpbmVhcl8zODkwXzIxNTM1Ij4mI3hhOzxzdG9wIHN0b3AtY29sb3I9IiMxMzQ4RkYiLz4mI3hhOzxzdG9wIHN0b3AtY29sb3I9IiMwNjIzOEQiIG9mZnNldD0iMSIvPiYjeGE7PC9saW5lYXJHcmFkaWVudD4mI3hhOzxjbGlwUGF0aCBpZD0iY2xpcDBfMzg5MF8yMTUzNSI+JiN4YTs8cmVjdCB0cmFuc2Zvcm09InRyYW5zbGF0ZSgzLjM5NzQ2IDIuNzk3NjEpIiBmaWxsPSJ3aGl0ZSIgaGVpZ2h0PSIxMCIgd2lkdGg9IjEwIi8+JiN4YTs8L2NsaXBQYXRoPiYjeGE7PC9kZWZzPiYjeGE7PC9zdmc+;points=[[0,0,0,0,0],[0,0.25,0,0,0],[0,0.5,0,0,0],[0,0.75,0,0,0],[0.25,0,0,0,0],[0.5,0,0,0,0],[0.75,0,0,0,0],[1,0,0,0,0],[1,0.25,0,0,0],[1,0.5,0,0,0],[1,0.75,0,0,0]];" parent="LHxhHbAAdALZvwne7CDH-38" vertex="1">
          <mxGeometry x="6.069999999999936" y="80.33000000000015" width="32" height="32" as="geometry" />
        </mxCell>
        <mxCell id="LHxhHbAAdALZvwne7CDH-40" value="" style="endArrow=blockThin;html=1;strokeColor=#475E75;bendable=1;rounded=0;endFill=1;endSize=4;strokeWidth=1.5;startSize=4;startArrow=none;startFill=0;edgeStyle=elbowEdgeStyle;elbow=vertical;jumpStyle=gap;entryX=0;entryY=0.5;entryDx=0;entryDy=0;" parent="1" target="aZ0MxrTqLQG-AXpiNajb-85" edge="1">
          <mxGeometry width="50" height="50" relative="1" as="geometry">
            <mxPoint x="1481.0993999999998" y="467.8809" as="sourcePoint" />
            <mxPoint x="1570" y="343" as="targetPoint" />
            <Array as="points">
              <mxPoint x="1527" y="343" />
            </Array>
          </mxGeometry>
        </mxCell>
        <mxCell id="aZ0MxrTqLQG-AXpiNajb-91" value="" style="endArrow=none;html=1;strokeColor=#5B738B;bendable=1;rounded=1;endFill=0;endSize=3;strokeWidth=3;jumpStyle=gap;" parent="1" edge="1">
          <mxGeometry width="50" height="50" relative="1" as="geometry">
            <mxPoint x="1549.41" y="77.75000000000006" as="sourcePoint" />
            <mxPoint x="1549.44" y="769" as="targetPoint" />
            <Array as="points" />
          </mxGeometry>
        </mxCell>
        <mxCell id="GyjTEhcaRAmpPdTnbKXX-298" value="SAP Connectivity&#xa;service" style="shape=image;verticalLabelPosition=bottom;verticalAlign=top;imageAspect=0;aspect=fixed;image=data:image/svg+xml,PHN2ZyB4bWxucz0iaHR0cDovL3d3dy53My5vcmcvMjAwMC9zdmciIGZpbGw9Im5vbmUiIHZpZXdCb3g9IjAgMCAxNiAxNiIgaGVpZ2h0PSIxNiIgd2lkdGg9IjE2Ij4mI3hhOzxjaXJjbGUgc3Ryb2tlLXdpZHRoPSIwLjI4NTcwOCIgc3Ryb2tlPSIjRDVEQUREIiBmaWxsPSJ1cmwoI3BhaW50MF9saW5lYXJfMzUxNF80MDIwMikiIHI9IjcuODU2OTYiIGN5PSI3Ljk5OTA4IiBjeD0iNy45OTkzMyIvPiYjeGE7PGcgY2xpcC1wYXRoPSJ1cmwoI2NsaXAwXzM1MTRfNDAyMDIpIj4mI3hhOzxwYXRoIGZpbGw9InVybCgjcGFpbnQxX2xpbmVhcl8zNTE0XzQwMjAyKSIgZD0iTTguNTgyOTIgNC4xMTQ3NEM4LjU4MjkyIDMuODM4NiA4LjgwNjc4IDMuNjE0NzUgOS4wODI5MiAzLjYxNDc1SDEwLjYyNjRDMTEuNTkyOSAzLjYxNDc1IDEyLjM3NjQgNC4zOTgyNSAxMi4zNzY0IDUuMzY0NzRWNi42OTM5NUMxMi4zNzY0IDYuOTcwMSAxMi4xNTI1IDcuMTkzOTUgMTEuODc2NCA3LjE5Mzk1QzExLjYwMDIgNy4xOTM5NSAxMS4zNzY0IDYuOTcwMSAxMS4zNzY0IDYuNjkzOTVWNS4zNjQ3NEMxMS4zNzY0IDQuOTUwNTMgMTEuMDQwNiA0LjYxNDc0IDEwLjYyNjQgNC42MTQ3NEg5LjA4MjkyQzguODA2NzggNC42MTQ3NCA4LjU4MjkyIDQuMzkwODkgOC41ODI5MiA0LjExNDc0Wk00LjEyMTU4IDguNTMzMjRDNC4zOTc3MiA4LjUzMzI0IDQuNjIxNTggOC43NTcxIDQuNjIxNTggOS4wMzMyNFYxMC42MjgxQzQuNjIxNTggMTEuMDQyMyA0Ljk1NzM2IDExLjM3ODEgNS4zNzE1OCAxMS4zNzgxSDcuMDY5MjVDNy4zNDUzOSAxMS4zNzgxIDcuNTY5MjUgMTEuNjAxOSA3LjU2OTI1IDExLjg3ODFDNy41NjkyNSAxMi4xNTQyIDcuMzQ1MzkgMTIuMzc4MSA3LjA2OTI1IDEyLjM3ODFINS4zNzE1OEM0LjQwNTA4IDEyLjM3ODEgMy42MjE1OCAxMS41OTQ2IDMuNjIxNTggMTAuNjI4MVY5LjAzMzI0QzMuNjIxNTggOC43NTcxIDMuODQ1NDQgOC41MzMyNCA0LjEyMTU4IDguNTMzMjRaIiBjbGlwLXJ1bGU9ImV2ZW5vZGQiIGZpbGwtcnVsZT0iZXZlbm9kZCIvPiYjeGE7PHBhdGggZmlsbD0idXJsKCNwYWludDJfbGluZWFyXzM1MTRfNDAyMDIpIiBkPSJNMTIuODQzMiAxMS45MzI4QzEyLjk0NzQgMTIuMDM3IDEyLjk5OTUgMTIuMTQ3NyAxMi45OTk1IDEyLjI2NDlDMTIuOTk5NSAxMi4zOTUxIDEyLjk0NzQgMTIuNTEyMyAxMi44NDMyIDEyLjYxNjRDMTIuNzM5MSAxMi43MjA2IDEyLjYyMTkgMTIuNzcyNyAxMi40OTE3IDEyLjc3MjdDMTIuMzc0NSAxMi43NzI3IDEyLjI2MzggMTIuNzIwNiAxMi4xNTk2IDEyLjYxNjRMMTAuNzcyOSAxMS4yMjk3QzEwLjM2OTMgMTEuNTgxMyA5LjkxMzU2IDExLjc1MDYgOS40MDU3NSAxMS43Mzc1QzguODk3OTQgMTEuNzExNSA4LjQ1NTI0IDExLjUwOTcgOC4wNzc2MyAxMS4xMzIxTDcuNjI4NDIgMTAuNjgyOEM3LjUyNDI1IDEwLjU3ODcgNy40NzIxNyAxMC40NjggNy40NzIxNyAxMC4zNTA4QzcuNDcyMTcgMTAuMjIwNiA3LjUyNDI1IDEwLjEwMzQgNy42Mjg0MiA5Ljk5OTI2TDEwLjE2NzUgNy40NjAyQzEwLjI3MTYgNy4zNTYwNCAxMC4zODg4IDcuMzAzOTYgMTAuNTE5IDcuMzAzOTZDMTAuNjQ5MiA3LjMwMzk2IDEwLjc2NjQgNy4zNTYwNCAxMC44NzA2IDcuNDYwMkwxMS4zMTk4IDcuOTA5NDJDMTEuNjk3NCA4LjI4NzAyIDExLjg5MjcgOC43MjMyMiAxMS45MDU3IDkuMjE4MDFDMTEuOTMxOCA5LjY5OTc4IDExLjc4MiAxMC4xMzYgMTEuNDU2NSAxMC41MjY2TDEyLjg0MzIgMTEuOTMyOFoiIGNsaXAtcnVsZT0iZXZlbm9kZCIgZmlsbC1ydWxlPSJldmVub2RkIi8+JiN4YTs8cGF0aCBmaWxsPSJ1cmwoI3BhaW50M19saW5lYXJfMzUxNF80MDIwMikiIGQ9Ik03LjcxNTE4IDguNzA0MDZDNy42MTEwMSA4LjgwODIzIDcuNDkzODIgOC44NjAzMSA3LjM2MzYxIDguODYwMzFDNy4yNDY0MiA4Ljg2MDMxIDcuMTM1NzUgOC44MDgyMyA3LjAzMTU4IDguNzA0MDZMNi4xMzMxNCA3LjgwNTYzTDUuNzQyNTIgOC4xOTYyNUM1LjYzODM1IDguMzAwNDIgNS41MjExNiA4LjM1MjUgNS4zOTA5NSA4LjM1MjVDNS4yNDc3MyA4LjM1MjUgNS4xMzA1NCA4LjMwMDQyIDUuMDM5MzkgOC4xOTYyNUw0LjU5MDE3IDcuNzY2NTdDNC4yMTI1NyA3LjM4ODk2IDQuMDEwNzUgNi45NTkyOCAzLjk4NDcgNi40Nzc1MUMzLjk1ODY2IDUuOTgyNzIgNC4wOTUzOCA1LjUzMzUgNC4zOTQ4NiA1LjEyOTg2TDMuMTU1NzYgMy44NTgzOUMzLjA1MTYgMy43NTQyMyAyLjk5OTUxIDMuNjM3MDQgMi45OTk1MSAzLjUwNjgzQzIuOTk5NTEgMy4zNzY2MyAzLjA1MTYgMy4yNTk0NCAzLjE1NTc2IDMuMTU1MjdDMy4yNTk5MyAzLjA1MTExIDMuMzcwNjEgMi45OTkwMiAzLjQ4Nzc5IDIuOTk5MDJDMy42MTggMi45OTkwMiAzLjczNTE5IDMuMDUxMTEgMy44MzkzNiAzLjE1NTI3TDUuMDc4NDUgNC40MjY3NEM1LjQ4MjEgNC4xMDEyMiA1LjkzNzgzIDMuOTUxNDggNi40NDU2NCAzLjk3NzUyQzYuOTUzNDYgNC4wMDM1NiA3LjM5NjE2IDQuMjA1MzggNy43NzM3NyA0LjU4Mjk5TDguMjIyOTkgNS4wMzIyQzguMzE0MTMgNS4xMjMzNSA4LjM1OTcxIDUuMjQwNTMgOC4zNTk3MSA1LjM4Mzc2QzguMzU5NzEgNS41MTM5NyA4LjMxNDEzIDUuNjI0NjUgOC4yMjI5OSA1LjcxNTc5TDcuODEyODMgNi4xMjU5NUw4LjcxMTI3IDcuMDA0ODVDOC44MTU0NCA3LjEwOTAyIDguODY3NTIgNy4yMjYyIDguODY3NTIgNy4zNTY0MUM4Ljg2NzUyIDcuNDg2NjIgOC44MTU0NCA3LjYwMzgxIDguNzExMjcgNy43MDc5N0M4LjYwNzEgNy44MTIxNCA4LjQ4OTkyIDcuODY0MjIgOC4zNTk3MSA3Ljg2NDIyQzguMjI5NSA3Ljg2NDIyIDguMTEyMzEgNy44MTIxNCA4LjAwODE0IDcuNzA3OTdMNy4xMjkyNCA2LjgwOTU0TDYuODE2NzQgNy4xMjIwNEw3LjI2NTk2IDcuNTYxNDlMNy43MTUxOCA4LjAwMDk0QzcuODE5MzQgOC4xMDUxMSA3Ljg3MTQzIDguMjIyMjkgNy44NzE0MyA4LjM1MjVDNy44NzE0MyA4LjQ4MjcxIDcuODE5MzQgOC41OTk5IDcuNzE1MTggOC43MDQwNloiLz4mI3hhOzwvZz4mI3hhOzxkZWZzPiYjeGE7PGxpbmVhckdyYWRpZW50IGdyYWRpZW50VW5pdHM9InVzZXJTcGFjZU9uVXNlIiB5Mj0iMTQuNzQ3IiB4Mj0iMTMuNjg3NCIgeTE9IjIuMjcwMTYiIHgxPSIxLjQ1MDQzIiBpZD0icGFpbnQwX2xpbmVhcl8zNTE0XzQwMjAyIj4mI3hhOzxzdG9wIHN0b3AtY29sb3I9IndoaXRlIi8+JiN4YTs8c3RvcCBzdG9wLWNvbG9yPSIjRUFFQ0VFIiBvZmZzZXQ9IjEiLz4mI3hhOzwvbGluZWFyR3JhZGllbnQ+JiN4YTs8bGluZWFyR3JhZGllbnQgZ3JhZGllbnRVbml0cz0idXNlclNwYWNlT25Vc2UiIHkyPSIxMS4wNTc0IiB4Mj0iMTEuMDciIHkxPSI0LjkyNTI1IiB4MT0iNC45MzM5NiIgaWQ9InBhaW50MV9saW5lYXJfMzUxNF80MDIwMiI+JiN4YTs8c3RvcCBzdG9wLWNvbG9yPSIjMDE5NUZGIi8+JiN4YTs8c3RvcCBzdG9wLWNvbG9yPSIjMTE0N0U5IiBvZmZzZXQ9IjAuOTkxMDI4Ii8+JiN4YTs8L2xpbmVhckdyYWRpZW50PiYjeGE7PGxpbmVhckdyYWRpZW50IGdyYWRpZW50VW5pdHM9InVzZXJTcGFjZU9uVXNlIiB5Mj0iMTEuOTkxOCIgeDI9IjEyLjEyODQiIHkxPSI4LjEyNDQ0IiB4MT0iOC4yOTkzOCIgaWQ9InBhaW50Ml9saW5lYXJfMzUxNF80MDIwMiI+JiN4YTs8c3RvcCBzdG9wLWNvbG9yPSIjMDBCQkZGIi8+JiN4YTs8c3RvcCBzdG9wLWNvbG9yPSIjMDA4QkZGIiBvZmZzZXQ9IjEiLz4mI3hhOzwvbGluZWFyR3JhZGllbnQ+JiN4YTs8bGluZWFyR3JhZGllbnQgZ3JhZGllbnRVbml0cz0idXNlclNwYWNlT25Vc2UiIHkyPSI3Ljk4NTcxIiB4Mj0iNy45NjkwMiIgeTE9IjMuODYxMzQiIHgxPSIzLjg2NzA2IiBpZD0icGFpbnQzX2xpbmVhcl8zNTE0XzQwMjAyIj4mI3hhOzxzdG9wIHN0b3AtY29sb3I9IiMxMzQ4RkYiLz4mI3hhOzxzdG9wIHN0b3AtY29sb3I9IiMwNjIzOEQiIG9mZnNldD0iMSIvPiYjeGE7PC9saW5lYXJHcmFkaWVudD4mI3hhOzxjbGlwUGF0aCBpZD0iY2xpcDBfMzUxNF80MDIwMiI+JiN4YTs8cmVjdCB0cmFuc2Zvcm09InRyYW5zbGF0ZSgyLjk5OTI3IDIuOTk5MDIpIiBmaWxsPSJ3aGl0ZSIgaGVpZ2h0PSI5Ljk5OTk2IiB3aWR0aD0iOS45OTk5NiIvPiYjeGE7PC9jbGlwUGF0aD4mI3hhOzwvZGVmcz4mI3hhOzwvc3ZnPg==;points=[[0,0,0,0,0],[0,0.25,0,0,0],[0,0.5,0,0,0],[0,0.75,0,0,0],[0.25,0,0,0,0],[0.5,0,0,0,0],[0.75,0,0,0,0],[1,0,0,0,0],[1,0.25,0,0,0],[1,0.5,0,0,0],[1,0.75,0,0,0]];labelBackgroundColor=default;" parent="1" vertex="1">
          <mxGeometry x="1319.69" y="289" width="32" height="32" as="geometry" />
        </mxCell>
      </root>
    </mxGraphModel>
  </diagram>
</mxfile>
